<mxfile host="Electron" modified="2024-03-08T13:07:31.382Z" agent="Mozilla/5.0 (Windows NT 10.0; Win64; x64) AppleWebKit/537.36 (KHTML, like Gecko) draw.io/23.1.5 Chrome/120.0.6099.109 Electron/28.1.0 Safari/537.36" etag="jleBcRtVObZ_dChkkCXu" version="23.1.5" type="device" pages="9">
  <diagram name="WholeElectricalSystem" id="MsmEw--c6FERdP3mu5BJ">
    <mxGraphModel dx="1690" dy="1674" grid="1" gridSize="10" guides="1" tooltips="1" connect="1" arrows="1" fold="1" page="1" pageScale="1" pageWidth="827" pageHeight="1169" math="0" shadow="0">
      <root>
        <mxCell id="0" />
        <mxCell id="1" parent="0" />
        <mxCell id="xvu4oaWDeYxHGIkC_W2Z-28" value="" style="rounded=0;whiteSpace=wrap;html=1;fillColor=none;" vertex="1" parent="1">
          <mxGeometry x="320" y="-720" width="240" height="200" as="geometry" />
        </mxCell>
        <mxCell id="sbSWdJ2btTOljgOdCEAD-1" value="" style="verticalLabelPosition=bottom;shadow=0;dashed=0;align=center;fillColor=strokeColor;html=1;verticalAlign=top;strokeWidth=1;shape=mxgraph.electrical.miscellaneous.monocell_battery;rotation=-90;" vertex="1" parent="1">
          <mxGeometry x="-210" y="470" width="100" height="60" as="geometry" />
        </mxCell>
        <mxCell id="sbSWdJ2btTOljgOdCEAD-2" value="" style="rounded=0;whiteSpace=wrap;html=1;fillColor=none;" vertex="1" parent="1">
          <mxGeometry x="-280" y="400" width="240" height="200" as="geometry" />
        </mxCell>
        <mxCell id="ON0lmAe2YtxbFXXSLrAi-1" value="GLV Power Unit" style="text;html=1;align=center;verticalAlign=middle;whiteSpace=wrap;rounded=0;fontFamily=Helvetica;fontSize=15;fontColor=default;labelBackgroundColor=default;" vertex="1" parent="1">
          <mxGeometry x="-240" y="380" width="160" height="20" as="geometry" />
        </mxCell>
        <mxCell id="kRNHz9ZlgXO46kr3LJrZ-1" value="+12 V" style="text;html=1;align=center;verticalAlign=middle;whiteSpace=wrap;rounded=0;fontFamily=Helvetica;fontSize=15;fontColor=default;labelBackgroundColor=default;" vertex="1" parent="1">
          <mxGeometry x="-100" y="430" width="60" height="20" as="geometry" />
        </mxCell>
        <mxCell id="kRNHz9ZlgXO46kr3LJrZ-2" value="GND" style="text;html=1;align=center;verticalAlign=middle;whiteSpace=wrap;rounded=0;fontFamily=Helvetica;fontSize=15;fontColor=default;labelBackgroundColor=default;" vertex="1" parent="1">
          <mxGeometry x="-100" y="470" width="60" height="20" as="geometry" />
        </mxCell>
        <mxCell id="w8gNF3talsbIbQyJNYTr-1" value="" style="rounded=0;whiteSpace=wrap;html=1;fillColor=none;" vertex="1" parent="1">
          <mxGeometry x="720" y="-320" width="240" height="400" as="geometry" />
        </mxCell>
        <mxCell id="1THhNBDfODjcH-pkRfXb-1" value="HVBOXUnit" style="text;html=1;align=center;verticalAlign=middle;whiteSpace=wrap;rounded=0;fontFamily=Helvetica;fontSize=15;fontColor=default;labelBackgroundColor=default;" vertex="1" parent="1">
          <mxGeometry x="760" y="-340" width="160" height="20" as="geometry" />
        </mxCell>
        <mxCell id="7s7o2PAD9FkfWTjjIo-l-4" style="edgeStyle=orthogonalEdgeStyle;rounded=0;orthogonalLoop=1;jettySize=auto;html=1;exitX=1;exitY=1;exitDx=0;exitDy=0;exitPerimeter=0;entryX=0;entryY=0.5;entryDx=0;entryDy=0;strokeColor=default;align=center;verticalAlign=middle;fontFamily=Helvetica;fontSize=11;fontColor=default;labelBackgroundColor=default;startArrow=oval;startFill=1;endArrow=block;endFill=1;" edge="1" parent="1" source="12yPev2hvcUefo8gwgzs-1" target="aLsiyivunSuFtoDEYW-E-1">
          <mxGeometry relative="1" as="geometry">
            <Array as="points">
              <mxPoint x="600" y="440" />
              <mxPoint x="600" y="-80" />
            </Array>
          </mxGeometry>
        </mxCell>
        <mxCell id="12yPev2hvcUefo8gwgzs-1" value="" style="pointerEvents=1;verticalLabelPosition=bottom;shadow=0;dashed=0;align=center;html=1;verticalAlign=top;shape=mxgraph.electrical.electro-mechanical.make_contact;fontFamily=Helvetica;fontSize=11;fontColor=default;labelBackgroundColor=default;" vertex="1" parent="1">
          <mxGeometry x="439" y="420" width="80" height="20" as="geometry" />
        </mxCell>
        <mxCell id="12yPev2hvcUefo8gwgzs-2" value="" style="pointerEvents=1;verticalLabelPosition=bottom;shadow=0;dashed=0;align=center;html=1;verticalAlign=top;shape=mxgraph.electrical.electro-mechanical.make_contact;fontFamily=Helvetica;fontSize=11;fontColor=default;labelBackgroundColor=default;" vertex="1" parent="1">
          <mxGeometry x="280" y="420" width="80" height="20" as="geometry" />
        </mxCell>
        <mxCell id="12yPev2hvcUefo8gwgzs-3" value="" style="pointerEvents=1;verticalLabelPosition=bottom;shadow=0;dashed=0;align=center;html=1;verticalAlign=top;shape=mxgraph.electrical.electro-mechanical.make_contact;fontFamily=Helvetica;fontSize=11;fontColor=default;labelBackgroundColor=default;" vertex="1" parent="1">
          <mxGeometry x="40" y="420" width="80" height="20" as="geometry" />
        </mxCell>
        <mxCell id="12yPev2hvcUefo8gwgzs-4" value="GLVMS" style="text;html=1;align=center;verticalAlign=middle;whiteSpace=wrap;rounded=0;fontFamily=Helvetica;fontSize=15;fontColor=default;labelBackgroundColor=default;" vertex="1" parent="1">
          <mxGeometry x="40" y="400" width="80" height="20" as="geometry" />
        </mxCell>
        <mxCell id="12yPev2hvcUefo8gwgzs-5" value="SDN (R)" style="text;html=1;align=center;verticalAlign=middle;whiteSpace=wrap;rounded=0;fontFamily=Helvetica;fontSize=15;fontColor=default;labelBackgroundColor=default;" vertex="1" parent="1">
          <mxGeometry x="280" y="400" width="80" height="20" as="geometry" />
        </mxCell>
        <mxCell id="12yPev2hvcUefo8gwgzs-6" value="SDN (L)" style="text;html=1;align=center;verticalAlign=middle;whiteSpace=wrap;rounded=0;fontFamily=Helvetica;fontSize=15;fontColor=default;labelBackgroundColor=default;" vertex="1" parent="1">
          <mxGeometry x="440" y="400" width="80" height="20" as="geometry" />
        </mxCell>
        <mxCell id="12yPev2hvcUefo8gwgzs-7" value="" style="pointerEvents=1;verticalLabelPosition=bottom;shadow=0;dashed=0;align=center;html=1;verticalAlign=top;shape=mxgraph.electrical.electro-mechanical.make_contact;fontFamily=Helvetica;fontSize=11;fontColor=default;labelBackgroundColor=default;" vertex="1" parent="1">
          <mxGeometry x="1040" y="500" width="80" height="20" as="geometry" />
        </mxCell>
        <mxCell id="12yPev2hvcUefo8gwgzs-8" value="SDN (C)" style="text;html=1;align=center;verticalAlign=middle;whiteSpace=wrap;rounded=0;fontFamily=Helvetica;fontSize=15;fontColor=default;labelBackgroundColor=default;" vertex="1" parent="1">
          <mxGeometry x="1040" y="480" width="80" height="20" as="geometry" />
        </mxCell>
        <mxCell id="12yPev2hvcUefo8gwgzs-9" value="TSMS" style="text;html=1;align=center;verticalAlign=middle;whiteSpace=wrap;rounded=0;fontFamily=Helvetica;fontSize=15;fontColor=default;labelBackgroundColor=default;" vertex="1" parent="1">
          <mxGeometry x="720" y="480" width="80" height="20" as="geometry" />
        </mxCell>
        <mxCell id="12yPev2hvcUefo8gwgzs-10" value="" style="pointerEvents=1;verticalLabelPosition=bottom;shadow=0;dashed=0;align=center;html=1;verticalAlign=top;shape=mxgraph.electrical.electro-mechanical.make_contact;fontFamily=Helvetica;fontSize=11;fontColor=default;labelBackgroundColor=default;" vertex="1" parent="1">
          <mxGeometry x="720" y="500" width="80" height="20" as="geometry" />
        </mxCell>
        <mxCell id="oCRFyxEQRca-3eYmZbQT-1" value="" style="rounded=0;whiteSpace=wrap;html=1;fillColor=none;" vertex="1" parent="1">
          <mxGeometry x="-120" y="-320" width="240" height="480" as="geometry" />
        </mxCell>
        <mxCell id="oCRFyxEQRca-3eYmZbQT-2" value="Accumulator Unit" style="text;html=1;align=center;verticalAlign=middle;whiteSpace=wrap;rounded=0;fontFamily=Helvetica;fontSize=15;fontColor=default;labelBackgroundColor=default;" vertex="1" parent="1">
          <mxGeometry x="-80" y="-340" width="160" height="20" as="geometry" />
        </mxCell>
        <mxCell id="yp7jH8YeEBBK8Xu4pnaI-1" value="" style="rounded=0;whiteSpace=wrap;html=1;fillColor=none;" vertex="1" parent="1">
          <mxGeometry x="1640" y="-320" width="240" height="280" as="geometry" />
        </mxCell>
        <mxCell id="yp7jH8YeEBBK8Xu4pnaI-2" value="TSPowerUnit" style="text;html=1;align=center;verticalAlign=middle;whiteSpace=wrap;rounded=0;fontFamily=Helvetica;fontSize=15;fontColor=default;labelBackgroundColor=default;" vertex="1" parent="1">
          <mxGeometry x="1681" y="-340" width="160" height="20" as="geometry" />
        </mxCell>
        <mxCell id="yp7jH8YeEBBK8Xu4pnaI-3" value="ACC+" style="text;html=1;align=center;verticalAlign=middle;whiteSpace=wrap;rounded=0;fontFamily=Helvetica;fontSize=15;fontColor=default;labelBackgroundColor=default;" vertex="1" parent="1">
          <mxGeometry x="60" y="-290" width="60" height="20" as="geometry" />
        </mxCell>
        <mxCell id="yp7jH8YeEBBK8Xu4pnaI-4" value="ACC-" style="text;html=1;align=center;verticalAlign=middle;whiteSpace=wrap;rounded=0;fontFamily=Helvetica;fontSize=15;fontColor=default;labelBackgroundColor=default;" vertex="1" parent="1">
          <mxGeometry x="60" y="-250" width="60" height="20" as="geometry" />
        </mxCell>
        <mxCell id="yp7jH8YeEBBK8Xu4pnaI-5" value="TS+_IN" style="text;html=1;align=center;verticalAlign=middle;whiteSpace=wrap;rounded=0;fontFamily=Helvetica;fontSize=15;fontColor=default;labelBackgroundColor=default;" vertex="1" parent="1">
          <mxGeometry x="720" y="-290" width="80" height="20" as="geometry" />
        </mxCell>
        <mxCell id="yp7jH8YeEBBK8Xu4pnaI-6" value="TS-_IN" style="text;html=1;align=center;verticalAlign=middle;whiteSpace=wrap;rounded=0;fontFamily=Helvetica;fontSize=15;fontColor=default;labelBackgroundColor=default;" vertex="1" parent="1">
          <mxGeometry x="720" y="-250" width="80" height="20" as="geometry" />
        </mxCell>
        <mxCell id="yp7jH8YeEBBK8Xu4pnaI-7" value="TS+_OUT" style="text;html=1;align=center;verticalAlign=middle;whiteSpace=wrap;rounded=0;fontFamily=Helvetica;fontSize=15;fontColor=default;labelBackgroundColor=default;" vertex="1" parent="1">
          <mxGeometry x="880" y="-290" width="80" height="20" as="geometry" />
        </mxCell>
        <mxCell id="yp7jH8YeEBBK8Xu4pnaI-8" value="TS-_OUT" style="text;html=1;align=center;verticalAlign=middle;whiteSpace=wrap;rounded=0;fontFamily=Helvetica;fontSize=15;fontColor=default;labelBackgroundColor=default;" vertex="1" parent="1">
          <mxGeometry x="880" y="-250" width="80" height="20" as="geometry" />
        </mxCell>
        <mxCell id="yp7jH8YeEBBK8Xu4pnaI-9" value="TS+_IN" style="text;html=1;align=center;verticalAlign=middle;whiteSpace=wrap;rounded=0;fontFamily=Helvetica;fontSize=15;fontColor=default;labelBackgroundColor=default;" vertex="1" parent="1">
          <mxGeometry x="1640" y="-290" width="80" height="20" as="geometry" />
        </mxCell>
        <mxCell id="yp7jH8YeEBBK8Xu4pnaI-10" value="TS-_IN" style="text;html=1;align=center;verticalAlign=middle;whiteSpace=wrap;rounded=0;fontFamily=Helvetica;fontSize=15;fontColor=default;labelBackgroundColor=default;" vertex="1" parent="1">
          <mxGeometry x="1640" y="-250" width="80" height="20" as="geometry" />
        </mxCell>
        <mxCell id="aLsiyivunSuFtoDEYW-E-1" value="Interlock_IN" style="text;html=1;align=center;verticalAlign=middle;whiteSpace=wrap;rounded=0;fontFamily=Helvetica;fontSize=15;fontColor=default;labelBackgroundColor=default;" vertex="1" parent="1">
          <mxGeometry x="720" y="-90" width="100" height="20" as="geometry" />
        </mxCell>
        <mxCell id="sOxcF_Aarso3wAnepvWY-14" style="edgeStyle=orthogonalEdgeStyle;rounded=0;orthogonalLoop=1;jettySize=auto;html=1;exitX=1;exitY=0.5;exitDx=0;exitDy=0;entryX=0;entryY=0.5;entryDx=0;entryDy=0;strokeColor=default;align=center;verticalAlign=middle;fontFamily=Helvetica;fontSize=11;fontColor=default;labelBackgroundColor=default;startArrow=oval;startFill=1;endArrow=block;endFill=1;" edge="1" parent="1" source="aLsiyivunSuFtoDEYW-E-2" target="sOxcF_Aarso3wAnepvWY-1">
          <mxGeometry relative="1" as="geometry">
            <Array as="points">
              <mxPoint x="1360" y="-80" />
              <mxPoint x="1360" y="200" />
            </Array>
          </mxGeometry>
        </mxCell>
        <mxCell id="aLsiyivunSuFtoDEYW-E-2" value="Interlock_OUT" style="text;html=1;align=center;verticalAlign=middle;whiteSpace=wrap;rounded=0;fontFamily=Helvetica;fontSize=15;fontColor=default;labelBackgroundColor=default;" vertex="1" parent="1">
          <mxGeometry x="860" y="-90" width="100" height="20" as="geometry" />
        </mxCell>
        <mxCell id="aLsiyivunSuFtoDEYW-E-3" value="TSMP+" style="text;html=1;align=center;verticalAlign=middle;whiteSpace=wrap;rounded=0;fontFamily=Helvetica;fontSize=15;fontColor=default;labelBackgroundColor=default;" vertex="1" parent="1">
          <mxGeometry x="880" y="-210" width="80" height="20" as="geometry" />
        </mxCell>
        <mxCell id="aLsiyivunSuFtoDEYW-E-4" value="TSMP-" style="text;html=1;align=center;verticalAlign=middle;whiteSpace=wrap;rounded=0;fontFamily=Helvetica;fontSize=15;fontColor=default;labelBackgroundColor=default;" vertex="1" parent="1">
          <mxGeometry x="879" y="-170" width="80" height="20" as="geometry" />
        </mxCell>
        <mxCell id="aLsiyivunSuFtoDEYW-E-5" value="~DCHG_EN" style="text;html=1;align=center;verticalAlign=middle;whiteSpace=wrap;rounded=0;fontFamily=Helvetica;fontSize=15;fontColor=default;labelBackgroundColor=default;" vertex="1" parent="1">
          <mxGeometry x="720" y="-50" width="100" height="20" as="geometry" />
        </mxCell>
        <mxCell id="aLsiyivunSuFtoDEYW-E-6" value="GND" style="text;html=1;align=center;verticalAlign=middle;whiteSpace=wrap;rounded=0;fontFamily=Helvetica;fontSize=15;fontColor=default;labelBackgroundColor=default;" vertex="1" parent="1">
          <mxGeometry x="720" y="30" width="60" height="20" as="geometry" />
        </mxCell>
        <mxCell id="7s7o2PAD9FkfWTjjIo-l-1" style="edgeStyle=orthogonalEdgeStyle;rounded=0;orthogonalLoop=1;jettySize=auto;html=1;exitX=1;exitY=0.5;exitDx=0;exitDy=0;entryX=0;entryY=1;entryDx=0;entryDy=0;entryPerimeter=0;startArrow=oval;startFill=1;endArrow=block;endFill=1;" edge="1" parent="1" source="kRNHz9ZlgXO46kr3LJrZ-1" target="12yPev2hvcUefo8gwgzs-3">
          <mxGeometry relative="1" as="geometry">
            <Array as="points">
              <mxPoint x="20" y="440" />
              <mxPoint x="20" y="440" />
            </Array>
          </mxGeometry>
        </mxCell>
        <mxCell id="7s7o2PAD9FkfWTjjIo-l-2" style="edgeStyle=orthogonalEdgeStyle;rounded=0;orthogonalLoop=1;jettySize=auto;html=1;exitX=1;exitY=1;exitDx=0;exitDy=0;exitPerimeter=0;entryX=0;entryY=1;entryDx=0;entryDy=0;entryPerimeter=0;strokeColor=default;align=center;verticalAlign=middle;fontFamily=Helvetica;fontSize=11;fontColor=default;labelBackgroundColor=default;startArrow=oval;startFill=1;endArrow=block;endFill=1;" edge="1" parent="1" source="12yPev2hvcUefo8gwgzs-3" target="12yPev2hvcUefo8gwgzs-2">
          <mxGeometry relative="1" as="geometry">
            <Array as="points">
              <mxPoint x="240" y="440" />
              <mxPoint x="240" y="440" />
            </Array>
          </mxGeometry>
        </mxCell>
        <mxCell id="7s7o2PAD9FkfWTjjIo-l-3" style="edgeStyle=orthogonalEdgeStyle;rounded=0;orthogonalLoop=1;jettySize=auto;html=1;exitX=1;exitY=1;exitDx=0;exitDy=0;exitPerimeter=0;entryX=0;entryY=1;entryDx=0;entryDy=0;entryPerimeter=0;strokeColor=default;align=center;verticalAlign=middle;fontFamily=Helvetica;fontSize=11;fontColor=default;labelBackgroundColor=default;startArrow=oval;startFill=1;endArrow=block;endFill=1;" edge="1" parent="1" source="12yPev2hvcUefo8gwgzs-2" target="12yPev2hvcUefo8gwgzs-1">
          <mxGeometry relative="1" as="geometry">
            <Array as="points">
              <mxPoint x="380" y="440" />
              <mxPoint x="380" y="440" />
            </Array>
          </mxGeometry>
        </mxCell>
        <mxCell id="6N6BNXJXTDJu4V0NUzPb-1" value="" style="rounded=0;whiteSpace=wrap;html=1;fillColor=none;" vertex="1" parent="1">
          <mxGeometry x="1480" y="80" width="240" height="520" as="geometry" />
        </mxCell>
        <mxCell id="6N6BNXJXTDJu4V0NUzPb-2" value="AMS, BSPD, IMD Status Unit" style="text;html=1;align=center;verticalAlign=middle;whiteSpace=wrap;rounded=0;fontFamily=Helvetica;fontSize=15;fontColor=default;labelBackgroundColor=default;" vertex="1" parent="1">
          <mxGeometry x="1480" y="60" width="240" height="20" as="geometry" />
        </mxCell>
        <mxCell id="sOxcF_Aarso3wAnepvWY-1" value="SDN_IN" style="text;html=1;align=center;verticalAlign=middle;whiteSpace=wrap;rounded=0;fontFamily=Helvetica;fontSize=15;fontColor=default;labelBackgroundColor=default;" vertex="1" parent="1">
          <mxGeometry x="1480" y="190" width="80" height="20" as="geometry" />
        </mxCell>
        <mxCell id="sOxcF_Aarso3wAnepvWY-2" value="SDN_OUT" style="text;html=1;align=center;verticalAlign=middle;whiteSpace=wrap;rounded=0;fontFamily=Helvetica;fontSize=15;fontColor=default;labelBackgroundColor=default;" vertex="1" parent="1">
          <mxGeometry x="1480" y="230" width="100" height="20" as="geometry" />
        </mxCell>
        <mxCell id="sOxcF_Aarso3wAnepvWY-3" value="+12V_IN" style="text;html=1;align=center;verticalAlign=middle;whiteSpace=wrap;rounded=0;fontFamily=Helvetica;fontSize=15;fontColor=default;labelBackgroundColor=default;" vertex="1" parent="1">
          <mxGeometry x="1480" y="110" width="80" height="20" as="geometry" />
        </mxCell>
        <mxCell id="sOxcF_Aarso3wAnepvWY-4" value="GND" style="text;html=1;align=center;verticalAlign=middle;whiteSpace=wrap;rounded=0;fontFamily=Helvetica;fontSize=15;fontColor=default;labelBackgroundColor=default;" vertex="1" parent="1">
          <mxGeometry x="1480" y="150" width="60" height="20" as="geometry" />
        </mxCell>
        <mxCell id="sOxcF_Aarso3wAnepvWY-5" value="Chassis" style="text;html=1;align=center;verticalAlign=middle;whiteSpace=wrap;rounded=0;fontFamily=Helvetica;fontSize=15;fontColor=default;labelBackgroundColor=default;" vertex="1" parent="1">
          <mxGeometry x="1720" y="-210" width="80" height="20" as="geometry" />
        </mxCell>
        <mxCell id="sOxcF_Aarso3wAnepvWY-11" value="AMS_Sig_IN" style="text;html=1;align=center;verticalAlign=middle;whiteSpace=wrap;rounded=0;fontFamily=Helvetica;fontSize=15;fontColor=default;labelBackgroundColor=default;" vertex="1" parent="1">
          <mxGeometry x="1480" y="270" width="100" height="20" as="geometry" />
        </mxCell>
        <mxCell id="sOxcF_Aarso3wAnepvWY-12" value="BSPD_Sig_IN" style="text;html=1;align=center;verticalAlign=middle;whiteSpace=wrap;rounded=0;fontFamily=Helvetica;fontSize=15;fontColor=default;labelBackgroundColor=default;" vertex="1" parent="1">
          <mxGeometry x="1480" y="310" width="100" height="20" as="geometry" />
        </mxCell>
        <mxCell id="sOxcF_Aarso3wAnepvWY-13" value="IMD_Sig_IN" style="text;html=1;align=center;verticalAlign=middle;whiteSpace=wrap;rounded=0;fontFamily=Helvetica;fontSize=15;fontColor=default;labelBackgroundColor=default;" vertex="1" parent="1">
          <mxGeometry x="1480" y="350" width="100" height="20" as="geometry" />
        </mxCell>
        <mxCell id="JYPn7rQ16HHAzAho9eKT-1" value="" style="pointerEvents=1;verticalLabelPosition=bottom;shadow=0;dashed=0;align=center;html=1;verticalAlign=top;shape=mxgraph.electrical.electro-mechanical.make_contact;fontFamily=Helvetica;fontSize=11;fontColor=default;labelBackgroundColor=default;" vertex="1" parent="1">
          <mxGeometry x="1200" y="500" width="80" height="20" as="geometry" />
        </mxCell>
        <mxCell id="7P-3DC4ukaGVznD_tqQZ-1" value="Inertia SW" style="text;html=1;align=center;verticalAlign=middle;whiteSpace=wrap;rounded=0;fontFamily=Helvetica;fontSize=15;fontColor=default;labelBackgroundColor=default;" vertex="1" parent="1">
          <mxGeometry x="1200" y="480" width="80" height="20" as="geometry" />
        </mxCell>
        <mxCell id="nfOSJEIFOIarVeCbb8zM-1" value="" style="pointerEvents=1;verticalLabelPosition=bottom;shadow=0;dashed=0;align=center;html=1;verticalAlign=top;shape=mxgraph.electrical.electro-mechanical.make_contact;fontFamily=Helvetica;fontSize=11;fontColor=default;labelBackgroundColor=default;" vertex="1" parent="1">
          <mxGeometry x="880" y="500" width="80" height="20" as="geometry" />
        </mxCell>
        <mxCell id="bwSJk0oItR5B5g4ONm-I-1" value="BOTS" style="text;html=1;align=center;verticalAlign=middle;whiteSpace=wrap;rounded=0;fontFamily=Helvetica;fontSize=15;fontColor=default;labelBackgroundColor=default;" vertex="1" parent="1">
          <mxGeometry x="880" y="480" width="80" height="20" as="geometry" />
        </mxCell>
        <mxCell id="xvu4oaWDeYxHGIkC_W2Z-1" style="edgeStyle=orthogonalEdgeStyle;rounded=0;orthogonalLoop=1;jettySize=auto;html=1;exitX=0;exitY=0.5;exitDx=0;exitDy=0;entryX=1;entryY=1;entryDx=0;entryDy=0;entryPerimeter=0;strokeColor=default;align=center;verticalAlign=middle;fontFamily=Helvetica;fontSize=11;fontColor=default;labelBackgroundColor=default;startArrow=oval;startFill=1;endArrow=block;endFill=1;" edge="1" parent="1" source="sOxcF_Aarso3wAnepvWY-2" target="JYPn7rQ16HHAzAho9eKT-1">
          <mxGeometry relative="1" as="geometry">
            <Array as="points">
              <mxPoint x="1360" y="240" />
              <mxPoint x="1360" y="520" />
            </Array>
          </mxGeometry>
        </mxCell>
        <mxCell id="xvu4oaWDeYxHGIkC_W2Z-2" style="edgeStyle=orthogonalEdgeStyle;rounded=0;orthogonalLoop=1;jettySize=auto;html=1;exitX=0;exitY=1;exitDx=0;exitDy=0;exitPerimeter=0;entryX=1;entryY=1;entryDx=0;entryDy=0;entryPerimeter=0;strokeColor=default;align=center;verticalAlign=middle;fontFamily=Helvetica;fontSize=11;fontColor=default;labelBackgroundColor=default;startArrow=oval;startFill=1;endArrow=block;endFill=1;" edge="1" parent="1" source="JYPn7rQ16HHAzAho9eKT-1" target="12yPev2hvcUefo8gwgzs-7">
          <mxGeometry relative="1" as="geometry">
            <Array as="points">
              <mxPoint x="1160" y="520" />
              <mxPoint x="1160" y="520" />
            </Array>
          </mxGeometry>
        </mxCell>
        <mxCell id="xvu4oaWDeYxHGIkC_W2Z-3" style="edgeStyle=orthogonalEdgeStyle;rounded=0;orthogonalLoop=1;jettySize=auto;html=1;exitX=0;exitY=1;exitDx=0;exitDy=0;exitPerimeter=0;entryX=1;entryY=1;entryDx=0;entryDy=0;entryPerimeter=0;strokeColor=default;align=center;verticalAlign=middle;fontFamily=Helvetica;fontSize=11;fontColor=default;labelBackgroundColor=default;startArrow=oval;startFill=1;endArrow=block;endFill=1;" edge="1" parent="1" source="12yPev2hvcUefo8gwgzs-7" target="nfOSJEIFOIarVeCbb8zM-1">
          <mxGeometry relative="1" as="geometry">
            <Array as="points">
              <mxPoint x="1000" y="520" />
              <mxPoint x="1000" y="520" />
            </Array>
          </mxGeometry>
        </mxCell>
        <mxCell id="xvu4oaWDeYxHGIkC_W2Z-4" style="edgeStyle=orthogonalEdgeStyle;rounded=0;orthogonalLoop=1;jettySize=auto;html=1;exitX=0;exitY=1;exitDx=0;exitDy=0;exitPerimeter=0;entryX=1;entryY=1;entryDx=0;entryDy=0;entryPerimeter=0;strokeColor=default;align=center;verticalAlign=middle;fontFamily=Helvetica;fontSize=11;fontColor=default;labelBackgroundColor=default;startArrow=oval;startFill=1;endArrow=block;endFill=1;" edge="1" parent="1" source="nfOSJEIFOIarVeCbb8zM-1" target="12yPev2hvcUefo8gwgzs-10">
          <mxGeometry relative="1" as="geometry">
            <Array as="points">
              <mxPoint x="840" y="520" />
              <mxPoint x="840" y="520" />
            </Array>
          </mxGeometry>
        </mxCell>
        <mxCell id="xvu4oaWDeYxHGIkC_W2Z-5" value="AIR+_EN" style="text;html=1;align=center;verticalAlign=middle;whiteSpace=wrap;rounded=0;fontFamily=Helvetica;fontSize=15;fontColor=default;labelBackgroundColor=default;" vertex="1" parent="1">
          <mxGeometry x="-120" y="-170" width="80" height="20" as="geometry" />
        </mxCell>
        <mxCell id="xvu4oaWDeYxHGIkC_W2Z-6" value="AIR-_EN" style="text;html=1;align=center;verticalAlign=middle;whiteSpace=wrap;rounded=0;fontFamily=Helvetica;fontSize=15;fontColor=default;labelBackgroundColor=default;" vertex="1" parent="1">
          <mxGeometry x="-120" y="-90" width="80" height="20" as="geometry" />
        </mxCell>
        <mxCell id="xvu4oaWDeYxHGIkC_W2Z-7" value="PCHG_EN" style="text;html=1;align=center;verticalAlign=middle;whiteSpace=wrap;rounded=0;fontFamily=Helvetica;fontSize=15;fontColor=default;labelBackgroundColor=default;" vertex="1" parent="1">
          <mxGeometry x="-120" y="-130" width="100" height="20" as="geometry" />
        </mxCell>
        <mxCell id="xvu4oaWDeYxHGIkC_W2Z-8" value="+12V_IN" style="text;html=1;align=center;verticalAlign=middle;whiteSpace=wrap;rounded=0;fontFamily=Helvetica;fontSize=15;fontColor=default;labelBackgroundColor=default;" vertex="1" parent="1">
          <mxGeometry x="-120" y="-50" width="80" height="20" as="geometry" />
        </mxCell>
        <mxCell id="xvu4oaWDeYxHGIkC_W2Z-9" value="GND" style="text;html=1;align=center;verticalAlign=middle;whiteSpace=wrap;rounded=0;fontFamily=Helvetica;fontSize=15;fontColor=default;labelBackgroundColor=default;" vertex="1" parent="1">
          <mxGeometry x="-120" y="-10" width="60" height="20" as="geometry" />
        </mxCell>
        <mxCell id="xvu4oaWDeYxHGIkC_W2Z-10" value="AMS_Sig_OUT" style="text;html=1;align=center;verticalAlign=middle;whiteSpace=wrap;rounded=0;fontFamily=Helvetica;fontSize=15;fontColor=default;labelBackgroundColor=default;" vertex="1" parent="1">
          <mxGeometry y="70" width="120" height="20" as="geometry" />
        </mxCell>
        <mxCell id="xvu4oaWDeYxHGIkC_W2Z-11" value="" style="rounded=0;whiteSpace=wrap;html=1;fillColor=none;" vertex="1" parent="1">
          <mxGeometry x="199" y="720" width="240" height="280" as="geometry" />
        </mxCell>
        <mxCell id="xvu4oaWDeYxHGIkC_W2Z-12" value="BSPD Unit" style="text;html=1;align=center;verticalAlign=middle;whiteSpace=wrap;rounded=0;fontFamily=Helvetica;fontSize=15;fontColor=default;labelBackgroundColor=default;" vertex="1" parent="1">
          <mxGeometry x="239" y="700" width="160" height="20" as="geometry" />
        </mxCell>
        <mxCell id="xvu4oaWDeYxHGIkC_W2Z-13" value="IMD_Sig_OUT" style="text;html=1;align=center;verticalAlign=middle;whiteSpace=wrap;rounded=0;fontFamily=Helvetica;fontSize=15;fontColor=default;labelBackgroundColor=default;" vertex="1" parent="1">
          <mxGeometry y="110" width="120" height="20" as="geometry" />
        </mxCell>
        <mxCell id="xvu4oaWDeYxHGIkC_W2Z-15" value="CANH" style="text;html=1;align=center;verticalAlign=middle;whiteSpace=wrap;rounded=0;fontFamily=Helvetica;fontSize=15;fontColor=default;labelBackgroundColor=default;" vertex="1" parent="1">
          <mxGeometry x="60" y="-130" width="60" height="20" as="geometry" />
        </mxCell>
        <mxCell id="xvu4oaWDeYxHGIkC_W2Z-16" value="CANL" style="text;html=1;align=center;verticalAlign=middle;whiteSpace=wrap;rounded=0;fontFamily=Helvetica;fontSize=15;fontColor=default;labelBackgroundColor=default;" vertex="1" parent="1">
          <mxGeometry x="60" y="-170" width="60" height="20" as="geometry" />
        </mxCell>
        <mxCell id="xvu4oaWDeYxHGIkC_W2Z-17" value="CANH" style="text;html=1;align=center;verticalAlign=middle;whiteSpace=wrap;rounded=0;fontFamily=Helvetica;fontSize=15;fontColor=default;labelBackgroundColor=default;" vertex="1" parent="1">
          <mxGeometry x="1820" y="-170" width="60" height="20" as="geometry" />
        </mxCell>
        <mxCell id="xvu4oaWDeYxHGIkC_W2Z-18" value="CANL" style="text;html=1;align=center;verticalAlign=middle;whiteSpace=wrap;rounded=0;fontFamily=Helvetica;fontSize=15;fontColor=default;labelBackgroundColor=default;" vertex="1" parent="1">
          <mxGeometry x="1820" y="-130" width="60" height="20" as="geometry" />
        </mxCell>
        <mxCell id="xvu4oaWDeYxHGIkC_W2Z-20" value="+12V_IN" style="text;html=1;align=center;verticalAlign=middle;whiteSpace=wrap;rounded=0;fontFamily=Helvetica;fontSize=15;fontColor=default;labelBackgroundColor=default;" vertex="1" parent="1">
          <mxGeometry x="1640" y="-170" width="80" height="20" as="geometry" />
        </mxCell>
        <mxCell id="xvu4oaWDeYxHGIkC_W2Z-21" value="GND" style="text;html=1;align=center;verticalAlign=middle;whiteSpace=wrap;rounded=0;fontFamily=Helvetica;fontSize=15;fontColor=default;labelBackgroundColor=default;" vertex="1" parent="1">
          <mxGeometry x="1640" y="-130" width="60" height="20" as="geometry" />
        </mxCell>
        <mxCell id="xvu4oaWDeYxHGIkC_W2Z-22" value="IGN" style="text;html=1;align=center;verticalAlign=middle;whiteSpace=wrap;rounded=0;fontFamily=Helvetica;fontSize=15;fontColor=default;labelBackgroundColor=default;" vertex="1" parent="1">
          <mxGeometry x="1640" y="-90" width="60" height="20" as="geometry" />
        </mxCell>
        <mxCell id="xvu4oaWDeYxHGIkC_W2Z-23" value="" style="rounded=0;whiteSpace=wrap;html=1;fillColor=none;" vertex="1" parent="1">
          <mxGeometry x="1720" y="680" width="240" height="280" as="geometry" />
        </mxCell>
        <mxCell id="xvu4oaWDeYxHGIkC_W2Z-24" value="Water Pump Unit" style="text;html=1;align=center;verticalAlign=middle;whiteSpace=wrap;rounded=0;fontFamily=Helvetica;fontSize=15;fontColor=default;labelBackgroundColor=default;" vertex="1" parent="1">
          <mxGeometry x="1720" y="660" width="240" height="20" as="geometry" />
        </mxCell>
        <mxCell id="xvu4oaWDeYxHGIkC_W2Z-26" value="" style="verticalLabelPosition=bottom;shadow=0;dashed=0;align=center;html=1;verticalAlign=top;shape=mxgraph.electrical.opto_electronics.led_2;pointerEvents=1;fontFamily=Helvetica;fontSize=11;fontColor=default;labelBackgroundColor=default;" vertex="1" parent="1">
          <mxGeometry x="400" y="-640" width="80" height="40" as="geometry" />
        </mxCell>
        <mxCell id="xvu4oaWDeYxHGIkC_W2Z-29" value="TSAL LED Unit" style="text;html=1;align=center;verticalAlign=middle;whiteSpace=wrap;rounded=0;fontFamily=Helvetica;fontSize=15;fontColor=default;labelBackgroundColor=default;" vertex="1" parent="1">
          <mxGeometry x="360" y="-740" width="160" height="20" as="geometry" />
        </mxCell>
        <mxCell id="xvu4oaWDeYxHGIkC_W2Z-30" value="LED_G_A" style="text;html=1;align=center;verticalAlign=middle;whiteSpace=wrap;rounded=0;fontFamily=Helvetica;fontSize=15;fontColor=default;labelBackgroundColor=default;" vertex="1" parent="1">
          <mxGeometry x="321" y="-690" width="100" height="20" as="geometry" />
        </mxCell>
        <mxCell id="xvu4oaWDeYxHGIkC_W2Z-31" value="LED_G_K" style="text;html=1;align=center;verticalAlign=middle;whiteSpace=wrap;rounded=0;fontFamily=Helvetica;fontSize=15;fontColor=default;labelBackgroundColor=default;" vertex="1" parent="1">
          <mxGeometry x="460" y="-690" width="100" height="20" as="geometry" />
        </mxCell>
        <mxCell id="xvu4oaWDeYxHGIkC_W2Z-32" value="LED_R_A" style="text;html=1;align=center;verticalAlign=middle;whiteSpace=wrap;rounded=0;fontFamily=Helvetica;fontSize=15;fontColor=default;labelBackgroundColor=default;" vertex="1" parent="1">
          <mxGeometry x="321" y="-570" width="100" height="20" as="geometry" />
        </mxCell>
        <mxCell id="xvu4oaWDeYxHGIkC_W2Z-33" value="LED_R_K" style="text;html=1;align=center;verticalAlign=middle;whiteSpace=wrap;rounded=0;fontFamily=Helvetica;fontSize=15;fontColor=default;labelBackgroundColor=default;" vertex="1" parent="1">
          <mxGeometry x="461" y="-570" width="100" height="20" as="geometry" />
        </mxCell>
        <mxCell id="xvu4oaWDeYxHGIkC_W2Z-34" value="TSAL_GLV_SigA" style="text;html=1;align=center;verticalAlign=middle;whiteSpace=wrap;rounded=0;fontFamily=Helvetica;fontSize=15;fontColor=default;labelBackgroundColor=default;" vertex="1" parent="1">
          <mxGeometry y="-90" width="120" height="20" as="geometry" />
        </mxCell>
        <mxCell id="xvu4oaWDeYxHGIkC_W2Z-35" value="TSAL_GLV_SigK" style="text;html=1;align=center;verticalAlign=middle;whiteSpace=wrap;rounded=0;fontFamily=Helvetica;fontSize=15;fontColor=default;labelBackgroundColor=default;" vertex="1" parent="1">
          <mxGeometry y="-50" width="120" height="20" as="geometry" />
        </mxCell>
        <mxCell id="xvu4oaWDeYxHGIkC_W2Z-36" value="TSAL_TS_SigA" style="text;html=1;align=center;verticalAlign=middle;whiteSpace=wrap;rounded=0;fontFamily=Helvetica;fontSize=15;fontColor=default;labelBackgroundColor=default;" vertex="1" parent="1">
          <mxGeometry y="-10" width="120" height="20" as="geometry" />
        </mxCell>
        <mxCell id="xvu4oaWDeYxHGIkC_W2Z-37" value="TSAL_TS_SigK" style="text;html=1;align=center;verticalAlign=middle;whiteSpace=wrap;rounded=0;fontFamily=Helvetica;fontSize=15;fontColor=default;labelBackgroundColor=default;" vertex="1" parent="1">
          <mxGeometry y="30" width="120" height="20" as="geometry" />
        </mxCell>
        <mxCell id="xvu4oaWDeYxHGIkC_W2Z-38" value="" style="rounded=0;whiteSpace=wrap;html=1;fillColor=none;" vertex="1" parent="1">
          <mxGeometry x="200" y="1160" width="240" height="280" as="geometry" />
        </mxCell>
        <mxCell id="xvu4oaWDeYxHGIkC_W2Z-39" value="Accel, Brake Pedal Unit" style="text;html=1;align=center;verticalAlign=middle;whiteSpace=wrap;rounded=0;fontFamily=Helvetica;fontSize=15;fontColor=default;labelBackgroundColor=default;" vertex="1" parent="1">
          <mxGeometry x="241" y="1140" width="160" height="20" as="geometry" />
        </mxCell>
        <mxCell id="xvu4oaWDeYxHGIkC_W2Z-41" value="" style="rounded=0;whiteSpace=wrap;html=1;fillColor=none;" vertex="1" parent="1">
          <mxGeometry x="720" y="720" width="240" height="400" as="geometry" />
        </mxCell>
        <mxCell id="xvu4oaWDeYxHGIkC_W2Z-42" value="Vehicle Control Unit" style="text;html=1;align=center;verticalAlign=middle;whiteSpace=wrap;rounded=0;fontFamily=Helvetica;fontSize=15;fontColor=default;labelBackgroundColor=default;" vertex="1" parent="1">
          <mxGeometry x="760" y="700" width="160" height="20" as="geometry" />
        </mxCell>
        <mxCell id="OuDAuJ1nNjg9tpZxDgn0-1" value="ISENSE_OUT" style="text;html=1;align=center;verticalAlign=middle;whiteSpace=wrap;rounded=0;fontFamily=Helvetica;fontSize=15;fontColor=default;labelBackgroundColor=default;" vertex="1" parent="1">
          <mxGeometry x="860" y="-50" width="100" height="20" as="geometry" />
        </mxCell>
        <mxCell id="xBY9d1haZ00UCmq45ePU-1" style="edgeStyle=orthogonalEdgeStyle;rounded=0;orthogonalLoop=1;jettySize=auto;html=1;exitX=0;exitY=0.5;exitDx=0;exitDy=0;align=center;verticalAlign=middle;fontFamily=Helvetica;fontSize=11;fontColor=default;labelBackgroundColor=default;startArrow=none;startFill=0;startSize=10;endArrow=none;endFill=0;endSize=10;" edge="1" parent="1" source="xBY9d1haZ00UCmq45ePU-2">
          <mxGeometry relative="1" as="geometry">
            <mxPoint x="1160.0000000000002" y="-519.9166666666665" as="targetPoint" />
          </mxGeometry>
        </mxCell>
        <mxCell id="xBY9d1haZ00UCmq45ePU-2" value="" style="ellipse;whiteSpace=wrap;html=1;aspect=fixed;fontFamily=Helvetica;fontSize=15;fontColor=default;labelBackgroundColor=default;fillColor=none;" vertex="1" parent="1">
          <mxGeometry x="1180" y="-540" width="40" height="40" as="geometry" />
        </mxCell>
        <mxCell id="xBY9d1haZ00UCmq45ePU-3" value="" style="ellipse;whiteSpace=wrap;html=1;aspect=fixed;fontFamily=Helvetica;fontSize=15;fontColor=default;labelBackgroundColor=default;fillColor=none;" vertex="1" parent="1">
          <mxGeometry x="1190" y="-530" width="20" height="20" as="geometry" />
        </mxCell>
        <mxCell id="xBY9d1haZ00UCmq45ePU-4" style="edgeStyle=orthogonalEdgeStyle;rounded=0;orthogonalLoop=1;jettySize=auto;html=1;exitX=0;exitY=0.5;exitDx=0;exitDy=0;align=center;verticalAlign=middle;fontFamily=Helvetica;fontSize=11;fontColor=default;labelBackgroundColor=default;startArrow=none;startFill=0;startSize=10;endArrow=none;endFill=0;endSize=10;" edge="1" parent="1" source="xBY9d1haZ00UCmq45ePU-5">
          <mxGeometry relative="1" as="geometry">
            <mxPoint x="1160.0000000000002" y="-399.9166666666665" as="targetPoint" />
          </mxGeometry>
        </mxCell>
        <mxCell id="xBY9d1haZ00UCmq45ePU-5" value="" style="ellipse;whiteSpace=wrap;html=1;aspect=fixed;fontFamily=Helvetica;fontSize=15;fontColor=default;labelBackgroundColor=default;fillColor=none;" vertex="1" parent="1">
          <mxGeometry x="1180" y="-420" width="40" height="40" as="geometry" />
        </mxCell>
        <mxCell id="xBY9d1haZ00UCmq45ePU-6" value="" style="ellipse;whiteSpace=wrap;html=1;aspect=fixed;fontFamily=Helvetica;fontSize=15;fontColor=default;labelBackgroundColor=default;fillColor=none;" vertex="1" parent="1">
          <mxGeometry x="1190" y="-410" width="20" height="20" as="geometry" />
        </mxCell>
        <mxCell id="UPJX_zz603NO6wVSezFe-1" value="TSMP+" style="text;html=1;align=center;verticalAlign=middle;whiteSpace=wrap;rounded=0;fontFamily=Helvetica;fontSize=15;fontColor=default;labelBackgroundColor=default;" vertex="1" parent="1">
          <mxGeometry x="1160" y="-560" width="80" height="20" as="geometry" />
        </mxCell>
        <mxCell id="UPJX_zz603NO6wVSezFe-2" value="TSMP-" style="text;html=1;align=center;verticalAlign=middle;whiteSpace=wrap;rounded=0;fontFamily=Helvetica;fontSize=15;fontColor=default;labelBackgroundColor=default;" vertex="1" parent="1">
          <mxGeometry x="1160" y="-440" width="80" height="20" as="geometry" />
        </mxCell>
        <mxCell id="UPJX_zz603NO6wVSezFe-3" style="edgeStyle=orthogonalEdgeStyle;rounded=0;orthogonalLoop=1;jettySize=auto;html=1;exitX=0;exitY=0.5;exitDx=0;exitDy=0;align=center;verticalAlign=middle;fontFamily=Helvetica;fontSize=11;fontColor=default;labelBackgroundColor=default;startArrow=none;startFill=0;startSize=10;endArrow=none;endFill=0;endSize=10;" edge="1" parent="1" source="UPJX_zz603NO6wVSezFe-4">
          <mxGeometry relative="1" as="geometry">
            <mxPoint x="1160.0000000000002" y="-639.9166666666665" as="targetPoint" />
          </mxGeometry>
        </mxCell>
        <mxCell id="UPJX_zz603NO6wVSezFe-4" value="" style="ellipse;whiteSpace=wrap;html=1;aspect=fixed;fontFamily=Helvetica;fontSize=15;fontColor=default;labelBackgroundColor=default;fillColor=none;" vertex="1" parent="1">
          <mxGeometry x="1180" y="-660" width="40" height="40" as="geometry" />
        </mxCell>
        <mxCell id="UPJX_zz603NO6wVSezFe-5" value="" style="ellipse;whiteSpace=wrap;html=1;aspect=fixed;fontFamily=Helvetica;fontSize=15;fontColor=default;labelBackgroundColor=default;fillColor=none;" vertex="1" parent="1">
          <mxGeometry x="1190" y="-650" width="20" height="20" as="geometry" />
        </mxCell>
        <mxCell id="UPJX_zz603NO6wVSezFe-6" value="GND" style="text;html=1;align=center;verticalAlign=middle;whiteSpace=wrap;rounded=0;fontFamily=Helvetica;fontSize=15;fontColor=default;labelBackgroundColor=default;" vertex="1" parent="1">
          <mxGeometry x="1160" y="-680" width="80" height="20" as="geometry" />
        </mxCell>
        <mxCell id="UPJX_zz603NO6wVSezFe-7" value="" style="rounded=0;whiteSpace=wrap;html=1;fillColor=none;" vertex="1" parent="1">
          <mxGeometry x="1160" y="720" width="240" height="240" as="geometry" />
        </mxCell>
        <mxCell id="UPJX_zz603NO6wVSezFe-8" value="" style="pointerEvents=1;verticalLabelPosition=bottom;shadow=0;dashed=0;align=center;html=1;verticalAlign=top;shape=mxgraph.electrical.electro-mechanical.make_contact;fontFamily=Helvetica;fontSize=11;fontColor=default;labelBackgroundColor=default;" vertex="1" parent="1">
          <mxGeometry x="1280" y="780" width="80" height="20" as="geometry" />
        </mxCell>
        <mxCell id="UPJX_zz603NO6wVSezFe-9" value="" style="verticalLabelPosition=bottom;shadow=0;dashed=0;align=center;html=1;verticalAlign=top;shape=mxgraph.electrical.opto_electronics.led_2;pointerEvents=1;fontFamily=Helvetica;fontSize=11;fontColor=default;labelBackgroundColor=default;" vertex="1" parent="1">
          <mxGeometry x="1280" y="860" width="80" height="40" as="geometry" />
        </mxCell>
        <mxCell id="UPJX_zz603NO6wVSezFe-10" value="RtD SW Unit" style="text;html=1;align=center;verticalAlign=middle;whiteSpace=wrap;rounded=0;fontFamily=Helvetica;fontSize=15;fontColor=default;labelBackgroundColor=default;" vertex="1" parent="1">
          <mxGeometry x="1160" y="700" width="240" height="20" as="geometry" />
        </mxCell>
        <mxCell id="UPJX_zz603NO6wVSezFe-11" value="SW_IN" style="text;html=1;align=center;verticalAlign=middle;whiteSpace=wrap;rounded=0;fontFamily=Helvetica;fontSize=15;fontColor=default;labelBackgroundColor=default;" vertex="1" parent="1">
          <mxGeometry x="1160" y="750" width="80" height="20" as="geometry" />
        </mxCell>
        <mxCell id="UPJX_zz603NO6wVSezFe-12" value="SW_OUT" style="text;html=1;align=center;verticalAlign=middle;whiteSpace=wrap;rounded=0;fontFamily=Helvetica;fontSize=15;fontColor=default;labelBackgroundColor=default;" vertex="1" parent="1">
          <mxGeometry x="1161" y="790" width="80" height="20" as="geometry" />
        </mxCell>
        <mxCell id="UPJX_zz603NO6wVSezFe-13" value="LED_A" style="text;html=1;align=center;verticalAlign=middle;whiteSpace=wrap;rounded=0;fontFamily=Helvetica;fontSize=15;fontColor=default;labelBackgroundColor=default;" vertex="1" parent="1">
          <mxGeometry x="1161" y="870" width="80" height="20" as="geometry" />
        </mxCell>
        <mxCell id="UPJX_zz603NO6wVSezFe-14" value="LED_K" style="text;html=1;align=center;verticalAlign=middle;whiteSpace=wrap;rounded=0;fontFamily=Helvetica;fontSize=15;fontColor=default;labelBackgroundColor=default;" vertex="1" parent="1">
          <mxGeometry x="1161" y="910" width="80" height="20" as="geometry" />
        </mxCell>
        <mxCell id="UPJX_zz603NO6wVSezFe-15" value="+12V_IN" style="text;html=1;align=center;verticalAlign=middle;whiteSpace=wrap;rounded=0;fontFamily=Helvetica;fontSize=15;fontColor=default;labelBackgroundColor=default;" vertex="1" parent="1">
          <mxGeometry x="720" y="750" width="80" height="20" as="geometry" />
        </mxCell>
        <mxCell id="UPJX_zz603NO6wVSezFe-16" value="GND" style="text;html=1;align=center;verticalAlign=middle;whiteSpace=wrap;rounded=0;fontFamily=Helvetica;fontSize=15;fontColor=default;labelBackgroundColor=default;" vertex="1" parent="1">
          <mxGeometry x="720" y="790" width="60" height="20" as="geometry" />
        </mxCell>
        <mxCell id="UPJX_zz603NO6wVSezFe-17" value="CANH" style="text;html=1;align=center;verticalAlign=middle;whiteSpace=wrap;rounded=0;fontFamily=Helvetica;fontSize=15;fontColor=default;labelBackgroundColor=default;" vertex="1" parent="1">
          <mxGeometry x="900" y="870" width="60" height="20" as="geometry" />
        </mxCell>
        <mxCell id="UPJX_zz603NO6wVSezFe-18" value="CANL" style="text;html=1;align=center;verticalAlign=middle;whiteSpace=wrap;rounded=0;fontFamily=Helvetica;fontSize=15;fontColor=default;labelBackgroundColor=default;" vertex="1" parent="1">
          <mxGeometry x="900" y="910" width="60" height="20" as="geometry" />
        </mxCell>
        <mxCell id="UPJX_zz603NO6wVSezFe-21" value="toRtD_SW" style="text;html=1;align=center;verticalAlign=middle;whiteSpace=wrap;rounded=0;fontFamily=Helvetica;fontSize=15;fontColor=default;labelBackgroundColor=default;" vertex="1" parent="1">
          <mxGeometry x="860" y="950" width="100" height="20" as="geometry" />
        </mxCell>
        <mxCell id="UPJX_zz603NO6wVSezFe-22" value="fromRtD_SW" style="text;html=1;align=center;verticalAlign=middle;whiteSpace=wrap;rounded=0;fontFamily=Helvetica;fontSize=15;fontColor=default;labelBackgroundColor=default;" vertex="1" parent="1">
          <mxGeometry x="860" y="990" width="99" height="20" as="geometry" />
        </mxCell>
        <mxCell id="UPJX_zz603NO6wVSezFe-23" value="toRtD_LED" style="text;html=1;align=center;verticalAlign=middle;whiteSpace=wrap;rounded=0;fontFamily=Helvetica;fontSize=15;fontColor=default;labelBackgroundColor=default;" vertex="1" parent="1">
          <mxGeometry x="860" y="1030" width="99" height="20" as="geometry" />
        </mxCell>
        <mxCell id="UPJX_zz603NO6wVSezFe-24" value="fromRtD_LED" style="text;html=1;align=center;verticalAlign=middle;whiteSpace=wrap;rounded=0;fontFamily=Helvetica;fontSize=15;fontColor=default;labelBackgroundColor=default;" vertex="1" parent="1">
          <mxGeometry x="860" y="1070" width="99" height="20" as="geometry" />
        </mxCell>
        <mxCell id="UPJX_zz603NO6wVSezFe-25" value="SDN_IN" style="text;html=1;align=center;verticalAlign=middle;whiteSpace=wrap;rounded=0;fontFamily=Helvetica;fontSize=15;fontColor=default;labelBackgroundColor=default;" vertex="1" parent="1">
          <mxGeometry x="720" y="830" width="80" height="20" as="geometry" />
        </mxCell>
        <mxCell id="UPJX_zz603NO6wVSezFe-26" value="AIR+_EN" style="text;html=1;align=center;verticalAlign=middle;whiteSpace=wrap;rounded=0;fontFamily=Helvetica;fontSize=15;fontColor=default;labelBackgroundColor=default;" vertex="1" parent="1">
          <mxGeometry x="880" y="750" width="80" height="20" as="geometry" />
        </mxCell>
        <mxCell id="UPJX_zz603NO6wVSezFe-27" value="PCHG_EN" style="text;html=1;align=center;verticalAlign=middle;whiteSpace=wrap;rounded=0;fontFamily=Helvetica;fontSize=15;fontColor=default;labelBackgroundColor=default;" vertex="1" parent="1">
          <mxGeometry x="880" y="790" width="80" height="20" as="geometry" />
        </mxCell>
        <mxCell id="UPJX_zz603NO6wVSezFe-28" value="AIR-_EN" style="text;html=1;align=center;verticalAlign=middle;whiteSpace=wrap;rounded=0;fontFamily=Helvetica;fontSize=15;fontColor=default;labelBackgroundColor=default;" vertex="1" parent="1">
          <mxGeometry x="880" y="830" width="80" height="20" as="geometry" />
        </mxCell>
        <mxCell id="UPJX_zz603NO6wVSezFe-29" value="Accel1_IN" style="text;html=1;align=center;verticalAlign=middle;whiteSpace=wrap;rounded=0;fontFamily=Helvetica;fontSize=15;fontColor=default;labelBackgroundColor=default;" vertex="1" parent="1">
          <mxGeometry x="720" y="870" width="80" height="20" as="geometry" />
        </mxCell>
        <mxCell id="UPJX_zz603NO6wVSezFe-30" value="Accel2_IN" style="text;html=1;align=center;verticalAlign=middle;whiteSpace=wrap;rounded=0;fontFamily=Helvetica;fontSize=15;fontColor=default;labelBackgroundColor=default;" vertex="1" parent="1">
          <mxGeometry x="720" y="910" width="80" height="20" as="geometry" />
        </mxCell>
        <mxCell id="UPJX_zz603NO6wVSezFe-31" value="Brake_IN" style="text;html=1;align=center;verticalAlign=middle;whiteSpace=wrap;rounded=0;fontFamily=Helvetica;fontSize=15;fontColor=default;labelBackgroundColor=default;" vertex="1" parent="1">
          <mxGeometry x="720" y="950" width="80" height="20" as="geometry" />
        </mxCell>
        <mxCell id="UPJX_zz603NO6wVSezFe-32" value="" style="rounded=0;whiteSpace=wrap;html=1;fillColor=none;" vertex="1" parent="1">
          <mxGeometry x="1960" y="80" width="240" height="280" as="geometry" />
        </mxCell>
        <mxCell id="UPJX_zz603NO6wVSezFe-33" value="" style="verticalLabelPosition=bottom;shadow=0;dashed=0;align=center;html=1;verticalAlign=top;shape=mxgraph.electrical.opto_electronics.led_2;pointerEvents=1;fontFamily=Helvetica;fontSize=11;fontColor=default;labelBackgroundColor=default;" vertex="1" parent="1">
          <mxGeometry x="2080" y="200" width="80" height="40" as="geometry" />
        </mxCell>
        <mxCell id="UPJX_zz603NO6wVSezFe-34" value="AMS, BSPD, IMD Status LED Unit" style="text;html=1;align=center;verticalAlign=middle;whiteSpace=wrap;rounded=0;fontFamily=Helvetica;fontSize=15;fontColor=default;labelBackgroundColor=default;" vertex="1" parent="1">
          <mxGeometry x="1960" y="60" width="240" height="20" as="geometry" />
        </mxCell>
        <mxCell id="UPJX_zz603NO6wVSezFe-35" value="" style="verticalLabelPosition=bottom;shadow=0;dashed=0;align=center;html=1;verticalAlign=top;shape=mxgraph.electrical.opto_electronics.led_2;pointerEvents=1;fontFamily=Helvetica;fontSize=11;fontColor=default;labelBackgroundColor=default;" vertex="1" parent="1">
          <mxGeometry x="2080" y="120" width="80" height="40" as="geometry" />
        </mxCell>
        <mxCell id="UPJX_zz603NO6wVSezFe-36" value="" style="verticalLabelPosition=bottom;shadow=0;dashed=0;align=center;html=1;verticalAlign=top;shape=mxgraph.electrical.opto_electronics.led_2;pointerEvents=1;fontFamily=Helvetica;fontSize=11;fontColor=default;labelBackgroundColor=default;" vertex="1" parent="1">
          <mxGeometry x="2080" y="280" width="80" height="40" as="geometry" />
        </mxCell>
        <mxCell id="UPJX_zz603NO6wVSezFe-37" value="AMS_LED_A" style="text;html=1;align=center;verticalAlign=middle;whiteSpace=wrap;rounded=0;fontFamily=Helvetica;fontSize=15;fontColor=default;labelBackgroundColor=default;" vertex="1" parent="1">
          <mxGeometry x="1620" y="110" width="100" height="20" as="geometry" />
        </mxCell>
        <mxCell id="UPJX_zz603NO6wVSezFe-38" value="AMS_LED_K" style="text;html=1;align=center;verticalAlign=middle;whiteSpace=wrap;rounded=0;fontFamily=Helvetica;fontSize=15;fontColor=default;labelBackgroundColor=default;" vertex="1" parent="1">
          <mxGeometry x="1620" y="150" width="100" height="20" as="geometry" />
        </mxCell>
        <mxCell id="UPJX_zz603NO6wVSezFe-39" value="BSPD_LED_K" style="text;html=1;align=center;verticalAlign=middle;whiteSpace=wrap;rounded=0;fontFamily=Helvetica;fontSize=15;fontColor=default;labelBackgroundColor=default;" vertex="1" parent="1">
          <mxGeometry x="1620" y="230" width="100" height="20" as="geometry" />
        </mxCell>
        <mxCell id="UPJX_zz603NO6wVSezFe-40" value="BSPD_LED_A" style="text;html=1;align=center;verticalAlign=middle;whiteSpace=wrap;rounded=0;fontFamily=Helvetica;fontSize=15;fontColor=default;labelBackgroundColor=default;" vertex="1" parent="1">
          <mxGeometry x="1620" y="190" width="100" height="20" as="geometry" />
        </mxCell>
        <mxCell id="UPJX_zz603NO6wVSezFe-41" value="IMD_LED_A" style="text;html=1;align=center;verticalAlign=middle;whiteSpace=wrap;rounded=0;fontFamily=Helvetica;fontSize=15;fontColor=default;labelBackgroundColor=default;" vertex="1" parent="1">
          <mxGeometry x="1620" y="270" width="100" height="20" as="geometry" />
        </mxCell>
        <mxCell id="UPJX_zz603NO6wVSezFe-43" value="IMD_LED_K" style="text;html=1;align=center;verticalAlign=middle;whiteSpace=wrap;rounded=0;fontFamily=Helvetica;fontSize=15;fontColor=default;labelBackgroundColor=default;" vertex="1" parent="1">
          <mxGeometry x="1620" y="310" width="100" height="20" as="geometry" />
        </mxCell>
        <mxCell id="UPJX_zz603NO6wVSezFe-44" value="AMS" style="text;html=1;align=center;verticalAlign=middle;whiteSpace=wrap;rounded=0;fontFamily=Helvetica;fontSize=15;fontColor=default;labelBackgroundColor=default;" vertex="1" parent="1">
          <mxGeometry x="2090" y="100" width="60" height="20" as="geometry" />
        </mxCell>
        <mxCell id="UPJX_zz603NO6wVSezFe-46" value="BSPD" style="text;html=1;align=center;verticalAlign=middle;whiteSpace=wrap;rounded=0;fontFamily=Helvetica;fontSize=15;fontColor=default;labelBackgroundColor=default;" vertex="1" parent="1">
          <mxGeometry x="2090" y="180" width="60" height="20" as="geometry" />
        </mxCell>
        <mxCell id="UPJX_zz603NO6wVSezFe-47" value="IMD" style="text;html=1;align=center;verticalAlign=middle;whiteSpace=wrap;rounded=0;fontFamily=Helvetica;fontSize=15;fontColor=default;labelBackgroundColor=default;" vertex="1" parent="1">
          <mxGeometry x="2090" y="260" width="60" height="20" as="geometry" />
        </mxCell>
        <mxCell id="UPJX_zz603NO6wVSezFe-48" value="AMS_LED_A" style="text;html=1;align=center;verticalAlign=middle;whiteSpace=wrap;rounded=0;fontFamily=Helvetica;fontSize=15;fontColor=default;labelBackgroundColor=default;" vertex="1" parent="1">
          <mxGeometry x="1960" y="110" width="100" height="20" as="geometry" />
        </mxCell>
        <mxCell id="UPJX_zz603NO6wVSezFe-49" value="AMS_LED_K" style="text;html=1;align=center;verticalAlign=middle;whiteSpace=wrap;rounded=0;fontFamily=Helvetica;fontSize=15;fontColor=default;labelBackgroundColor=default;" vertex="1" parent="1">
          <mxGeometry x="1960" y="150" width="100" height="20" as="geometry" />
        </mxCell>
        <mxCell id="UPJX_zz603NO6wVSezFe-50" value="BSPD_LED_K" style="text;html=1;align=center;verticalAlign=middle;whiteSpace=wrap;rounded=0;fontFamily=Helvetica;fontSize=15;fontColor=default;labelBackgroundColor=default;" vertex="1" parent="1">
          <mxGeometry x="1960" y="230" width="100" height="20" as="geometry" />
        </mxCell>
        <mxCell id="UPJX_zz603NO6wVSezFe-51" value="BSPD_LED_A" style="text;html=1;align=center;verticalAlign=middle;whiteSpace=wrap;rounded=0;fontFamily=Helvetica;fontSize=15;fontColor=default;labelBackgroundColor=default;" vertex="1" parent="1">
          <mxGeometry x="1960" y="190" width="100" height="20" as="geometry" />
        </mxCell>
        <mxCell id="UPJX_zz603NO6wVSezFe-52" value="IMD_LED_A" style="text;html=1;align=center;verticalAlign=middle;whiteSpace=wrap;rounded=0;fontFamily=Helvetica;fontSize=15;fontColor=default;labelBackgroundColor=default;" vertex="1" parent="1">
          <mxGeometry x="1960" y="270" width="100" height="20" as="geometry" />
        </mxCell>
        <mxCell id="UPJX_zz603NO6wVSezFe-53" value="IMD_LED_K" style="text;html=1;align=center;verticalAlign=middle;whiteSpace=wrap;rounded=0;fontFamily=Helvetica;fontSize=15;fontColor=default;labelBackgroundColor=default;" vertex="1" parent="1">
          <mxGeometry x="1960" y="310" width="100" height="20" as="geometry" />
        </mxCell>
        <mxCell id="UPJX_zz603NO6wVSezFe-54" value="toRSTSW_AMS" style="text;html=1;align=center;verticalAlign=middle;whiteSpace=wrap;rounded=0;fontFamily=Helvetica;fontSize=15;fontColor=default;labelBackgroundColor=default;" vertex="1" parent="1">
          <mxGeometry x="1580" y="350" width="140" height="20" as="geometry" />
        </mxCell>
        <mxCell id="UPJX_zz603NO6wVSezFe-55" value="fromRSTSW_AMS" style="text;html=1;align=center;verticalAlign=middle;whiteSpace=wrap;rounded=0;fontFamily=Helvetica;fontSize=15;fontColor=default;labelBackgroundColor=default;" vertex="1" parent="1">
          <mxGeometry x="1580" y="390" width="140" height="20" as="geometry" />
        </mxCell>
        <mxCell id="UPJX_zz603NO6wVSezFe-56" value="fromRSTSW_BSPD" style="text;html=1;align=center;verticalAlign=middle;whiteSpace=wrap;rounded=0;fontFamily=Helvetica;fontSize=15;fontColor=default;labelBackgroundColor=default;" vertex="1" parent="1">
          <mxGeometry x="1580" y="470" width="140" height="20" as="geometry" />
        </mxCell>
        <mxCell id="UPJX_zz603NO6wVSezFe-57" value="toRSTSW_BSPD" style="text;html=1;align=center;verticalAlign=middle;whiteSpace=wrap;rounded=0;fontFamily=Helvetica;fontSize=15;fontColor=default;labelBackgroundColor=default;" vertex="1" parent="1">
          <mxGeometry x="1580" y="430" width="140" height="20" as="geometry" />
        </mxCell>
        <mxCell id="UPJX_zz603NO6wVSezFe-58" value="toRSTSW_IMD" style="text;html=1;align=center;verticalAlign=middle;whiteSpace=wrap;rounded=0;fontFamily=Helvetica;fontSize=15;fontColor=default;labelBackgroundColor=default;" vertex="1" parent="1">
          <mxGeometry x="1580" y="510" width="140" height="20" as="geometry" />
        </mxCell>
        <mxCell id="UPJX_zz603NO6wVSezFe-59" value="fromRSTSW_IMD" style="text;html=1;align=center;verticalAlign=middle;whiteSpace=wrap;rounded=0;fontFamily=Helvetica;fontSize=15;fontColor=default;labelBackgroundColor=default;" vertex="1" parent="1">
          <mxGeometry x="1580" y="550" width="140" height="20" as="geometry" />
        </mxCell>
        <mxCell id="UPJX_zz603NO6wVSezFe-60" value="" style="pointerEvents=1;verticalLabelPosition=bottom;shadow=0;dashed=0;align=center;html=1;verticalAlign=top;shape=mxgraph.electrical.electro-mechanical.make_contact;fontFamily=Helvetica;fontSize=11;fontColor=default;labelBackgroundColor=default;" vertex="1" parent="1">
          <mxGeometry x="1960" y="500" width="80" height="20" as="geometry" />
        </mxCell>
        <mxCell id="UPJX_zz603NO6wVSezFe-61" value="" style="pointerEvents=1;verticalLabelPosition=bottom;shadow=0;dashed=0;align=center;html=1;verticalAlign=top;shape=mxgraph.electrical.electro-mechanical.make_contact;fontFamily=Helvetica;fontSize=11;fontColor=default;labelBackgroundColor=default;" vertex="1" parent="1">
          <mxGeometry x="2200" y="500" width="80" height="20" as="geometry" />
        </mxCell>
        <mxCell id="UPJX_zz603NO6wVSezFe-62" value="" style="pointerEvents=1;verticalLabelPosition=bottom;shadow=0;dashed=0;align=center;html=1;verticalAlign=top;shape=mxgraph.electrical.electro-mechanical.make_contact;fontFamily=Helvetica;fontSize=11;fontColor=default;labelBackgroundColor=default;" vertex="1" parent="1">
          <mxGeometry x="2440" y="500" width="80" height="20" as="geometry" />
        </mxCell>
        <mxCell id="UPJX_zz603NO6wVSezFe-63" value="AMS Relay RST" style="text;html=1;align=center;verticalAlign=middle;whiteSpace=wrap;rounded=0;fontFamily=Helvetica;fontSize=15;fontColor=default;labelBackgroundColor=default;" vertex="1" parent="1">
          <mxGeometry x="1940" y="480" width="120" height="20" as="geometry" />
        </mxCell>
        <mxCell id="UPJX_zz603NO6wVSezFe-66" value="BSPD Relay RST" style="text;html=1;align=center;verticalAlign=middle;whiteSpace=wrap;rounded=0;fontFamily=Helvetica;fontSize=15;fontColor=default;labelBackgroundColor=default;" vertex="1" parent="1">
          <mxGeometry x="2180" y="480" width="120" height="20" as="geometry" />
        </mxCell>
        <mxCell id="UPJX_zz603NO6wVSezFe-67" value="IMD Relay RST" style="text;html=1;align=center;verticalAlign=middle;whiteSpace=wrap;rounded=0;fontFamily=Helvetica;fontSize=15;fontColor=default;labelBackgroundColor=default;" vertex="1" parent="1">
          <mxGeometry x="2420" y="480" width="120" height="20" as="geometry" />
        </mxCell>
        <mxCell id="UPJX_zz603NO6wVSezFe-68" value="+12V_IN" style="text;html=1;align=center;verticalAlign=middle;whiteSpace=wrap;rounded=0;fontFamily=Helvetica;fontSize=15;fontColor=default;labelBackgroundColor=default;" vertex="1" parent="1">
          <mxGeometry x="720" y="-10" width="80" height="20" as="geometry" />
        </mxCell>
      </root>
    </mxGraphModel>
  </diagram>
  <diagram id="qN-FHnvS9_n-GXXGh8pC" name="ShutdownCircuit">
    <mxGraphModel dx="863" dy="1674" grid="1" gridSize="10" guides="1" tooltips="1" connect="1" arrows="1" fold="1" page="1" pageScale="1" pageWidth="827" pageHeight="1169" math="0" shadow="0">
      <root>
        <mxCell id="0" />
        <mxCell id="1" parent="0" />
        <mxCell id="B4QqCGR3x0TmPXGoTLsY-6" style="edgeStyle=orthogonalEdgeStyle;rounded=0;orthogonalLoop=1;jettySize=auto;html=1;exitX=1;exitY=0.5;exitDx=0;exitDy=0;exitPerimeter=0;strokeColor=default;align=center;verticalAlign=middle;fontFamily=Helvetica;fontSize=11;fontColor=default;labelBackgroundColor=default;startArrow=none;startFill=0;startSize=10;endArrow=none;endFill=0;endSize=10;" parent="1" source="B4QqCGR3x0TmPXGoTLsY-3" edge="1">
          <mxGeometry relative="1" as="geometry">
            <mxPoint x="1420.0384615384614" y="490" as="targetPoint" />
          </mxGeometry>
        </mxCell>
        <mxCell id="o1AQ_nGmEiAf3eSwraz6-41" value="" style="rounded=0;whiteSpace=wrap;html=1;fontFamily=Helvetica;fontSize=11;fontColor=default;labelBackgroundColor=default;fillColor=none;dashed=1;" parent="1" vertex="1">
          <mxGeometry x="1280" y="860" width="440" height="260" as="geometry" />
        </mxCell>
        <mxCell id="o1AQ_nGmEiAf3eSwraz6-116" value="" style="rounded=0;whiteSpace=wrap;html=1;fontFamily=Helvetica;fontSize=15;fontColor=default;labelBackgroundColor=default;fillColor=none;points=[[0,0,0,0,0],[0,0.25,0,0,0],[0,0.5,0,0,0],[0,0.75,0,0,0],[0,1,0,0,0],[0.25,0,0,0,0],[0.25,1,0,0,0],[0.5,0,0,0,0],[0.5,1,0,0,0],[0.75,0,0,0,0],[0.75,1,0,0,0],[1,0,0,0,0],[1,0.17,0,0,0],[1,0.33,0,0,0],[1,0.5,0,0,0],[1,0.67,0,0,0],[1,0.83,0,0,0],[1,1,0,0,0]];dashed=1;" parent="1" vertex="1">
          <mxGeometry x="1340" y="160" width="200" height="240" as="geometry" />
        </mxCell>
        <mxCell id="P4XDhaOBuuw1px-TDpi_-41" value="" style="rounded=0;whiteSpace=wrap;html=1;fontFamily=Helvetica;fontSize=11;fontColor=default;labelBackgroundColor=default;fillColor=none;rotation=-90;" parent="1" vertex="1">
          <mxGeometry x="1490" y="310" width="80" height="60" as="geometry" />
        </mxCell>
        <mxCell id="P4XDhaOBuuw1px-TDpi_-40" value="" style="rounded=0;whiteSpace=wrap;html=1;fontFamily=Helvetica;fontSize=11;fontColor=default;labelBackgroundColor=default;fillColor=none;rotation=-90;" parent="1" vertex="1">
          <mxGeometry x="1490" y="190" width="80" height="60" as="geometry" />
        </mxCell>
        <mxCell id="P4XDhaOBuuw1px-TDpi_-24" value="" style="rounded=0;whiteSpace=wrap;html=1;fontFamily=Helvetica;fontSize=11;fontColor=default;labelBackgroundColor=default;fillColor=none;dashed=1;" parent="1" vertex="1">
          <mxGeometry x="1720" y="-200" width="400" height="600" as="geometry" />
        </mxCell>
        <mxCell id="P4XDhaOBuuw1px-TDpi_-34" style="edgeStyle=orthogonalEdgeStyle;rounded=0;orthogonalLoop=1;jettySize=auto;html=1;exitX=1;exitY=0.25;exitDx=0;exitDy=0;strokeColor=default;align=center;verticalAlign=middle;fontFamily=Helvetica;fontSize=11;fontColor=default;labelBackgroundColor=default;startArrow=none;startFill=0;startSize=10;endArrow=none;endFill=0;endSize=10;" parent="1" source="o1AQ_nGmEiAf3eSwraz6-25" edge="1">
          <mxGeometry relative="1" as="geometry">
            <mxPoint x="640" y="360.0459770114944" as="targetPoint" />
          </mxGeometry>
        </mxCell>
        <mxCell id="P4XDhaOBuuw1px-TDpi_-29" style="edgeStyle=orthogonalEdgeStyle;rounded=0;orthogonalLoop=1;jettySize=auto;html=1;exitX=1;exitY=0.5;exitDx=0;exitDy=0;strokeColor=default;align=center;verticalAlign=middle;fontFamily=Helvetica;fontSize=11;fontColor=default;labelBackgroundColor=default;startArrow=none;startFill=0;startSize=10;endArrow=none;endFill=0;endSize=10;" parent="1" source="o1AQ_nGmEiAf3eSwraz6-22" edge="1">
          <mxGeometry relative="1" as="geometry">
            <mxPoint x="1160" y="400.0588235294117" as="targetPoint" />
          </mxGeometry>
        </mxCell>
        <mxCell id="P4XDhaOBuuw1px-TDpi_-21" style="edgeStyle=orthogonalEdgeStyle;rounded=0;orthogonalLoop=1;jettySize=auto;html=1;exitX=0.5;exitY=0;exitDx=0;exitDy=0;exitPerimeter=0;align=center;verticalAlign=middle;fontFamily=Helvetica;fontSize=11;fontColor=default;labelBackgroundColor=default;startArrow=none;startFill=0;startSize=10;endArrow=none;endFill=0;endSize=10;" parent="1" source="P4XDhaOBuuw1px-TDpi_-20" edge="1">
          <mxGeometry relative="1" as="geometry">
            <mxPoint x="1560" y="360" as="targetPoint" />
          </mxGeometry>
        </mxCell>
        <mxCell id="P4XDhaOBuuw1px-TDpi_-19" style="edgeStyle=orthogonalEdgeStyle;rounded=0;orthogonalLoop=1;jettySize=auto;html=1;align=center;verticalAlign=middle;fontFamily=Helvetica;fontSize=11;fontColor=default;labelBackgroundColor=default;startArrow=none;startFill=0;startSize=10;endArrow=none;endFill=0;endSize=10;exitX=0.5;exitY=0;exitDx=0;exitDy=0;exitPerimeter=0;" parent="1" source="P4XDhaOBuuw1px-TDpi_-14" edge="1">
          <mxGeometry relative="1" as="geometry">
            <mxPoint x="1520" y="240" as="sourcePoint" />
            <mxPoint x="1560" y="240" as="targetPoint" />
            <Array as="points" />
          </mxGeometry>
        </mxCell>
        <mxCell id="o1AQ_nGmEiAf3eSwraz6-29" value="" style="pointerEvents=1;verticalLabelPosition=bottom;shadow=0;dashed=0;align=center;html=1;verticalAlign=top;shape=mxgraph.electrical.electro-mechanical.make_contact;fontFamily=Helvetica;fontSize=11;fontColor=default;labelBackgroundColor=default;" parent="1" vertex="1">
          <mxGeometry x="1240" y="620" width="80" height="20" as="geometry" />
        </mxCell>
        <mxCell id="o1AQ_nGmEiAf3eSwraz6-27" value="" style="pointerEvents=1;verticalLabelPosition=bottom;shadow=0;dashed=0;align=center;html=1;verticalAlign=top;shape=mxgraph.electrical.electro-mechanical.make_contact;fontFamily=Helvetica;fontSize=11;fontColor=default;labelBackgroundColor=default;" parent="1" vertex="1">
          <mxGeometry x="1000" y="620" width="80" height="20" as="geometry" />
        </mxCell>
        <mxCell id="o1AQ_nGmEiAf3eSwraz6-1" value="" style="verticalLabelPosition=bottom;shadow=0;dashed=0;align=center;fillColor=strokeColor;html=1;verticalAlign=top;strokeWidth=1;shape=mxgraph.electrical.miscellaneous.monocell_battery;rotation=-90;" parent="1" vertex="1">
          <mxGeometry x="70" y="450" width="100" height="60" as="geometry" />
        </mxCell>
        <mxCell id="o1AQ_nGmEiAf3eSwraz6-4" value="" style="pointerEvents=1;verticalLabelPosition=bottom;shadow=0;dashed=0;align=center;html=1;verticalAlign=top;shape=mxgraph.electrical.miscellaneous.fuse_4;" parent="1" vertex="1">
          <mxGeometry x="200" y="340" width="120" height="40" as="geometry" />
        </mxCell>
        <mxCell id="P4XDhaOBuuw1px-TDpi_-32" style="edgeStyle=orthogonalEdgeStyle;rounded=0;orthogonalLoop=1;jettySize=auto;html=1;exitX=0;exitY=0.75;exitDx=0;exitDy=0;strokeColor=default;align=center;verticalAlign=middle;fontFamily=Helvetica;fontSize=11;fontColor=default;labelBackgroundColor=default;startArrow=none;startFill=0;startSize=10;endArrow=none;endFill=0;endSize=10;" parent="1" source="o1AQ_nGmEiAf3eSwraz6-25" edge="1">
          <mxGeometry relative="1" as="geometry">
            <mxPoint x="480" y="400.0459770114944" as="targetPoint" />
          </mxGeometry>
        </mxCell>
        <mxCell id="P4XDhaOBuuw1px-TDpi_-33" style="edgeStyle=orthogonalEdgeStyle;rounded=0;orthogonalLoop=1;jettySize=auto;html=1;exitX=0;exitY=0.25;exitDx=0;exitDy=0;strokeColor=default;align=center;verticalAlign=middle;fontFamily=Helvetica;fontSize=11;fontColor=default;labelBackgroundColor=default;startArrow=none;startFill=0;startSize=10;endArrow=none;endFill=0;endSize=10;" parent="1" source="o1AQ_nGmEiAf3eSwraz6-25" edge="1">
          <mxGeometry relative="1" as="geometry">
            <mxPoint x="480" y="360.0459770114944" as="targetPoint" />
          </mxGeometry>
        </mxCell>
        <mxCell id="P4XDhaOBuuw1px-TDpi_-35" style="edgeStyle=orthogonalEdgeStyle;rounded=0;orthogonalLoop=1;jettySize=auto;html=1;exitX=1;exitY=0.75;exitDx=0;exitDy=0;strokeColor=default;align=center;verticalAlign=middle;fontFamily=Helvetica;fontSize=11;fontColor=default;labelBackgroundColor=default;startArrow=none;startFill=0;startSize=10;endArrow=none;endFill=0;endSize=10;" parent="1" source="o1AQ_nGmEiAf3eSwraz6-25" edge="1">
          <mxGeometry relative="1" as="geometry">
            <mxPoint x="640" y="400.0459770114944" as="targetPoint" />
          </mxGeometry>
        </mxCell>
        <mxCell id="o1AQ_nGmEiAf3eSwraz6-25" value="" style="rounded=0;whiteSpace=wrap;html=1;fontFamily=Helvetica;fontSize=11;fontColor=default;labelBackgroundColor=default;fillColor=none;" parent="1" vertex="1">
          <mxGeometry x="500" y="340" width="120" height="80" as="geometry" />
        </mxCell>
        <mxCell id="o1AQ_nGmEiAf3eSwraz6-17" value="" style="pointerEvents=1;verticalLabelPosition=bottom;shadow=0;dashed=0;align=center;html=1;verticalAlign=top;shape=mxgraph.electrical.electro-mechanical.make_contact;fontFamily=Helvetica;fontSize=11;fontColor=default;labelBackgroundColor=default;" parent="1" vertex="1">
          <mxGeometry x="840" y="340" width="80" height="20" as="geometry" />
        </mxCell>
        <mxCell id="P4XDhaOBuuw1px-TDpi_-26" style="edgeStyle=orthogonalEdgeStyle;rounded=0;orthogonalLoop=1;jettySize=auto;html=1;exitX=0;exitY=0.25;exitDx=0;exitDy=0;align=center;verticalAlign=middle;fontFamily=Helvetica;fontSize=11;fontColor=default;labelBackgroundColor=default;startArrow=none;startFill=0;startSize=10;endArrow=none;endFill=0;endSize=10;" parent="1" source="o1AQ_nGmEiAf3eSwraz6-22" edge="1">
          <mxGeometry relative="1" as="geometry">
            <mxPoint x="1000" y="360.0588235294117" as="targetPoint" />
          </mxGeometry>
        </mxCell>
        <mxCell id="P4XDhaOBuuw1px-TDpi_-27" style="edgeStyle=orthogonalEdgeStyle;rounded=0;orthogonalLoop=1;jettySize=auto;html=1;exitX=0;exitY=0.5;exitDx=0;exitDy=0;strokeColor=default;align=center;verticalAlign=middle;fontFamily=Helvetica;fontSize=11;fontColor=default;labelBackgroundColor=default;startArrow=none;startFill=0;startSize=10;endArrow=none;endFill=0;endSize=10;" parent="1" source="o1AQ_nGmEiAf3eSwraz6-22" edge="1">
          <mxGeometry relative="1" as="geometry">
            <mxPoint x="1000" y="400.0588235294117" as="targetPoint" />
          </mxGeometry>
        </mxCell>
        <mxCell id="P4XDhaOBuuw1px-TDpi_-28" style="edgeStyle=orthogonalEdgeStyle;rounded=0;orthogonalLoop=1;jettySize=auto;html=1;exitX=0;exitY=0.75;exitDx=0;exitDy=0;strokeColor=default;align=center;verticalAlign=middle;fontFamily=Helvetica;fontSize=11;fontColor=default;labelBackgroundColor=default;startArrow=none;startFill=0;startSize=10;endArrow=none;endFill=0;endSize=10;" parent="1" source="o1AQ_nGmEiAf3eSwraz6-22" edge="1">
          <mxGeometry relative="1" as="geometry">
            <mxPoint x="1000" y="440.0588235294117" as="targetPoint" />
          </mxGeometry>
        </mxCell>
        <mxCell id="P4XDhaOBuuw1px-TDpi_-30" style="edgeStyle=orthogonalEdgeStyle;rounded=0;orthogonalLoop=1;jettySize=auto;html=1;exitX=1;exitY=0.75;exitDx=0;exitDy=0;strokeColor=default;align=center;verticalAlign=middle;fontFamily=Helvetica;fontSize=11;fontColor=default;labelBackgroundColor=default;startArrow=none;startFill=0;startSize=10;endArrow=none;endFill=0;endSize=10;" parent="1" source="o1AQ_nGmEiAf3eSwraz6-22" edge="1">
          <mxGeometry relative="1" as="geometry">
            <mxPoint x="1160" y="439.92473118279554" as="targetPoint" />
          </mxGeometry>
        </mxCell>
        <mxCell id="P4XDhaOBuuw1px-TDpi_-31" style="edgeStyle=orthogonalEdgeStyle;rounded=0;orthogonalLoop=1;jettySize=auto;html=1;exitX=1;exitY=0.25;exitDx=0;exitDy=0;strokeColor=default;align=center;verticalAlign=middle;fontFamily=Helvetica;fontSize=11;fontColor=default;labelBackgroundColor=default;startArrow=none;startFill=0;startSize=10;endArrow=none;endFill=0;endSize=10;" parent="1" source="o1AQ_nGmEiAf3eSwraz6-22" edge="1">
          <mxGeometry relative="1" as="geometry">
            <mxPoint x="1160" y="359.92473118279554" as="targetPoint" />
          </mxGeometry>
        </mxCell>
        <mxCell id="o1AQ_nGmEiAf3eSwraz6-22" value="" style="rounded=0;whiteSpace=wrap;html=1;fontFamily=Helvetica;fontSize=15;fontColor=default;labelBackgroundColor=default;fillColor=none;" parent="1" vertex="1">
          <mxGeometry x="1020" y="320" width="120" height="160" as="geometry" />
        </mxCell>
        <mxCell id="o1AQ_nGmEiAf3eSwraz6-81" value="" style="rounded=0;whiteSpace=wrap;html=1;fontFamily=Helvetica;fontSize=11;fontColor=default;labelBackgroundColor=default;fillColor=none;dashed=1;" parent="1" vertex="1">
          <mxGeometry x="240" y="860" width="480" height="180" as="geometry" />
        </mxCell>
        <mxCell id="o1AQ_nGmEiAf3eSwraz6-66" value="" style="rounded=0;whiteSpace=wrap;html=1;fontFamily=Helvetica;fontSize=11;fontColor=default;labelBackgroundColor=default;fillColor=none;dashed=1;" parent="1" vertex="1">
          <mxGeometry x="960" y="860" width="240" height="180" as="geometry" />
        </mxCell>
        <mxCell id="o1AQ_nGmEiAf3eSwraz6-51" value="" style="rounded=0;whiteSpace=wrap;html=1;fontFamily=Helvetica;fontSize=11;fontColor=default;labelBackgroundColor=default;fillColor=none;" parent="1" vertex="1">
          <mxGeometry x="1580" y="980" width="80" height="100" as="geometry" />
        </mxCell>
        <mxCell id="o1AQ_nGmEiAf3eSwraz6-2" style="edgeStyle=orthogonalEdgeStyle;rounded=0;orthogonalLoop=1;jettySize=auto;html=1;exitX=1;exitY=0.5;exitDx=0;exitDy=0;exitPerimeter=0;endArrow=oval;endFill=1;endSize=10;startSize=10;startArrow=oval;startFill=1;entryX=0;entryY=0.5;entryDx=0;entryDy=0;entryPerimeter=0;fillColor=#e51400;strokeColor=#B20000;" parent="1" source="o1AQ_nGmEiAf3eSwraz6-1" target="o1AQ_nGmEiAf3eSwraz6-4" edge="1">
          <mxGeometry relative="1" as="geometry">
            <mxPoint x="119.52631578947376" y="400" as="targetPoint" />
          </mxGeometry>
        </mxCell>
        <mxCell id="o1AQ_nGmEiAf3eSwraz6-9" style="edgeStyle=orthogonalEdgeStyle;rounded=0;orthogonalLoop=1;jettySize=auto;html=1;exitX=0;exitY=0.5;exitDx=0;exitDy=0;exitPerimeter=0;align=center;verticalAlign=middle;fontFamily=Helvetica;fontSize=11;fontColor=default;labelBackgroundColor=default;startArrow=oval;startFill=1;startSize=10;endArrow=oval;endFill=1;endSize=10;strokeColor=#000000;" parent="1" source="o1AQ_nGmEiAf3eSwraz6-1" edge="1">
          <mxGeometry relative="1" as="geometry">
            <mxPoint x="480" y="400" as="targetPoint" />
            <Array as="points">
              <mxPoint x="120" y="560" />
              <mxPoint x="360" y="560" />
              <mxPoint x="360" y="400" />
            </Array>
          </mxGeometry>
        </mxCell>
        <mxCell id="o1AQ_nGmEiAf3eSwraz6-8" style="edgeStyle=orthogonalEdgeStyle;rounded=0;orthogonalLoop=1;jettySize=auto;html=1;exitX=1;exitY=0.5;exitDx=0;exitDy=0;exitPerimeter=0;strokeColor=default;align=center;verticalAlign=middle;fontFamily=Helvetica;fontSize=11;fontColor=default;labelBackgroundColor=default;startArrow=oval;startFill=1;startSize=10;endArrow=oval;endFill=1;endSize=10;" parent="1" source="o1AQ_nGmEiAf3eSwraz6-4" edge="1">
          <mxGeometry relative="1" as="geometry">
            <mxPoint x="480" y="360" as="targetPoint" />
            <Array as="points" />
          </mxGeometry>
        </mxCell>
        <mxCell id="o1AQ_nGmEiAf3eSwraz6-24" style="edgeStyle=orthogonalEdgeStyle;rounded=0;orthogonalLoop=1;jettySize=auto;html=1;exitX=1;exitY=0.75;exitDx=0;exitDy=0;strokeColor=default;align=center;verticalAlign=middle;fontFamily=Helvetica;fontSize=11;fontColor=default;labelBackgroundColor=default;startArrow=oval;startFill=1;startSize=10;endArrow=oval;endFill=1;endSize=10;" parent="1" edge="1">
          <mxGeometry relative="1" as="geometry">
            <mxPoint x="640" y="400" as="sourcePoint" />
            <Array as="points">
              <mxPoint x="800" y="400" />
              <mxPoint x="800" y="440" />
            </Array>
            <mxPoint x="1000" y="440" as="targetPoint" />
          </mxGeometry>
        </mxCell>
        <mxCell id="o1AQ_nGmEiAf3eSwraz6-23" style="edgeStyle=orthogonalEdgeStyle;rounded=0;orthogonalLoop=1;jettySize=auto;html=1;exitX=1;exitY=1;exitDx=0;exitDy=0;exitPerimeter=0;strokeColor=#B20000;align=center;verticalAlign=middle;fontFamily=Helvetica;fontSize=11;fontColor=default;labelBackgroundColor=default;startArrow=oval;startFill=1;startSize=10;endArrow=oval;endFill=1;endSize=10;fillColor=#e51400;" parent="1" source="o1AQ_nGmEiAf3eSwraz6-17" edge="1">
          <mxGeometry relative="1" as="geometry">
            <Array as="points">
              <mxPoint x="940" y="360" />
              <mxPoint x="940" y="360" />
            </Array>
            <mxPoint x="1000" y="360" as="targetPoint" />
          </mxGeometry>
        </mxCell>
        <mxCell id="o1AQ_nGmEiAf3eSwraz6-26" style="edgeStyle=orthogonalEdgeStyle;rounded=0;orthogonalLoop=1;jettySize=auto;html=1;exitX=1;exitY=1;exitDx=0;exitDy=0;exitPerimeter=0;strokeColor=#005700;align=center;verticalAlign=middle;fontFamily=Helvetica;fontSize=11;fontColor=default;labelBackgroundColor=default;startArrow=oval;startFill=1;startSize=10;endArrow=oval;endFill=1;endSize=10;entryX=0;entryY=1;entryDx=0;entryDy=0;entryPerimeter=0;fillColor=#008a00;" parent="1" source="o1AQ_nGmEiAf3eSwraz6-17" target="o1AQ_nGmEiAf3eSwraz6-27" edge="1">
          <mxGeometry relative="1" as="geometry">
            <mxPoint x="919.6666666666665" y="560" as="targetPoint" />
            <Array as="points">
              <mxPoint x="920" y="640" />
            </Array>
          </mxGeometry>
        </mxCell>
        <mxCell id="o1AQ_nGmEiAf3eSwraz6-18" style="edgeStyle=orthogonalEdgeStyle;rounded=0;orthogonalLoop=1;jettySize=auto;html=1;exitX=1;exitY=0.25;exitDx=0;exitDy=0;entryX=0;entryY=1;entryDx=0;entryDy=0;entryPerimeter=0;strokeColor=#B20000;align=center;verticalAlign=middle;fontFamily=Helvetica;fontSize=11;fontColor=default;labelBackgroundColor=default;startArrow=oval;startFill=1;startSize=10;endArrow=oval;endFill=1;endSize=10;fillColor=#e51400;" parent="1" target="o1AQ_nGmEiAf3eSwraz6-17" edge="1">
          <mxGeometry relative="1" as="geometry">
            <mxPoint x="640" y="360" as="sourcePoint" />
            <Array as="points">
              <mxPoint x="820" y="360" />
              <mxPoint x="820" y="360" />
            </Array>
          </mxGeometry>
        </mxCell>
        <mxCell id="o1AQ_nGmEiAf3eSwraz6-19" value="AMS, BSPD, IMD Relays PCB" style="text;html=1;align=center;verticalAlign=middle;whiteSpace=wrap;rounded=0;fontFamily=Helvetica;fontSize=15;fontColor=default;labelBackgroundColor=default;" parent="1" vertex="1">
          <mxGeometry x="1360" y="1120" width="280" height="20" as="geometry" />
        </mxCell>
        <mxCell id="o1AQ_nGmEiAf3eSwraz6-20" value="GLVMS" style="text;html=1;align=center;verticalAlign=middle;whiteSpace=wrap;rounded=0;fontFamily=Helvetica;fontSize=15;fontColor=default;labelBackgroundColor=default;" parent="1" vertex="1">
          <mxGeometry x="840" y="320" width="80" height="20" as="geometry" />
        </mxCell>
        <mxCell id="o1AQ_nGmEiAf3eSwraz6-28" value="SDN (R)" style="text;html=1;align=center;verticalAlign=middle;whiteSpace=wrap;rounded=0;fontFamily=Helvetica;fontSize=15;fontColor=default;labelBackgroundColor=default;" parent="1" vertex="1">
          <mxGeometry x="1000" y="600" width="80" height="20" as="geometry" />
        </mxCell>
        <mxCell id="o1AQ_nGmEiAf3eSwraz6-30" style="edgeStyle=orthogonalEdgeStyle;rounded=0;orthogonalLoop=1;jettySize=auto;html=1;exitX=0;exitY=1;exitDx=0;exitDy=0;exitPerimeter=0;entryX=1;entryY=1;entryDx=0;entryDy=0;entryPerimeter=0;strokeColor=#005700;align=center;verticalAlign=middle;fontFamily=Helvetica;fontSize=11;fontColor=default;labelBackgroundColor=default;startArrow=oval;startFill=1;startSize=10;endArrow=oval;endFill=1;endSize=10;fillColor=#008a00;" parent="1" source="o1AQ_nGmEiAf3eSwraz6-29" target="o1AQ_nGmEiAf3eSwraz6-27" edge="1">
          <mxGeometry relative="1" as="geometry">
            <Array as="points">
              <mxPoint x="1120" y="640" />
              <mxPoint x="1120" y="640" />
            </Array>
          </mxGeometry>
        </mxCell>
        <mxCell id="o1AQ_nGmEiAf3eSwraz6-31" value="SDN (L)" style="text;html=1;align=center;verticalAlign=middle;whiteSpace=wrap;rounded=0;fontFamily=Helvetica;fontSize=15;fontColor=default;labelBackgroundColor=default;" parent="1" vertex="1">
          <mxGeometry x="1241" y="600" width="80" height="20" as="geometry" />
        </mxCell>
        <mxCell id="o1AQ_nGmEiAf3eSwraz6-33" value="" style="rounded=0;whiteSpace=wrap;html=1;fontFamily=Helvetica;fontSize=11;fontColor=default;labelBackgroundColor=default;fillColor=none;dashed=1;" parent="1" vertex="1">
          <mxGeometry x="1360" y="440" width="400" height="160" as="geometry" />
        </mxCell>
        <mxCell id="o1AQ_nGmEiAf3eSwraz6-34" value="HVBOX" style="text;html=1;align=center;verticalAlign=middle;whiteSpace=wrap;rounded=0;fontFamily=Helvetica;fontSize=15;fontColor=default;labelBackgroundColor=default;" parent="1" vertex="1">
          <mxGeometry x="1520" y="420" width="80" height="20" as="geometry" />
        </mxCell>
        <mxCell id="o1AQ_nGmEiAf3eSwraz6-35" value="" style="rounded=0;whiteSpace=wrap;html=1;fontFamily=Helvetica;fontSize=11;fontColor=default;labelBackgroundColor=default;fillColor=none;" parent="1" vertex="1">
          <mxGeometry x="1619.5" y="480" width="80" height="80" as="geometry" />
        </mxCell>
        <mxCell id="o1AQ_nGmEiAf3eSwraz6-36" value="" style="endArrow=none;startArrow=none;html=1;rounded=0;strokeColor=default;align=center;verticalAlign=middle;fontFamily=Helvetica;fontSize=11;fontColor=default;labelBackgroundColor=default;edgeStyle=orthogonalEdgeStyle;startSize=10;endSize=10;startFill=0;endFill=0;entryX=0.75;entryY=1;entryDx=0;entryDy=0;exitX=0.25;exitY=1;exitDx=0;exitDy=0;" parent="1" source="o1AQ_nGmEiAf3eSwraz6-35" target="o1AQ_nGmEiAf3eSwraz6-35" edge="1">
          <mxGeometry width="50" height="50" relative="1" as="geometry">
            <mxPoint x="1610" y="580" as="sourcePoint" />
            <mxPoint x="1660" y="530" as="targetPoint" />
            <Array as="points">
              <mxPoint x="1640" y="520" />
              <mxPoint x="1680" y="520" />
            </Array>
          </mxGeometry>
        </mxCell>
        <mxCell id="o1AQ_nGmEiAf3eSwraz6-37" value="" style="endArrow=none;html=1;rounded=0;strokeColor=default;align=center;verticalAlign=middle;fontFamily=Helvetica;fontSize=11;fontColor=default;labelBackgroundColor=default;edgeStyle=orthogonalEdgeStyle;startSize=10;endSize=10;" parent="1" edge="1">
          <mxGeometry width="50" height="50" relative="1" as="geometry">
            <mxPoint x="1629.5" y="540" as="sourcePoint" />
            <mxPoint x="1689.5" y="540" as="targetPoint" />
          </mxGeometry>
        </mxCell>
        <mxCell id="o1AQ_nGmEiAf3eSwraz6-38" value="HVD Interlock" style="text;html=1;align=center;verticalAlign=middle;whiteSpace=wrap;rounded=0;fontFamily=Helvetica;fontSize=15;fontColor=default;labelBackgroundColor=default;" parent="1" vertex="1">
          <mxGeometry x="1600" y="460" width="120" height="20" as="geometry" />
        </mxCell>
        <mxCell id="o1AQ_nGmEiAf3eSwraz6-43" value="" style="rounded=0;whiteSpace=wrap;html=1;fontFamily=Helvetica;fontSize=11;fontColor=default;labelBackgroundColor=default;fillColor=none;" parent="1" vertex="1">
          <mxGeometry x="1460" y="840" width="80" height="60" as="geometry" />
        </mxCell>
        <mxCell id="o1AQ_nGmEiAf3eSwraz6-45" value="" style="rounded=0;whiteSpace=wrap;html=1;fontFamily=Helvetica;fontSize=11;fontColor=default;labelBackgroundColor=default;fillColor=none;" parent="1" vertex="1">
          <mxGeometry x="1340" y="980" width="80" height="100" as="geometry" />
        </mxCell>
        <mxCell id="o1AQ_nGmEiAf3eSwraz6-46" value="" style="pointerEvents=1;verticalLabelPosition=bottom;shadow=0;dashed=0;align=center;html=1;verticalAlign=top;shape=mxgraph.electrical.inductors.inductor;fontFamily=Helvetica;fontSize=11;fontColor=default;labelBackgroundColor=default;" parent="1" vertex="1">
          <mxGeometry x="1350.5" y="1040" width="60" height="40" as="geometry" />
        </mxCell>
        <mxCell id="o1AQ_nGmEiAf3eSwraz6-56" style="edgeStyle=orthogonalEdgeStyle;rounded=0;orthogonalLoop=1;jettySize=auto;html=1;exitX=0;exitY=1;exitDx=0;exitDy=0;exitPerimeter=0;entryX=0.25;entryY=1;entryDx=0;entryDy=0;strokeColor=default;align=center;verticalAlign=middle;fontFamily=Helvetica;fontSize=11;fontColor=default;labelBackgroundColor=default;startArrow=none;startFill=0;startSize=10;endArrow=none;endFill=0;endSize=10;" parent="1" source="o1AQ_nGmEiAf3eSwraz6-47" target="o1AQ_nGmEiAf3eSwraz6-43" edge="1">
          <mxGeometry relative="1" as="geometry">
            <Array as="points">
              <mxPoint x="1320" y="1020" />
              <mxPoint x="1320" y="940" />
              <mxPoint x="1480" y="940" />
            </Array>
          </mxGeometry>
        </mxCell>
        <mxCell id="o1AQ_nGmEiAf3eSwraz6-47" value="" style="pointerEvents=1;verticalLabelPosition=bottom;shadow=0;dashed=0;align=center;html=1;verticalAlign=top;shape=mxgraph.electrical.electro-mechanical.make_contact;fontFamily=Helvetica;fontSize=11;fontColor=default;labelBackgroundColor=default;" parent="1" vertex="1">
          <mxGeometry x="1340" y="1000" width="80" height="20" as="geometry" />
        </mxCell>
        <mxCell id="o1AQ_nGmEiAf3eSwraz6-48" value="" style="rounded=0;whiteSpace=wrap;html=1;fontFamily=Helvetica;fontSize=11;fontColor=default;labelBackgroundColor=default;fillColor=none;" parent="1" vertex="1">
          <mxGeometry x="1460" y="980" width="80" height="100" as="geometry" />
        </mxCell>
        <mxCell id="o1AQ_nGmEiAf3eSwraz6-49" value="" style="pointerEvents=1;verticalLabelPosition=bottom;shadow=0;dashed=0;align=center;html=1;verticalAlign=top;shape=mxgraph.electrical.inductors.inductor;fontFamily=Helvetica;fontSize=11;fontColor=default;labelBackgroundColor=default;" parent="1" vertex="1">
          <mxGeometry x="1470" y="1040" width="60" height="40" as="geometry" />
        </mxCell>
        <mxCell id="o1AQ_nGmEiAf3eSwraz6-50" value="" style="pointerEvents=1;verticalLabelPosition=bottom;shadow=0;dashed=0;align=center;html=1;verticalAlign=top;shape=mxgraph.electrical.electro-mechanical.make_contact;fontFamily=Helvetica;fontSize=11;fontColor=default;labelBackgroundColor=default;" parent="1" vertex="1">
          <mxGeometry x="1459.5" y="1000" width="80" height="20" as="geometry" />
        </mxCell>
        <mxCell id="o1AQ_nGmEiAf3eSwraz6-52" value="" style="pointerEvents=1;verticalLabelPosition=bottom;shadow=0;dashed=0;align=center;html=1;verticalAlign=top;shape=mxgraph.electrical.inductors.inductor;fontFamily=Helvetica;fontSize=11;fontColor=default;labelBackgroundColor=default;" parent="1" vertex="1">
          <mxGeometry x="1590.5" y="1040" width="60" height="40" as="geometry" />
        </mxCell>
        <mxCell id="o1AQ_nGmEiAf3eSwraz6-53" value="" style="pointerEvents=1;verticalLabelPosition=bottom;shadow=0;dashed=0;align=center;html=1;verticalAlign=top;shape=mxgraph.electrical.electro-mechanical.make_contact;fontFamily=Helvetica;fontSize=11;fontColor=default;labelBackgroundColor=default;" parent="1" vertex="1">
          <mxGeometry x="1580" y="1000" width="80" height="20" as="geometry" />
        </mxCell>
        <mxCell id="o1AQ_nGmEiAf3eSwraz6-54" style="edgeStyle=orthogonalEdgeStyle;rounded=0;orthogonalLoop=1;jettySize=auto;html=1;exitX=1;exitY=1;exitDx=0;exitDy=0;exitPerimeter=0;entryX=0;entryY=1;entryDx=0;entryDy=0;entryPerimeter=0;strokeColor=default;align=center;verticalAlign=middle;fontFamily=Helvetica;fontSize=11;fontColor=default;labelBackgroundColor=default;startArrow=none;startFill=0;startSize=10;endArrow=none;endFill=0;endSize=10;" parent="1" source="o1AQ_nGmEiAf3eSwraz6-47" target="o1AQ_nGmEiAf3eSwraz6-50" edge="1">
          <mxGeometry relative="1" as="geometry" />
        </mxCell>
        <mxCell id="o1AQ_nGmEiAf3eSwraz6-55" style="edgeStyle=orthogonalEdgeStyle;rounded=0;orthogonalLoop=1;jettySize=auto;html=1;exitX=1;exitY=1;exitDx=0;exitDy=0;exitPerimeter=0;entryX=0;entryY=1;entryDx=0;entryDy=0;entryPerimeter=0;strokeColor=default;align=center;verticalAlign=middle;fontFamily=Helvetica;fontSize=11;fontColor=default;labelBackgroundColor=default;startArrow=none;startFill=0;startSize=10;endArrow=none;endFill=0;endSize=10;" parent="1" source="o1AQ_nGmEiAf3eSwraz6-50" target="o1AQ_nGmEiAf3eSwraz6-53" edge="1">
          <mxGeometry relative="1" as="geometry">
            <Array as="points">
              <mxPoint x="1560" y="1020" />
              <mxPoint x="1560" y="1020" />
            </Array>
          </mxGeometry>
        </mxCell>
        <mxCell id="o1AQ_nGmEiAf3eSwraz6-60" style="edgeStyle=orthogonalEdgeStyle;rounded=0;orthogonalLoop=1;jettySize=auto;html=1;exitX=0.75;exitY=1;exitDx=0;exitDy=0;entryX=1;entryY=1;entryDx=0;entryDy=0;entryPerimeter=0;strokeColor=default;align=center;verticalAlign=middle;fontFamily=Helvetica;fontSize=11;fontColor=default;labelBackgroundColor=default;startArrow=none;startFill=0;startSize=10;endArrow=none;endFill=0;endSize=10;" parent="1" source="o1AQ_nGmEiAf3eSwraz6-43" target="o1AQ_nGmEiAf3eSwraz6-53" edge="1">
          <mxGeometry relative="1" as="geometry">
            <Array as="points">
              <mxPoint x="1520" y="940" />
              <mxPoint x="1680" y="940" />
              <mxPoint x="1680" y="1020" />
            </Array>
          </mxGeometry>
        </mxCell>
        <mxCell id="o1AQ_nGmEiAf3eSwraz6-61" value="XH 2pin" style="text;html=1;align=center;verticalAlign=middle;whiteSpace=wrap;rounded=0;fontFamily=Helvetica;fontSize=15;fontColor=default;labelBackgroundColor=default;" parent="1" vertex="1">
          <mxGeometry x="1459.5" y="870" width="80" height="20" as="geometry" />
        </mxCell>
        <mxCell id="o1AQ_nGmEiAf3eSwraz6-62" value="1" style="text;html=1;align=center;verticalAlign=middle;whiteSpace=wrap;rounded=0;fontFamily=Helvetica;fontSize=15;fontColor=default;labelBackgroundColor=default;" parent="1" vertex="1">
          <mxGeometry x="1510" y="850" width="20" height="20" as="geometry" />
        </mxCell>
        <mxCell id="o1AQ_nGmEiAf3eSwraz6-63" value="2" style="text;html=1;align=center;verticalAlign=middle;whiteSpace=wrap;rounded=0;fontFamily=Helvetica;fontSize=15;fontColor=default;labelBackgroundColor=default;" parent="1" vertex="1">
          <mxGeometry x="1470" y="850" width="20" height="20" as="geometry" />
        </mxCell>
        <mxCell id="o1AQ_nGmEiAf3eSwraz6-70" style="edgeStyle=orthogonalEdgeStyle;rounded=0;orthogonalLoop=1;jettySize=auto;html=1;exitX=0;exitY=0.5;exitDx=0;exitDy=0;entryX=0.75;entryY=1;entryDx=0;entryDy=0;strokeColor=default;align=center;verticalAlign=middle;fontFamily=Helvetica;fontSize=11;fontColor=default;labelBackgroundColor=default;startArrow=none;startFill=0;startSize=10;endArrow=none;endFill=0;endSize=10;" parent="1" source="o1AQ_nGmEiAf3eSwraz6-65" target="o1AQ_nGmEiAf3eSwraz6-68" edge="1">
          <mxGeometry relative="1" as="geometry">
            <Array as="points">
              <mxPoint x="1120" y="940" />
              <mxPoint x="1120" y="940" />
            </Array>
          </mxGeometry>
        </mxCell>
        <mxCell id="o1AQ_nGmEiAf3eSwraz6-71" style="edgeStyle=orthogonalEdgeStyle;rounded=0;orthogonalLoop=1;jettySize=auto;html=1;exitX=1;exitY=0;exitDx=0;exitDy=0;entryX=0.25;entryY=1;entryDx=0;entryDy=0;strokeColor=default;align=center;verticalAlign=middle;fontFamily=Helvetica;fontSize=11;fontColor=default;labelBackgroundColor=default;startArrow=none;startFill=0;startSize=10;endArrow=none;endFill=0;endSize=10;" parent="1" source="o1AQ_nGmEiAf3eSwraz6-65" target="o1AQ_nGmEiAf3eSwraz6-68" edge="1">
          <mxGeometry relative="1" as="geometry">
            <Array as="points">
              <mxPoint x="1020" y="1000" />
              <mxPoint x="1020" y="920" />
              <mxPoint x="1040" y="920" />
            </Array>
          </mxGeometry>
        </mxCell>
        <mxCell id="o1AQ_nGmEiAf3eSwraz6-72" style="edgeStyle=orthogonalEdgeStyle;rounded=0;orthogonalLoop=1;jettySize=auto;html=1;exitX=1;exitY=1;exitDx=0;exitDy=0;entryX=0.5;entryY=1;entryDx=0;entryDy=0;strokeColor=default;align=center;verticalAlign=middle;fontFamily=Helvetica;fontSize=11;fontColor=default;labelBackgroundColor=default;startArrow=none;startFill=0;startSize=10;endArrow=none;endFill=0;endSize=10;" parent="1" source="o1AQ_nGmEiAf3eSwraz6-65" target="o1AQ_nGmEiAf3eSwraz6-68" edge="1">
          <mxGeometry relative="1" as="geometry">
            <Array as="points">
              <mxPoint x="1040" y="940" />
              <mxPoint x="1080" y="940" />
            </Array>
          </mxGeometry>
        </mxCell>
        <mxCell id="o1AQ_nGmEiAf3eSwraz6-65" value="" style="pointerEvents=1;verticalLabelPosition=bottom;shadow=0;dashed=0;align=center;html=1;verticalAlign=top;shape=mxgraph.electrical.electro-mechanical.twoWayContact2;elSwitchState=1;fontFamily=Helvetica;fontSize=11;fontColor=default;labelBackgroundColor=default;rotation=-180;" parent="1" vertex="1">
          <mxGeometry x="1040" y="960" width="80" height="40" as="geometry" />
        </mxCell>
        <mxCell id="o1AQ_nGmEiAf3eSwraz6-67" value="Inertia SW" style="text;html=1;align=center;verticalAlign=middle;whiteSpace=wrap;rounded=0;fontFamily=Helvetica;fontSize=15;fontColor=default;labelBackgroundColor=default;" parent="1" vertex="1">
          <mxGeometry x="1040" y="1040" width="80" height="20" as="geometry" />
        </mxCell>
        <mxCell id="o1AQ_nGmEiAf3eSwraz6-68" value="" style="rounded=0;whiteSpace=wrap;html=1;fontFamily=Helvetica;fontSize=11;fontColor=default;labelBackgroundColor=default;fillColor=none;" parent="1" vertex="1">
          <mxGeometry x="1000" y="840" width="160" height="60" as="geometry" />
        </mxCell>
        <mxCell id="o1AQ_nGmEiAf3eSwraz6-73" value="1" style="text;html=1;align=center;verticalAlign=middle;whiteSpace=wrap;rounded=0;fontFamily=Helvetica;fontSize=15;fontColor=default;labelBackgroundColor=default;" parent="1" vertex="1">
          <mxGeometry x="1110" y="850" width="20" height="20" as="geometry" />
        </mxCell>
        <mxCell id="o1AQ_nGmEiAf3eSwraz6-74" value="2" style="text;html=1;align=center;verticalAlign=middle;whiteSpace=wrap;rounded=0;fontFamily=Helvetica;fontSize=15;fontColor=default;labelBackgroundColor=default;" parent="1" vertex="1">
          <mxGeometry x="1070" y="850" width="20" height="20" as="geometry" />
        </mxCell>
        <mxCell id="o1AQ_nGmEiAf3eSwraz6-75" value="3" style="text;html=1;align=center;verticalAlign=middle;whiteSpace=wrap;rounded=0;fontFamily=Helvetica;fontSize=15;fontColor=default;labelBackgroundColor=default;" parent="1" vertex="1">
          <mxGeometry x="1030" y="850" width="20" height="20" as="geometry" />
        </mxCell>
        <mxCell id="o1AQ_nGmEiAf3eSwraz6-77" value="" style="pointerEvents=1;verticalLabelPosition=bottom;shadow=0;dashed=0;align=center;html=1;verticalAlign=top;shape=mxgraph.electrical.electro-mechanical.make_contact;fontFamily=Helvetica;fontSize=11;fontColor=default;labelBackgroundColor=default;" parent="1" vertex="1">
          <mxGeometry x="800" y="780" width="80" height="20" as="geometry" />
        </mxCell>
        <mxCell id="o1AQ_nGmEiAf3eSwraz6-78" value="SDN (C)" style="text;html=1;align=center;verticalAlign=middle;whiteSpace=wrap;rounded=0;fontFamily=Helvetica;fontSize=15;fontColor=default;labelBackgroundColor=default;" parent="1" vertex="1">
          <mxGeometry x="800" y="760" width="80" height="20" as="geometry" />
        </mxCell>
        <mxCell id="o1AQ_nGmEiAf3eSwraz6-79" style="edgeStyle=orthogonalEdgeStyle;rounded=0;orthogonalLoop=1;jettySize=auto;html=1;exitX=0.25;exitY=0;exitDx=0;exitDy=0;entryX=1;entryY=1;entryDx=0;entryDy=0;entryPerimeter=0;strokeColor=#005700;align=center;verticalAlign=middle;fontFamily=Helvetica;fontSize=11;fontColor=default;labelBackgroundColor=default;startArrow=oval;startFill=1;startSize=10;endArrow=oval;endFill=1;endSize=10;fillColor=#008a00;" parent="1" source="o1AQ_nGmEiAf3eSwraz6-68" target="o1AQ_nGmEiAf3eSwraz6-77" edge="1">
          <mxGeometry relative="1" as="geometry">
            <Array as="points">
              <mxPoint x="1040" y="800" />
            </Array>
          </mxGeometry>
        </mxCell>
        <mxCell id="o1AQ_nGmEiAf3eSwraz6-80" value="" style="pointerEvents=1;verticalLabelPosition=bottom;shadow=0;dashed=0;align=center;html=1;verticalAlign=top;shape=mxgraph.electrical.electro-mechanical.twoWayContact2;elSwitchState=1;fontFamily=Helvetica;fontSize=11;fontColor=default;labelBackgroundColor=default;rotation=90;flipV=0;" parent="1" vertex="1">
          <mxGeometry x="560" y="940" width="80" height="40" as="geometry" />
        </mxCell>
        <mxCell id="o1AQ_nGmEiAf3eSwraz6-82" value="" style="rounded=0;whiteSpace=wrap;html=1;fontFamily=Helvetica;fontSize=11;fontColor=default;labelBackgroundColor=default;fillColor=none;points=[[0,0,0,0,0],[0,0.25,0,0,0],[0,0.5,0,0,0],[0,0.75,0,0,0],[0,1,0,0,0],[0.1,0,0,0,0],[0.1,1,0,0,0],[0.2,0,0,0,0],[0.2,1,0,0,0],[0.3,0,0,0,0],[0.3,1,0,0,0],[0.4,0,0,0,0],[0.4,1,0,0,0],[0.5,0,0,0,0],[0.5,1,0,0,0],[0.6,0,0,0,0],[0.6,1,0,0,0],[0.7,0,0,0,0],[0.7,1,0,0,0],[0.8,0,0,0,0],[0.8,1,0,0,0],[0.9,0,0,0,0],[0.9,1,0,0,0],[1,0,0,0,0],[1,0.25,0,0,0],[1,0.5,0,0,0],[1,0.75,0,0,0],[1,1,0,0,0]];" parent="1" vertex="1">
          <mxGeometry x="280" y="840" width="400" height="60" as="geometry" />
        </mxCell>
        <mxCell id="o1AQ_nGmEiAf3eSwraz6-83" value="BOTS" style="text;html=1;align=center;verticalAlign=middle;whiteSpace=wrap;rounded=0;fontFamily=Helvetica;fontSize=15;fontColor=default;labelBackgroundColor=default;" parent="1" vertex="1">
          <mxGeometry x="440" y="1040" width="80" height="20" as="geometry" />
        </mxCell>
        <mxCell id="o1AQ_nGmEiAf3eSwraz6-84" value="1" style="text;html=1;align=center;verticalAlign=middle;whiteSpace=wrap;rounded=0;fontFamily=Helvetica;fontSize=15;fontColor=default;labelBackgroundColor=default;" parent="1" vertex="1">
          <mxGeometry x="630" y="850" width="20" height="20" as="geometry" />
        </mxCell>
        <mxCell id="o1AQ_nGmEiAf3eSwraz6-85" value="2" style="text;html=1;align=center;verticalAlign=middle;whiteSpace=wrap;rounded=0;fontFamily=Helvetica;fontSize=15;fontColor=default;labelBackgroundColor=default;" parent="1" vertex="1">
          <mxGeometry x="590" y="850" width="20" height="20" as="geometry" />
        </mxCell>
        <mxCell id="o1AQ_nGmEiAf3eSwraz6-86" value="3" style="text;html=1;align=center;verticalAlign=middle;whiteSpace=wrap;rounded=0;fontFamily=Helvetica;fontSize=15;fontColor=default;labelBackgroundColor=default;" parent="1" vertex="1">
          <mxGeometry x="550" y="850" width="20" height="20" as="geometry" />
        </mxCell>
        <mxCell id="o1AQ_nGmEiAf3eSwraz6-90" value="4" style="text;html=1;align=center;verticalAlign=middle;whiteSpace=wrap;rounded=0;fontFamily=Helvetica;fontSize=15;fontColor=default;labelBackgroundColor=default;" parent="1" vertex="1">
          <mxGeometry x="510" y="850" width="20" height="20" as="geometry" />
        </mxCell>
        <mxCell id="o1AQ_nGmEiAf3eSwraz6-91" value="5" style="text;html=1;align=center;verticalAlign=middle;whiteSpace=wrap;rounded=0;fontFamily=Helvetica;fontSize=15;fontColor=default;labelBackgroundColor=default;" parent="1" vertex="1">
          <mxGeometry x="470" y="850" width="20" height="20" as="geometry" />
        </mxCell>
        <mxCell id="o1AQ_nGmEiAf3eSwraz6-92" value="6" style="text;html=1;align=center;verticalAlign=middle;whiteSpace=wrap;rounded=0;fontFamily=Helvetica;fontSize=15;fontColor=default;labelBackgroundColor=default;" parent="1" vertex="1">
          <mxGeometry x="430" y="850" width="20" height="20" as="geometry" />
        </mxCell>
        <mxCell id="o1AQ_nGmEiAf3eSwraz6-93" value="7" style="text;html=1;align=center;verticalAlign=middle;whiteSpace=wrap;rounded=0;fontFamily=Helvetica;fontSize=15;fontColor=default;labelBackgroundColor=default;" parent="1" vertex="1">
          <mxGeometry x="390" y="850" width="20" height="20" as="geometry" />
        </mxCell>
        <mxCell id="o1AQ_nGmEiAf3eSwraz6-94" value="8" style="text;html=1;align=center;verticalAlign=middle;whiteSpace=wrap;rounded=0;fontFamily=Helvetica;fontSize=15;fontColor=default;labelBackgroundColor=default;" parent="1" vertex="1">
          <mxGeometry x="350" y="850" width="20" height="20" as="geometry" />
        </mxCell>
        <mxCell id="o1AQ_nGmEiAf3eSwraz6-95" value="9" style="text;html=1;align=center;verticalAlign=middle;whiteSpace=wrap;rounded=0;fontFamily=Helvetica;fontSize=15;fontColor=default;labelBackgroundColor=default;" parent="1" vertex="1">
          <mxGeometry x="310" y="850" width="20" height="20" as="geometry" />
        </mxCell>
        <mxCell id="o1AQ_nGmEiAf3eSwraz6-96" value="" style="pointerEvents=1;verticalLabelPosition=bottom;shadow=0;dashed=0;align=center;html=1;verticalAlign=top;shape=mxgraph.electrical.electro-mechanical.twoWayContact2;elSwitchState=1;fontFamily=Helvetica;fontSize=11;fontColor=default;labelBackgroundColor=default;rotation=90;" parent="1" vertex="1">
          <mxGeometry x="440" y="940" width="80" height="40" as="geometry" />
        </mxCell>
        <mxCell id="o1AQ_nGmEiAf3eSwraz6-97" value="" style="pointerEvents=1;verticalLabelPosition=bottom;shadow=0;dashed=0;align=center;html=1;verticalAlign=top;shape=mxgraph.electrical.electro-mechanical.twoWayContact2;elSwitchState=1;fontFamily=Helvetica;fontSize=11;fontColor=default;labelBackgroundColor=default;rotation=90;" parent="1" vertex="1">
          <mxGeometry x="320" y="940" width="80" height="40" as="geometry" />
        </mxCell>
        <mxCell id="o1AQ_nGmEiAf3eSwraz6-98" style="edgeStyle=orthogonalEdgeStyle;rounded=0;orthogonalLoop=1;jettySize=auto;html=1;exitX=0;exitY=0.5;exitDx=0;exitDy=0;entryX=0.8;entryY=1;entryDx=0;entryDy=0;entryPerimeter=0;strokeColor=default;align=center;verticalAlign=middle;fontFamily=Helvetica;fontSize=11;fontColor=default;labelBackgroundColor=default;startArrow=none;startFill=0;startSize=10;endArrow=none;endFill=0;endSize=10;" parent="1" source="o1AQ_nGmEiAf3eSwraz6-80" target="o1AQ_nGmEiAf3eSwraz6-82" edge="1">
          <mxGeometry relative="1" as="geometry" />
        </mxCell>
        <mxCell id="o1AQ_nGmEiAf3eSwraz6-99" style="edgeStyle=orthogonalEdgeStyle;rounded=0;orthogonalLoop=1;jettySize=auto;html=1;exitX=1;exitY=0;exitDx=0;exitDy=0;entryX=0.9;entryY=1;entryDx=0;entryDy=0;entryPerimeter=0;strokeColor=default;align=center;verticalAlign=middle;fontFamily=Helvetica;fontSize=11;fontColor=default;labelBackgroundColor=default;startArrow=none;startFill=0;startSize=10;endArrow=none;endFill=0;endSize=10;" parent="1" source="o1AQ_nGmEiAf3eSwraz6-80" target="o1AQ_nGmEiAf3eSwraz6-82" edge="1">
          <mxGeometry relative="1" as="geometry">
            <Array as="points">
              <mxPoint x="620" y="1020" />
              <mxPoint x="640" y="1020" />
            </Array>
          </mxGeometry>
        </mxCell>
        <mxCell id="o1AQ_nGmEiAf3eSwraz6-100" style="edgeStyle=orthogonalEdgeStyle;rounded=0;orthogonalLoop=1;jettySize=auto;html=1;exitX=1;exitY=1;exitDx=0;exitDy=0;entryX=0.7;entryY=1;entryDx=0;entryDy=0;entryPerimeter=0;strokeColor=default;align=center;verticalAlign=middle;fontFamily=Helvetica;fontSize=11;fontColor=default;labelBackgroundColor=default;startArrow=none;startFill=0;startSize=10;endArrow=none;endFill=0;endSize=10;" parent="1" source="o1AQ_nGmEiAf3eSwraz6-80" target="o1AQ_nGmEiAf3eSwraz6-82" edge="1">
          <mxGeometry relative="1" as="geometry" />
        </mxCell>
        <mxCell id="o1AQ_nGmEiAf3eSwraz6-101" style="edgeStyle=orthogonalEdgeStyle;rounded=0;orthogonalLoop=1;jettySize=auto;html=1;exitX=1;exitY=0;exitDx=0;exitDy=0;entryX=0.6;entryY=1;entryDx=0;entryDy=0;entryPerimeter=0;strokeColor=default;align=center;verticalAlign=middle;fontFamily=Helvetica;fontSize=11;fontColor=default;labelBackgroundColor=default;startArrow=none;startFill=0;startSize=10;endArrow=none;endFill=0;endSize=10;" parent="1" source="o1AQ_nGmEiAf3eSwraz6-96" target="o1AQ_nGmEiAf3eSwraz6-82" edge="1">
          <mxGeometry relative="1" as="geometry">
            <Array as="points">
              <mxPoint x="500" y="1020" />
              <mxPoint x="520" y="1020" />
            </Array>
          </mxGeometry>
        </mxCell>
        <mxCell id="o1AQ_nGmEiAf3eSwraz6-103" style="edgeStyle=orthogonalEdgeStyle;rounded=0;orthogonalLoop=1;jettySize=auto;html=1;exitX=0;exitY=0.5;exitDx=0;exitDy=0;entryX=0.5;entryY=1;entryDx=0;entryDy=0;entryPerimeter=0;strokeColor=default;align=center;verticalAlign=middle;fontFamily=Helvetica;fontSize=11;fontColor=default;labelBackgroundColor=default;startArrow=none;startFill=0;startSize=10;endArrow=none;endFill=0;endSize=10;" parent="1" source="o1AQ_nGmEiAf3eSwraz6-96" target="o1AQ_nGmEiAf3eSwraz6-82" edge="1">
          <mxGeometry relative="1" as="geometry" />
        </mxCell>
        <mxCell id="o1AQ_nGmEiAf3eSwraz6-104" style="edgeStyle=orthogonalEdgeStyle;rounded=0;orthogonalLoop=1;jettySize=auto;html=1;exitX=1;exitY=1;exitDx=0;exitDy=0;entryX=0.4;entryY=1;entryDx=0;entryDy=0;entryPerimeter=0;strokeColor=default;align=center;verticalAlign=middle;fontFamily=Helvetica;fontSize=11;fontColor=default;labelBackgroundColor=default;startArrow=none;startFill=0;startSize=10;endArrow=none;endFill=0;endSize=10;" parent="1" source="o1AQ_nGmEiAf3eSwraz6-96" target="o1AQ_nGmEiAf3eSwraz6-82" edge="1">
          <mxGeometry relative="1" as="geometry" />
        </mxCell>
        <mxCell id="o1AQ_nGmEiAf3eSwraz6-105" style="edgeStyle=orthogonalEdgeStyle;rounded=0;orthogonalLoop=1;jettySize=auto;html=1;exitX=0;exitY=0.5;exitDx=0;exitDy=0;entryX=0.2;entryY=1;entryDx=0;entryDy=0;entryPerimeter=0;strokeColor=default;align=center;verticalAlign=middle;fontFamily=Helvetica;fontSize=11;fontColor=default;labelBackgroundColor=default;startArrow=none;startFill=0;startSize=10;endArrow=none;endFill=0;endSize=10;" parent="1" source="o1AQ_nGmEiAf3eSwraz6-97" target="o1AQ_nGmEiAf3eSwraz6-82" edge="1">
          <mxGeometry relative="1" as="geometry" />
        </mxCell>
        <mxCell id="o1AQ_nGmEiAf3eSwraz6-106" style="edgeStyle=orthogonalEdgeStyle;rounded=0;orthogonalLoop=1;jettySize=auto;html=1;exitX=1;exitY=0;exitDx=0;exitDy=0;entryX=0.3;entryY=1;entryDx=0;entryDy=0;entryPerimeter=0;strokeColor=default;align=center;verticalAlign=middle;fontFamily=Helvetica;fontSize=11;fontColor=default;labelBackgroundColor=default;startArrow=none;startFill=0;startSize=10;endArrow=none;endFill=0;endSize=10;" parent="1" source="o1AQ_nGmEiAf3eSwraz6-97" target="o1AQ_nGmEiAf3eSwraz6-82" edge="1">
          <mxGeometry relative="1" as="geometry" />
        </mxCell>
        <mxCell id="o1AQ_nGmEiAf3eSwraz6-107" style="edgeStyle=orthogonalEdgeStyle;rounded=0;orthogonalLoop=1;jettySize=auto;html=1;exitX=1;exitY=1;exitDx=0;exitDy=0;entryX=0.1;entryY=1;entryDx=0;entryDy=0;entryPerimeter=0;strokeColor=default;align=center;verticalAlign=middle;fontFamily=Helvetica;fontSize=11;fontColor=default;labelBackgroundColor=default;startArrow=none;startFill=0;startSize=10;endArrow=none;endFill=0;endSize=10;" parent="1" source="o1AQ_nGmEiAf3eSwraz6-97" target="o1AQ_nGmEiAf3eSwraz6-82" edge="1">
          <mxGeometry relative="1" as="geometry">
            <Array as="points">
              <mxPoint x="340" y="1020" />
              <mxPoint x="320" y="1020" />
            </Array>
          </mxGeometry>
        </mxCell>
        <mxCell id="o1AQ_nGmEiAf3eSwraz6-108" value="" style="endArrow=none;html=1;rounded=0;strokeColor=default;align=center;verticalAlign=middle;fontFamily=Helvetica;fontSize=11;fontColor=default;labelBackgroundColor=default;edgeStyle=orthogonalEdgeStyle;startSize=10;endSize=10;dashed=1;dashPattern=8 8;" parent="1" edge="1">
          <mxGeometry width="50" height="50" relative="1" as="geometry">
            <mxPoint x="380" y="960" as="sourcePoint" />
            <mxPoint x="600" y="960" as="targetPoint" />
          </mxGeometry>
        </mxCell>
        <mxCell id="o1AQ_nGmEiAf3eSwraz6-109" style="edgeStyle=orthogonalEdgeStyle;rounded=0;orthogonalLoop=1;jettySize=auto;html=1;exitX=0;exitY=1;exitDx=0;exitDy=0;exitPerimeter=0;entryX=0.9;entryY=0;entryDx=0;entryDy=0;entryPerimeter=0;strokeColor=#005700;align=center;verticalAlign=middle;fontFamily=Helvetica;fontSize=11;fontColor=default;labelBackgroundColor=default;startArrow=oval;startFill=1;startSize=10;endArrow=oval;endFill=1;endSize=10;fillColor=#008a00;" parent="1" source="o1AQ_nGmEiAf3eSwraz6-77" target="o1AQ_nGmEiAf3eSwraz6-82" edge="1">
          <mxGeometry relative="1" as="geometry">
            <Array as="points">
              <mxPoint x="640" y="800" />
            </Array>
          </mxGeometry>
        </mxCell>
        <mxCell id="o1AQ_nGmEiAf3eSwraz6-111" value="TSMS" style="text;html=1;align=center;verticalAlign=middle;whiteSpace=wrap;rounded=0;fontFamily=Helvetica;fontSize=15;fontColor=default;labelBackgroundColor=default;" parent="1" vertex="1">
          <mxGeometry x="680" y="600" width="80" height="20" as="geometry" />
        </mxCell>
        <mxCell id="o1AQ_nGmEiAf3eSwraz6-39" style="edgeStyle=orthogonalEdgeStyle;rounded=0;orthogonalLoop=1;jettySize=auto;html=1;exitX=1;exitY=1;exitDx=0;exitDy=0;exitPerimeter=0;strokeColor=#005700;align=center;verticalAlign=middle;fontFamily=Helvetica;fontSize=11;fontColor=default;labelBackgroundColor=default;startArrow=oval;startFill=1;startSize=10;endArrow=oval;endFill=1;endSize=10;fillColor=#008a00;entryX=0.25;entryY=1;entryDx=0;entryDy=0;" parent="1" source="o1AQ_nGmEiAf3eSwraz6-29" target="o1AQ_nGmEiAf3eSwraz6-35" edge="1">
          <mxGeometry relative="1" as="geometry">
            <mxPoint x="1480" y="440" as="targetPoint" />
            <Array as="points">
              <mxPoint x="1640" y="640" />
              <mxPoint x="1640" y="560" />
            </Array>
          </mxGeometry>
        </mxCell>
        <mxCell id="o1AQ_nGmEiAf3eSwraz6-64" style="edgeStyle=orthogonalEdgeStyle;rounded=0;orthogonalLoop=1;jettySize=auto;html=1;exitX=0.75;exitY=1;exitDx=0;exitDy=0;strokeColor=#005700;align=center;verticalAlign=middle;fontFamily=Helvetica;fontSize=11;fontColor=default;labelBackgroundColor=default;startArrow=oval;startFill=1;startSize=10;endArrow=oval;endFill=1;endSize=10;entryX=0.75;entryY=0;entryDx=0;entryDy=0;fillColor=#008a00;" parent="1" source="o1AQ_nGmEiAf3eSwraz6-35" target="o1AQ_nGmEiAf3eSwraz6-43" edge="1">
          <mxGeometry relative="1" as="geometry">
            <mxPoint x="1520" y="809.9999999999998" as="targetPoint" />
            <Array as="points">
              <mxPoint x="1680" y="720" />
              <mxPoint x="1520" y="720" />
            </Array>
          </mxGeometry>
        </mxCell>
        <mxCell id="o1AQ_nGmEiAf3eSwraz6-76" style="edgeStyle=orthogonalEdgeStyle;rounded=0;orthogonalLoop=1;jettySize=auto;html=1;exitX=0.25;exitY=0;exitDx=0;exitDy=0;entryX=0.75;entryY=0;entryDx=0;entryDy=0;strokeColor=#005700;align=center;verticalAlign=middle;fontFamily=Helvetica;fontSize=11;fontColor=default;labelBackgroundColor=default;startArrow=oval;startFill=1;startSize=10;endArrow=oval;endFill=1;endSize=10;fillColor=#008a00;" parent="1" source="o1AQ_nGmEiAf3eSwraz6-43" target="o1AQ_nGmEiAf3eSwraz6-68" edge="1">
          <mxGeometry relative="1" as="geometry">
            <Array as="points">
              <mxPoint x="1480" y="800" />
              <mxPoint x="1120" y="800" />
            </Array>
          </mxGeometry>
        </mxCell>
        <mxCell id="o1AQ_nGmEiAf3eSwraz6-110" value="" style="pointerEvents=1;verticalLabelPosition=bottom;shadow=0;dashed=0;align=center;html=1;verticalAlign=top;shape=mxgraph.electrical.electro-mechanical.make_contact;fontFamily=Helvetica;fontSize=11;fontColor=default;labelBackgroundColor=default;" parent="1" vertex="1">
          <mxGeometry x="680" y="620" width="80" height="20" as="geometry" />
        </mxCell>
        <mxCell id="o1AQ_nGmEiAf3eSwraz6-113" style="edgeStyle=orthogonalEdgeStyle;rounded=0;orthogonalLoop=1;jettySize=auto;html=1;exitX=0;exitY=1;exitDx=0;exitDy=0;exitPerimeter=0;entryX=0.8;entryY=0;entryDx=0;entryDy=0;entryPerimeter=0;strokeColor=#005700;align=center;verticalAlign=middle;fontFamily=Helvetica;fontSize=11;fontColor=default;labelBackgroundColor=default;startArrow=oval;startFill=1;startSize=10;endArrow=oval;endFill=1;endSize=10;fillColor=#008a00;" parent="1" source="o1AQ_nGmEiAf3eSwraz6-110" target="o1AQ_nGmEiAf3eSwraz6-82" edge="1">
          <mxGeometry relative="1" as="geometry">
            <Array as="points">
              <mxPoint x="600" y="640" />
            </Array>
          </mxGeometry>
        </mxCell>
        <mxCell id="o1AQ_nGmEiAf3eSwraz6-114" style="edgeStyle=orthogonalEdgeStyle;rounded=0;orthogonalLoop=1;jettySize=auto;html=1;exitX=1;exitY=1;exitDx=0;exitDy=0;exitPerimeter=0;strokeColor=#005700;align=center;verticalAlign=middle;fontFamily=Helvetica;fontSize=11;fontColor=default;labelBackgroundColor=default;startArrow=oval;startFill=1;startSize=10;endArrow=oval;endFill=1;endSize=10;fillColor=#008a00;" parent="1" source="o1AQ_nGmEiAf3eSwraz6-110" edge="1">
          <mxGeometry relative="1" as="geometry">
            <Array as="points">
              <mxPoint x="880" y="640" />
              <mxPoint x="880" y="400" />
            </Array>
            <mxPoint x="1000" y="400" as="targetPoint" />
          </mxGeometry>
        </mxCell>
        <mxCell id="P4XDhaOBuuw1px-TDpi_-3" value="" style="rounded=0;whiteSpace=wrap;html=1;fontFamily=Helvetica;fontSize=11;fontColor=default;labelBackgroundColor=default;fillColor=none;" parent="1" vertex="1">
          <mxGeometry x="1760" y="60" width="80" height="100" as="geometry" />
        </mxCell>
        <mxCell id="P4XDhaOBuuw1px-TDpi_-4" value="" style="pointerEvents=1;verticalLabelPosition=bottom;shadow=0;dashed=0;align=center;html=1;verticalAlign=top;shape=mxgraph.electrical.inductors.inductor;fontFamily=Helvetica;fontSize=11;fontColor=default;labelBackgroundColor=default;" parent="1" vertex="1">
          <mxGeometry x="1770" y="120" width="60" height="40" as="geometry" />
        </mxCell>
        <mxCell id="P4XDhaOBuuw1px-TDpi_-5" value="" style="pointerEvents=1;verticalLabelPosition=bottom;shadow=0;dashed=0;align=center;html=1;verticalAlign=top;shape=mxgraph.electrical.electro-mechanical.make_contact;fontFamily=Helvetica;fontSize=11;fontColor=default;labelBackgroundColor=default;" parent="1" vertex="1">
          <mxGeometry x="1760" y="80" width="80" height="20" as="geometry" />
        </mxCell>
        <mxCell id="P4XDhaOBuuw1px-TDpi_-6" style="edgeStyle=orthogonalEdgeStyle;rounded=0;orthogonalLoop=1;jettySize=auto;html=1;entryX=0;entryY=1;entryDx=0;entryDy=0;entryPerimeter=0;strokeColor=#005700;align=center;verticalAlign=middle;fontFamily=Helvetica;fontSize=11;fontColor=default;labelBackgroundColor=default;startArrow=oval;startFill=1;startSize=10;endArrow=oval;endFill=1;endSize=10;fillColor=#008a00;" parent="1" target="P4XDhaOBuuw1px-TDpi_-4" edge="1">
          <mxGeometry relative="1" as="geometry">
            <mxPoint x="1560" y="200" as="sourcePoint" />
          </mxGeometry>
        </mxCell>
        <mxCell id="P4XDhaOBuuw1px-TDpi_-8" value="" style="rounded=0;whiteSpace=wrap;html=1;fontFamily=Helvetica;fontSize=11;fontColor=default;labelBackgroundColor=default;fillColor=none;" parent="1" vertex="1">
          <mxGeometry x="2000" y="60" width="80" height="100" as="geometry" />
        </mxCell>
        <mxCell id="P4XDhaOBuuw1px-TDpi_-9" value="" style="pointerEvents=1;verticalLabelPosition=bottom;shadow=0;dashed=0;align=center;html=1;verticalAlign=top;shape=mxgraph.electrical.inductors.inductor;fontFamily=Helvetica;fontSize=11;fontColor=default;labelBackgroundColor=default;" parent="1" vertex="1">
          <mxGeometry x="2010" y="120" width="60" height="40" as="geometry" />
        </mxCell>
        <mxCell id="P4XDhaOBuuw1px-TDpi_-10" value="" style="pointerEvents=1;verticalLabelPosition=bottom;shadow=0;dashed=0;align=center;html=1;verticalAlign=top;shape=mxgraph.electrical.electro-mechanical.make_contact;fontFamily=Helvetica;fontSize=11;fontColor=default;labelBackgroundColor=default;" parent="1" vertex="1">
          <mxGeometry x="2000" y="80" width="80" height="20" as="geometry" />
        </mxCell>
        <mxCell id="P4XDhaOBuuw1px-TDpi_-7" style="edgeStyle=orthogonalEdgeStyle;rounded=0;orthogonalLoop=1;jettySize=auto;html=1;strokeColor=#005700;align=center;verticalAlign=middle;fontFamily=Helvetica;fontSize=11;fontColor=default;labelBackgroundColor=default;startArrow=oval;startFill=1;startSize=10;endArrow=oval;endFill=1;endSize=10;fillColor=#008a00;entryX=1;entryY=1;entryDx=0;entryDy=0;entryPerimeter=0;" parent="1" target="P4XDhaOBuuw1px-TDpi_-4" edge="1">
          <mxGeometry relative="1" as="geometry">
            <mxPoint x="1660" y="220.0000000000001" as="targetPoint" />
            <mxPoint x="1560" y="240" as="sourcePoint" />
            <Array as="points">
              <mxPoint x="1830" y="240" />
            </Array>
          </mxGeometry>
        </mxCell>
        <mxCell id="P4XDhaOBuuw1px-TDpi_-11" style="edgeStyle=orthogonalEdgeStyle;rounded=0;orthogonalLoop=1;jettySize=auto;html=1;entryX=0;entryY=1;entryDx=0;entryDy=0;entryPerimeter=0;strokeColor=#005700;align=center;verticalAlign=middle;fontFamily=Helvetica;fontSize=11;fontColor=default;labelBackgroundColor=default;startArrow=oval;startFill=1;startSize=10;endArrow=oval;endFill=1;endSize=10;fillColor=#008a00;" parent="1" target="P4XDhaOBuuw1px-TDpi_-9" edge="1">
          <mxGeometry relative="1" as="geometry">
            <mxPoint x="1560" y="320" as="sourcePoint" />
          </mxGeometry>
        </mxCell>
        <mxCell id="P4XDhaOBuuw1px-TDpi_-12" style="edgeStyle=orthogonalEdgeStyle;rounded=0;orthogonalLoop=1;jettySize=auto;html=1;entryX=1;entryY=1;entryDx=0;entryDy=0;entryPerimeter=0;strokeColor=#005700;align=center;verticalAlign=middle;fontFamily=Helvetica;fontSize=11;fontColor=default;labelBackgroundColor=default;startArrow=oval;startFill=1;startSize=10;endArrow=oval;endFill=1;endSize=10;fillColor=#008a00;" parent="1" target="P4XDhaOBuuw1px-TDpi_-9" edge="1">
          <mxGeometry relative="1" as="geometry">
            <mxPoint x="1560" y="360" as="sourcePoint" />
            <mxPoint x="1910.5" y="160.80000000000013" as="targetPoint" />
            <Array as="points">
              <mxPoint x="2070" y="360" />
              <mxPoint x="2070" y="160" />
            </Array>
          </mxGeometry>
        </mxCell>
        <mxCell id="P4XDhaOBuuw1px-TDpi_-14" value="" style="pointerEvents=1;verticalLabelPosition=bottom;shadow=0;dashed=0;align=center;html=1;verticalAlign=top;shape=mxgraph.electrical.signal_sources.signal_ground;fontFamily=Helvetica;fontSize=11;fontColor=default;labelBackgroundColor=default;rotation=90;" parent="1" vertex="1">
          <mxGeometry x="1400.5" y="225" width="45" height="30" as="geometry" />
        </mxCell>
        <mxCell id="P4XDhaOBuuw1px-TDpi_-20" value="" style="pointerEvents=1;verticalLabelPosition=bottom;shadow=0;dashed=0;align=center;html=1;verticalAlign=top;shape=mxgraph.electrical.signal_sources.signal_ground;fontFamily=Helvetica;fontSize=11;fontColor=default;labelBackgroundColor=default;rotation=90;" parent="1" vertex="1">
          <mxGeometry x="1400.5" y="345" width="45" height="30" as="geometry" />
        </mxCell>
        <mxCell id="P4XDhaOBuuw1px-TDpi_-22" value="AIR+" style="text;html=1;align=center;verticalAlign=middle;whiteSpace=wrap;rounded=0;fontFamily=Helvetica;fontSize=15;fontColor=default;labelBackgroundColor=default;" parent="1" vertex="1">
          <mxGeometry x="1770" y="40" width="60" height="20" as="geometry" />
        </mxCell>
        <mxCell id="P4XDhaOBuuw1px-TDpi_-23" value="Precharge Relay" style="text;html=1;align=center;verticalAlign=middle;whiteSpace=wrap;rounded=0;fontFamily=Helvetica;fontSize=15;fontColor=default;labelBackgroundColor=default;" parent="1" vertex="1">
          <mxGeometry x="1980.5" y="40" width="120" height="20" as="geometry" />
        </mxCell>
        <mxCell id="P4XDhaOBuuw1px-TDpi_-36" value="" style="rounded=0;whiteSpace=wrap;html=1;fontFamily=Helvetica;fontSize=11;fontColor=default;labelBackgroundColor=default;fillColor=none;rotation=-90;" parent="1" vertex="1">
          <mxGeometry x="1310.5" y="310" width="80" height="60" as="geometry" />
        </mxCell>
        <mxCell id="P4XDhaOBuuw1px-TDpi_-37" value="XH 2pin" style="text;html=1;align=center;verticalAlign=middle;whiteSpace=wrap;rounded=0;fontFamily=Helvetica;fontSize=15;fontColor=default;labelBackgroundColor=default;rotation=-90;" parent="1" vertex="1">
          <mxGeometry x="1320" y="329.2" width="80" height="20" as="geometry" />
        </mxCell>
        <mxCell id="P4XDhaOBuuw1px-TDpi_-38" value="1" style="text;html=1;align=center;verticalAlign=middle;whiteSpace=wrap;rounded=0;fontFamily=Helvetica;fontSize=15;fontColor=default;labelBackgroundColor=default;" parent="1" vertex="1">
          <mxGeometry x="1330.5" y="310" width="20" height="20" as="geometry" />
        </mxCell>
        <mxCell id="P4XDhaOBuuw1px-TDpi_-39" value="2" style="text;html=1;align=center;verticalAlign=middle;whiteSpace=wrap;rounded=0;fontFamily=Helvetica;fontSize=15;fontColor=default;labelBackgroundColor=default;" parent="1" vertex="1">
          <mxGeometry x="1330.5" y="350" width="20" height="20" as="geometry" />
        </mxCell>
        <mxCell id="P4XDhaOBuuw1px-TDpi_-2" style="edgeStyle=orthogonalEdgeStyle;rounded=0;orthogonalLoop=1;jettySize=auto;html=1;entryX=0.75;entryY=0;entryDx=0;entryDy=0;strokeColor=#005700;align=center;verticalAlign=middle;fontFamily=Helvetica;fontSize=11;fontColor=default;labelBackgroundColor=default;startArrow=oval;startFill=1;startSize=10;endArrow=oval;endFill=1;endSize=10;fillColor=#008a00;" parent="1" target="P4XDhaOBuuw1px-TDpi_-36" edge="1">
          <mxGeometry relative="1" as="geometry">
            <mxPoint x="1160" y="400" as="sourcePoint" />
            <Array as="points">
              <mxPoint x="1280" y="401" />
              <mxPoint x="1280" y="320" />
            </Array>
          </mxGeometry>
        </mxCell>
        <mxCell id="P4XDhaOBuuw1px-TDpi_-42" value="1" style="text;html=1;align=center;verticalAlign=middle;whiteSpace=wrap;rounded=0;fontFamily=Helvetica;fontSize=15;fontColor=default;labelBackgroundColor=default;" parent="1" vertex="1">
          <mxGeometry x="1530" y="309.2" width="20" height="20" as="geometry" />
        </mxCell>
        <mxCell id="P4XDhaOBuuw1px-TDpi_-43" value="2" style="text;html=1;align=center;verticalAlign=middle;whiteSpace=wrap;rounded=0;fontFamily=Helvetica;fontSize=15;fontColor=default;labelBackgroundColor=default;" parent="1" vertex="1">
          <mxGeometry x="1530" y="349.2" width="20" height="20" as="geometry" />
        </mxCell>
        <mxCell id="P4XDhaOBuuw1px-TDpi_-44" value="1" style="text;html=1;align=center;verticalAlign=middle;whiteSpace=wrap;rounded=0;fontFamily=Helvetica;fontSize=15;fontColor=default;labelBackgroundColor=default;" parent="1" vertex="1">
          <mxGeometry x="1530" y="190" width="20" height="20" as="geometry" />
        </mxCell>
        <mxCell id="P4XDhaOBuuw1px-TDpi_-45" value="2" style="text;html=1;align=center;verticalAlign=middle;whiteSpace=wrap;rounded=0;fontFamily=Helvetica;fontSize=15;fontColor=default;labelBackgroundColor=default;" parent="1" vertex="1">
          <mxGeometry x="1530" y="230" width="20" height="20" as="geometry" />
        </mxCell>
        <mxCell id="P4XDhaOBuuw1px-TDpi_-46" value="XH 2pin" style="text;html=1;align=center;verticalAlign=middle;whiteSpace=wrap;rounded=0;fontFamily=Helvetica;fontSize=15;fontColor=default;labelBackgroundColor=default;rotation=-90;" parent="1" vertex="1">
          <mxGeometry x="1480" y="330" width="80" height="20" as="geometry" />
        </mxCell>
        <mxCell id="P4XDhaOBuuw1px-TDpi_-47" value="XH 2pin" style="text;html=1;align=center;verticalAlign=middle;whiteSpace=wrap;rounded=0;fontFamily=Helvetica;fontSize=15;fontColor=default;labelBackgroundColor=default;rotation=-90;" parent="1" vertex="1">
          <mxGeometry x="1480.5" y="210" width="80" height="20" as="geometry" />
        </mxCell>
        <mxCell id="P4XDhaOBuuw1px-TDpi_-51" value="" style="rounded=0;whiteSpace=wrap;html=1;fontFamily=Helvetica;fontSize=11;fontColor=default;labelBackgroundColor=default;fillColor=none;" parent="1" vertex="1">
          <mxGeometry x="1760" y="-140" width="80" height="100" as="geometry" />
        </mxCell>
        <mxCell id="P4XDhaOBuuw1px-TDpi_-65" style="edgeStyle=orthogonalEdgeStyle;rounded=0;orthogonalLoop=1;jettySize=auto;html=1;exitX=1;exitY=1;exitDx=0;exitDy=0;exitPerimeter=0;align=center;verticalAlign=middle;fontFamily=Helvetica;fontSize=11;fontColor=default;labelBackgroundColor=default;startArrow=oval;startFill=1;startSize=10;endArrow=oval;endFill=1;endSize=10;" parent="1" source="P4XDhaOBuuw1px-TDpi_-52" edge="1">
          <mxGeometry relative="1" as="geometry">
            <mxPoint x="1159.9999999999998" y="440.0000000000002" as="targetPoint" />
            <Array as="points">
              <mxPoint x="1830" y="40" />
              <mxPoint x="1240" y="40" />
              <mxPoint x="1240" y="440" />
            </Array>
          </mxGeometry>
        </mxCell>
        <mxCell id="P4XDhaOBuuw1px-TDpi_-52" value="" style="pointerEvents=1;verticalLabelPosition=bottom;shadow=0;dashed=0;align=center;html=1;verticalAlign=top;shape=mxgraph.electrical.inductors.inductor;fontFamily=Helvetica;fontSize=11;fontColor=default;labelBackgroundColor=default;" parent="1" vertex="1">
          <mxGeometry x="1770" y="-80" width="60" height="40" as="geometry" />
        </mxCell>
        <mxCell id="P4XDhaOBuuw1px-TDpi_-53" value="" style="pointerEvents=1;verticalLabelPosition=bottom;shadow=0;dashed=0;align=center;html=1;verticalAlign=top;shape=mxgraph.electrical.electro-mechanical.make_contact;fontFamily=Helvetica;fontSize=11;fontColor=default;labelBackgroundColor=default;" parent="1" vertex="1">
          <mxGeometry x="1760" y="-120" width="80" height="20" as="geometry" />
        </mxCell>
        <mxCell id="P4XDhaOBuuw1px-TDpi_-54" value="AIR-" style="text;html=1;align=center;verticalAlign=middle;whiteSpace=wrap;rounded=0;fontFamily=Helvetica;fontSize=15;fontColor=default;labelBackgroundColor=default;" parent="1" vertex="1">
          <mxGeometry x="1770" y="-160" width="60" height="20" as="geometry" />
        </mxCell>
        <mxCell id="P4XDhaOBuuw1px-TDpi_-57" style="edgeStyle=orthogonalEdgeStyle;rounded=0;orthogonalLoop=1;jettySize=auto;html=1;entryX=0;entryY=1;entryDx=0;entryDy=0;entryPerimeter=0;strokeColor=#005700;align=center;verticalAlign=middle;fontFamily=Helvetica;fontSize=11;fontColor=default;labelBackgroundColor=default;startArrow=oval;startFill=1;startSize=10;endArrow=oval;endFill=1;endSize=10;fillColor=#008a00;" parent="1" target="P4XDhaOBuuw1px-TDpi_-52" edge="1">
          <mxGeometry relative="1" as="geometry">
            <mxPoint x="1160" y="400" as="sourcePoint" />
            <Array as="points">
              <mxPoint x="1160" y="380" />
              <mxPoint x="1200" y="380" />
              <mxPoint x="1200" />
              <mxPoint x="1770" />
            </Array>
          </mxGeometry>
        </mxCell>
        <mxCell id="P4XDhaOBuuw1px-TDpi_-58" value="" style="rounded=0;whiteSpace=wrap;html=1;fontFamily=Helvetica;fontSize=11;fontColor=default;labelBackgroundColor=default;fillColor=none;rotation=90;" parent="1" vertex="1">
          <mxGeometry x="1450" y="470" width="80" height="100" as="geometry" />
        </mxCell>
        <mxCell id="P4XDhaOBuuw1px-TDpi_-64" style="edgeStyle=orthogonalEdgeStyle;rounded=0;orthogonalLoop=1;jettySize=auto;html=1;align=center;verticalAlign=middle;fontFamily=Helvetica;fontSize=11;fontColor=default;labelBackgroundColor=default;startArrow=oval;startFill=1;startSize=10;endArrow=oval;endFill=1;endSize=10;" parent="1" edge="1">
          <mxGeometry relative="1" as="geometry">
            <mxPoint x="1160" y="440" as="targetPoint" />
            <Array as="points">
              <mxPoint x="1160" y="550" />
            </Array>
            <mxPoint x="1420" y="550" as="sourcePoint" />
          </mxGeometry>
        </mxCell>
        <mxCell id="P4XDhaOBuuw1px-TDpi_-60" value="" style="pointerEvents=1;verticalLabelPosition=bottom;shadow=0;dashed=0;align=center;html=1;verticalAlign=top;shape=mxgraph.electrical.electro-mechanical.make_contact;fontFamily=Helvetica;fontSize=11;fontColor=default;labelBackgroundColor=default;rotation=90;" parent="1" vertex="1">
          <mxGeometry x="1470" y="510" width="80" height="20" as="geometry" />
        </mxCell>
        <mxCell id="P4XDhaOBuuw1px-TDpi_-61" value="Discharge Relay" style="text;html=1;align=center;verticalAlign=middle;whiteSpace=wrap;rounded=0;fontFamily=Helvetica;fontSize=15;fontColor=default;labelBackgroundColor=default;" parent="1" vertex="1">
          <mxGeometry x="1430" y="460" width="120" height="20" as="geometry" />
        </mxCell>
        <mxCell id="P4XDhaOBuuw1px-TDpi_-66" value="ACC" style="text;html=1;align=center;verticalAlign=middle;whiteSpace=wrap;rounded=0;fontFamily=Helvetica;fontSize=15;fontColor=default;labelBackgroundColor=default;" parent="1" vertex="1">
          <mxGeometry x="1890" y="-220" width="60" height="20" as="geometry" />
        </mxCell>
        <mxCell id="8RJE6l0gULrbCF2kqVGt-1" value="Main ECU Board" style="text;html=1;align=center;verticalAlign=middle;whiteSpace=wrap;rounded=0;fontFamily=Helvetica;fontSize=15;fontColor=default;labelBackgroundColor=default;" parent="1" vertex="1">
          <mxGeometry x="1360" y="140" width="160" height="20" as="geometry" />
        </mxCell>
        <mxCell id="8RJE6l0gULrbCF2kqVGt-2" value="1" style="ellipse;whiteSpace=wrap;html=1;aspect=fixed;fontSize=12;" parent="1" vertex="1">
          <mxGeometry x="90" y="420" width="20" height="20" as="geometry" />
        </mxCell>
        <mxCell id="8RJE6l0gULrbCF2kqVGt-3" value="2" style="ellipse;whiteSpace=wrap;html=1;aspect=fixed;fontSize=12;" parent="1" vertex="1">
          <mxGeometry x="90" y="520" width="20" height="20" as="geometry" />
        </mxCell>
        <mxCell id="8RJE6l0gULrbCF2kqVGt-4" value="3" style="ellipse;whiteSpace=wrap;html=1;aspect=fixed;fontSize=12;" parent="1" vertex="1">
          <mxGeometry x="190" y="330" width="20" height="20" as="geometry" />
        </mxCell>
        <mxCell id="8RJE6l0gULrbCF2kqVGt-5" value="4" style="ellipse;whiteSpace=wrap;html=1;aspect=fixed;fontSize=12;" parent="1" vertex="1">
          <mxGeometry x="310" y="330" width="20" height="20" as="geometry" />
        </mxCell>
        <mxCell id="8RJE6l0gULrbCF2kqVGt-6" value="5" style="ellipse;whiteSpace=wrap;html=1;aspect=fixed;fontSize=12;" parent="1" vertex="1">
          <mxGeometry x="510" y="350" width="20" height="20" as="geometry" />
        </mxCell>
        <mxCell id="8RJE6l0gULrbCF2kqVGt-7" value="6" style="ellipse;whiteSpace=wrap;html=1;aspect=fixed;fontSize=12;" parent="1" vertex="1">
          <mxGeometry x="510" y="390" width="20" height="20" as="geometry" />
        </mxCell>
        <mxCell id="8RJE6l0gULrbCF2kqVGt-8" value="7" style="ellipse;whiteSpace=wrap;html=1;aspect=fixed;fontSize=12;" parent="1" vertex="1">
          <mxGeometry x="590" y="350" width="20" height="20" as="geometry" />
        </mxCell>
        <mxCell id="8RJE6l0gULrbCF2kqVGt-9" value="8" style="ellipse;whiteSpace=wrap;html=1;aspect=fixed;fontSize=12;" parent="1" vertex="1">
          <mxGeometry x="590" y="390" width="20" height="20" as="geometry" />
        </mxCell>
        <mxCell id="8RJE6l0gULrbCF2kqVGt-10" value="9" style="ellipse;whiteSpace=wrap;html=1;aspect=fixed;fontSize=12;" parent="1" vertex="1">
          <mxGeometry x="830" y="330" width="20" height="20" as="geometry" />
        </mxCell>
        <mxCell id="8RJE6l0gULrbCF2kqVGt-12" value="10" style="ellipse;whiteSpace=wrap;html=1;aspect=fixed;fontSize=12;" parent="1" vertex="1">
          <mxGeometry x="910" y="330" width="20" height="20" as="geometry" />
        </mxCell>
        <mxCell id="8RJE6l0gULrbCF2kqVGt-13" value="11" style="ellipse;whiteSpace=wrap;html=1;aspect=fixed;fontSize=12;" parent="1" vertex="1">
          <mxGeometry x="1030" y="350" width="20" height="20" as="geometry" />
        </mxCell>
        <mxCell id="8RJE6l0gULrbCF2kqVGt-14" value="12" style="ellipse;whiteSpace=wrap;html=1;aspect=fixed;fontSize=12;" parent="1" vertex="1">
          <mxGeometry x="1030" y="390" width="20" height="20" as="geometry" />
        </mxCell>
        <mxCell id="8RJE6l0gULrbCF2kqVGt-15" value="13" style="ellipse;whiteSpace=wrap;html=1;aspect=fixed;fontSize=12;" parent="1" vertex="1">
          <mxGeometry x="1030" y="430" width="20" height="20" as="geometry" />
        </mxCell>
        <mxCell id="8RJE6l0gULrbCF2kqVGt-16" value="14" style="ellipse;whiteSpace=wrap;html=1;aspect=fixed;fontSize=12;" parent="1" vertex="1">
          <mxGeometry x="1110" y="350" width="20" height="20" as="geometry" />
        </mxCell>
        <mxCell id="8RJE6l0gULrbCF2kqVGt-17" value="15" style="ellipse;whiteSpace=wrap;html=1;aspect=fixed;fontSize=12;" parent="1" vertex="1">
          <mxGeometry x="1110" y="390" width="20" height="20" as="geometry" />
        </mxCell>
        <mxCell id="8RJE6l0gULrbCF2kqVGt-18" value="16" style="ellipse;whiteSpace=wrap;html=1;aspect=fixed;fontSize=12;" parent="1" vertex="1">
          <mxGeometry x="1110" y="430" width="20" height="20" as="geometry" />
        </mxCell>
        <mxCell id="8RJE6l0gULrbCF2kqVGt-19" value="16" style="ellipse;whiteSpace=wrap;html=1;aspect=fixed;fontSize=12;" parent="1" vertex="1">
          <mxGeometry x="1289.5" y="290" width="20" height="20" as="geometry" />
        </mxCell>
        <mxCell id="8RJE6l0gULrbCF2kqVGt-20" value="17" style="ellipse;whiteSpace=wrap;html=1;aspect=fixed;fontSize=12;" parent="1" vertex="1">
          <mxGeometry x="1570" y="170" width="20" height="20" as="geometry" />
        </mxCell>
        <mxCell id="8RJE6l0gULrbCF2kqVGt-21" value="19" style="ellipse;whiteSpace=wrap;html=1;aspect=fixed;fontSize=12;" parent="1" vertex="1">
          <mxGeometry x="1570" y="290" width="20" height="20" as="geometry" />
        </mxCell>
        <mxCell id="8RJE6l0gULrbCF2kqVGt-22" value="18" style="ellipse;whiteSpace=wrap;html=1;aspect=fixed;fontSize=12;" parent="1" vertex="1">
          <mxGeometry x="1570" y="250" width="20" height="20" as="geometry" />
        </mxCell>
        <mxCell id="8RJE6l0gULrbCF2kqVGt-23" value="20" style="ellipse;whiteSpace=wrap;html=1;aspect=fixed;fontSize=12;" parent="1" vertex="1">
          <mxGeometry x="1570" y="370" width="20" height="20" as="geometry" />
        </mxCell>
        <mxCell id="8RJE6l0gULrbCF2kqVGt-24" value="21" style="ellipse;whiteSpace=wrap;html=1;aspect=fixed;fontSize=12;" parent="1" vertex="1">
          <mxGeometry x="1410" y="460" width="20" height="20" as="geometry" />
        </mxCell>
        <mxCell id="8RJE6l0gULrbCF2kqVGt-25" value="22" style="ellipse;whiteSpace=wrap;html=1;aspect=fixed;fontSize=12;" parent="1" vertex="1">
          <mxGeometry x="1410" y="560" width="20" height="20" as="geometry" />
        </mxCell>
        <mxCell id="8RJE6l0gULrbCF2kqVGt-26" value="23" style="ellipse;whiteSpace=wrap;html=1;aspect=fixed;fontSize=12;" parent="1" vertex="1">
          <mxGeometry x="1610" y="570" width="20" height="20" as="geometry" />
        </mxCell>
        <mxCell id="8RJE6l0gULrbCF2kqVGt-27" value="24" style="ellipse;whiteSpace=wrap;html=1;aspect=fixed;fontSize=12;" parent="1" vertex="1">
          <mxGeometry x="1690" y="570" width="20" height="20" as="geometry" />
        </mxCell>
        <mxCell id="8RJE6l0gULrbCF2kqVGt-28" value="25" style="ellipse;whiteSpace=wrap;html=1;aspect=fixed;fontSize=12;" parent="1" vertex="1">
          <mxGeometry x="1740" y="170" width="20" height="20" as="geometry" />
        </mxCell>
        <mxCell id="8RJE6l0gULrbCF2kqVGt-29" value="26" style="ellipse;whiteSpace=wrap;html=1;aspect=fixed;fontSize=12;" parent="1" vertex="1">
          <mxGeometry x="1840" y="170" width="20" height="20" as="geometry" />
        </mxCell>
        <mxCell id="8RJE6l0gULrbCF2kqVGt-31" value="27" style="ellipse;whiteSpace=wrap;html=1;aspect=fixed;fontSize=12;" parent="1" vertex="1">
          <mxGeometry x="1740" y="-30" width="20" height="20" as="geometry" />
        </mxCell>
        <mxCell id="8RJE6l0gULrbCF2kqVGt-32" value="28" style="ellipse;whiteSpace=wrap;html=1;aspect=fixed;fontSize=12;" parent="1" vertex="1">
          <mxGeometry x="1840" y="-30" width="20" height="20" as="geometry" />
        </mxCell>
        <mxCell id="8RJE6l0gULrbCF2kqVGt-33" value="29" style="ellipse;whiteSpace=wrap;html=1;aspect=fixed;fontSize=12;" parent="1" vertex="1">
          <mxGeometry x="1980" y="170" width="20" height="20" as="geometry" />
        </mxCell>
        <mxCell id="8RJE6l0gULrbCF2kqVGt-34" value="30" style="ellipse;whiteSpace=wrap;html=1;aspect=fixed;fontSize=12;" parent="1" vertex="1">
          <mxGeometry x="2080" y="170" width="20" height="20" as="geometry" />
        </mxCell>
        <mxCell id="8RJE6l0gULrbCF2kqVGt-35" value="31" style="ellipse;whiteSpace=wrap;html=1;aspect=fixed;fontSize=12;" parent="1" vertex="1">
          <mxGeometry x="990" y="650" width="20" height="20" as="geometry" />
        </mxCell>
        <mxCell id="8RJE6l0gULrbCF2kqVGt-36" value="32" style="ellipse;whiteSpace=wrap;html=1;aspect=fixed;fontSize=12;" parent="1" vertex="1">
          <mxGeometry x="1070" y="650" width="20" height="20" as="geometry" />
        </mxCell>
        <mxCell id="8RJE6l0gULrbCF2kqVGt-37" value="33" style="ellipse;whiteSpace=wrap;html=1;aspect=fixed;fontSize=12;" parent="1" vertex="1">
          <mxGeometry x="1230" y="650" width="20" height="20" as="geometry" />
        </mxCell>
        <mxCell id="8RJE6l0gULrbCF2kqVGt-38" value="34" style="ellipse;whiteSpace=wrap;html=1;aspect=fixed;fontSize=12;" parent="1" vertex="1">
          <mxGeometry x="1310" y="650" width="20" height="20" as="geometry" />
        </mxCell>
        <mxCell id="8RJE6l0gULrbCF2kqVGt-39" value="35" style="ellipse;whiteSpace=wrap;html=1;aspect=fixed;fontSize=12;" parent="1" vertex="1">
          <mxGeometry x="1530" y="810" width="20" height="20" as="geometry" />
        </mxCell>
        <mxCell id="8RJE6l0gULrbCF2kqVGt-40" value="36" style="ellipse;whiteSpace=wrap;html=1;aspect=fixed;fontSize=12;" parent="1" vertex="1">
          <mxGeometry x="1450" y="810" width="20" height="20" as="geometry" />
        </mxCell>
        <mxCell id="8RJE6l0gULrbCF2kqVGt-41" value="37" style="ellipse;whiteSpace=wrap;html=1;aspect=fixed;fontSize=12;" parent="1" vertex="1">
          <mxGeometry x="1130" y="810" width="20" height="20" as="geometry" />
        </mxCell>
        <mxCell id="8RJE6l0gULrbCF2kqVGt-42" value="38" style="ellipse;whiteSpace=wrap;html=1;aspect=fixed;fontSize=12;" parent="1" vertex="1">
          <mxGeometry x="1010" y="810" width="20" height="20" as="geometry" />
        </mxCell>
        <mxCell id="8RJE6l0gULrbCF2kqVGt-43" value="39" style="ellipse;whiteSpace=wrap;html=1;aspect=fixed;fontSize=12;" parent="1" vertex="1">
          <mxGeometry x="870" y="810" width="20" height="20" as="geometry" />
        </mxCell>
        <mxCell id="8RJE6l0gULrbCF2kqVGt-44" value="40" style="ellipse;whiteSpace=wrap;html=1;aspect=fixed;fontSize=12;" parent="1" vertex="1">
          <mxGeometry x="790" y="810" width="20" height="20" as="geometry" />
        </mxCell>
        <mxCell id="8RJE6l0gULrbCF2kqVGt-45" value="41" style="ellipse;whiteSpace=wrap;html=1;aspect=fixed;fontSize=12;" parent="1" vertex="1">
          <mxGeometry x="650" y="810" width="20" height="20" as="geometry" />
        </mxCell>
        <mxCell id="8RJE6l0gULrbCF2kqVGt-47" value="42" style="ellipse;whiteSpace=wrap;html=1;aspect=fixed;fontSize=12;" parent="1" vertex="1">
          <mxGeometry x="570" y="810" width="20" height="20" as="geometry" />
        </mxCell>
        <mxCell id="8RJE6l0gULrbCF2kqVGt-49" value="43" style="ellipse;whiteSpace=wrap;html=1;aspect=fixed;fontSize=12;" parent="1" vertex="1">
          <mxGeometry x="670" y="650" width="20" height="20" as="geometry" />
        </mxCell>
        <mxCell id="8RJE6l0gULrbCF2kqVGt-50" value="44" style="ellipse;whiteSpace=wrap;html=1;aspect=fixed;fontSize=12;" parent="1" vertex="1">
          <mxGeometry x="750" y="650" width="20" height="20" as="geometry" />
        </mxCell>
        <mxCell id="3WGOwwcut3iYltDQ6Z72-1" value="端子台1" style="text;html=1;align=center;verticalAlign=middle;whiteSpace=wrap;rounded=0;fontFamily=Helvetica;fontSize=15;fontColor=default;labelBackgroundColor=default;" parent="1" vertex="1">
          <mxGeometry x="520" y="320" width="80" height="20" as="geometry" />
        </mxCell>
        <mxCell id="3WGOwwcut3iYltDQ6Z72-3" value="端子台2" style="text;html=1;align=center;verticalAlign=middle;whiteSpace=wrap;rounded=0;fontFamily=Helvetica;fontSize=15;fontColor=default;labelBackgroundColor=default;" parent="1" vertex="1">
          <mxGeometry x="1040" y="300" width="80" height="20" as="geometry" />
        </mxCell>
        <mxCell id="B4QqCGR3x0TmPXGoTLsY-1" style="edgeStyle=orthogonalEdgeStyle;rounded=0;orthogonalLoop=1;jettySize=auto;html=1;align=center;verticalAlign=middle;fontFamily=Helvetica;fontSize=11;fontColor=default;labelBackgroundColor=default;startArrow=none;startFill=0;startSize=10;endArrow=none;endFill=0;endSize=10;exitX=0;exitY=1;exitDx=0;exitDy=0;exitPerimeter=0;" parent="1" source="P4XDhaOBuuw1px-TDpi_-59" edge="1">
          <mxGeometry relative="1" as="geometry">
            <mxPoint x="1420" y="490" as="targetPoint" />
          </mxGeometry>
        </mxCell>
        <mxCell id="B4QqCGR3x0TmPXGoTLsY-2" style="edgeStyle=orthogonalEdgeStyle;rounded=0;orthogonalLoop=1;jettySize=auto;html=1;exitX=1;exitY=1;exitDx=0;exitDy=0;exitPerimeter=0;align=center;verticalAlign=middle;fontFamily=Helvetica;fontSize=11;fontColor=default;labelBackgroundColor=default;startArrow=none;startFill=0;startSize=10;endArrow=none;endFill=0;endSize=10;" parent="1" source="P4XDhaOBuuw1px-TDpi_-59" edge="1">
          <mxGeometry relative="1" as="geometry">
            <mxPoint x="1420" y="550" as="targetPoint" />
            <Array as="points">
              <mxPoint x="1420" y="550" />
              <mxPoint x="1420" y="550" />
            </Array>
          </mxGeometry>
        </mxCell>
        <mxCell id="P4XDhaOBuuw1px-TDpi_-59" value="" style="pointerEvents=1;verticalLabelPosition=bottom;shadow=0;dashed=0;align=center;html=1;verticalAlign=top;shape=mxgraph.electrical.inductors.inductor;fontFamily=Helvetica;fontSize=11;fontColor=default;labelBackgroundColor=default;rotation=90;" parent="1" vertex="1">
          <mxGeometry x="1430" y="500" width="60" height="40" as="geometry" />
        </mxCell>
        <mxCell id="P4XDhaOBuuw1px-TDpi_-63" style="edgeStyle=orthogonalEdgeStyle;rounded=0;orthogonalLoop=1;jettySize=auto;html=1;strokeColor=#005700;align=center;verticalAlign=middle;fontFamily=Helvetica;fontSize=11;fontColor=default;labelBackgroundColor=default;startArrow=oval;startFill=1;startSize=10;endArrow=oval;endFill=1;endSize=10;fillColor=#008a00;" parent="1" edge="1">
          <mxGeometry relative="1" as="geometry">
            <mxPoint x="1160" y="400" as="targetPoint" />
            <Array as="points">
              <mxPoint x="1280" y="490" />
              <mxPoint x="1280" y="420" />
              <mxPoint x="1160" y="420" />
            </Array>
            <mxPoint x="1420" y="490" as="sourcePoint" />
          </mxGeometry>
        </mxCell>
        <mxCell id="B4QqCGR3x0TmPXGoTLsY-5" style="edgeStyle=orthogonalEdgeStyle;rounded=0;orthogonalLoop=1;jettySize=auto;html=1;exitX=0;exitY=0.5;exitDx=0;exitDy=0;exitPerimeter=0;strokeColor=default;align=center;verticalAlign=middle;fontFamily=Helvetica;fontSize=11;fontColor=default;labelBackgroundColor=default;startArrow=none;startFill=0;startSize=10;endArrow=none;endFill=0;endSize=10;" parent="1" source="B4QqCGR3x0TmPXGoTLsY-3" edge="1">
          <mxGeometry relative="1" as="geometry">
            <mxPoint x="1420.0384615384614" y="550" as="targetPoint" />
          </mxGeometry>
        </mxCell>
        <mxCell id="B4QqCGR3x0TmPXGoTLsY-3" value="D1" style="pointerEvents=1;fillColor=strokeColor;verticalLabelPosition=top;shadow=0;dashed=0;align=center;html=1;verticalAlign=bottom;shape=mxgraph.electrical.diodes.diode;fontFamily=Helvetica;fontSize=15;fontColor=default;labelBackgroundColor=default;rotation=-90;horizontal=1;spacingLeft=0;labelPosition=center;" parent="1" vertex="1">
          <mxGeometry x="1400" y="510" width="40" height="20" as="geometry" />
        </mxCell>
      </root>
    </mxGraphModel>
  </diagram>
  <diagram id="QWqrK7C7WNwiK7nhwsXW" name="TractiveSystem">
    <mxGraphModel dx="2072" dy="1212" grid="1" gridSize="10" guides="1" tooltips="1" connect="1" arrows="1" fold="1" page="1" pageScale="1" pageWidth="827" pageHeight="1169" math="0" shadow="0">
      <root>
        <mxCell id="0" />
        <mxCell id="1" parent="0" />
        <mxCell id="_W1T44VGCUn7KQ4x7r4C-16" value="" style="rounded=0;whiteSpace=wrap;html=1;fillColor=none;dashed=1;dashPattern=8 8;" parent="1" vertex="1">
          <mxGeometry x="80" y="320" width="880" height="560" as="geometry" />
        </mxCell>
        <mxCell id="O4Nfc_O7mW6tlxrwmFaQ-14" value="" style="rounded=0;whiteSpace=wrap;html=1;fillColor=none;dashed=1;points=[[0,0,0,0,0],[0,0.25,0,0,0],[0,0.5,0,0,0],[0,0.75,0,0,0],[0,1,0,0,0],[0.2,0,0,0,0],[0.25,0,0,0,0],[0.25,1,0,0,0],[0.4,0,0,0,0],[0.5,0,0,0,0],[0.5,1,0,0,0],[0.6,0,0,0,0],[0.75,0,0,0,0],[0.75,1,0,0,0],[0.8,0,0,0,0],[1,0,0,0,0],[1,0.25,0,0,0],[1,0.5,0,0,0],[1,0.75,0,0,0],[1,1,0,0,0]];" parent="1" vertex="1">
          <mxGeometry x="440" y="800" width="200" height="100" as="geometry" />
        </mxCell>
        <mxCell id="blXHy7IrOAy7iJBvozp8-1" value="" style="rounded=0;whiteSpace=wrap;html=1;fillColor=none;dashed=1;dashPattern=8 8;" parent="1" vertex="1">
          <mxGeometry x="1080" y="800" width="200" height="160" as="geometry" />
        </mxCell>
        <mxCell id="blXHy7IrOAy7iJBvozp8-2" value="10k" style="pointerEvents=1;verticalLabelPosition=top;shadow=0;dashed=0;align=center;html=1;verticalAlign=bottom;shape=mxgraph.electrical.resistors.resistor_2;fontSize=15;labelPosition=center;" parent="1" vertex="1">
          <mxGeometry x="810" y="510" width="100" height="20" as="geometry" />
        </mxCell>
        <mxCell id="blXHy7IrOAy7iJBvozp8-3" value="10k" style="pointerEvents=1;verticalLabelPosition=top;shadow=0;dashed=0;align=center;html=1;verticalAlign=bottom;shape=mxgraph.electrical.resistors.resistor_2;fontSize=15;labelPosition=center;" parent="1" vertex="1">
          <mxGeometry x="810" y="630" width="100" height="20" as="geometry" />
        </mxCell>
        <mxCell id="O4Nfc_O7mW6tlxrwmFaQ-1" value="" style="rounded=0;whiteSpace=wrap;html=1;fontFamily=Helvetica;fontSize=11;fontColor=default;labelBackgroundColor=default;fillColor=none;rotation=-90;" parent="1" vertex="1">
          <mxGeometry x="250" y="510" width="80" height="100" as="geometry" />
        </mxCell>
        <mxCell id="O4Nfc_O7mW6tlxrwmFaQ-2" value="" style="pointerEvents=1;verticalLabelPosition=bottom;shadow=0;dashed=0;align=center;html=1;verticalAlign=top;shape=mxgraph.electrical.inductors.inductor;fontFamily=Helvetica;fontSize=11;fontColor=default;labelBackgroundColor=default;rotation=-90;" parent="1" vertex="1">
          <mxGeometry x="290" y="540" width="60" height="40" as="geometry" />
        </mxCell>
        <mxCell id="O4Nfc_O7mW6tlxrwmFaQ-3" value="" style="pointerEvents=1;verticalLabelPosition=bottom;shadow=0;dashed=0;align=center;html=1;verticalAlign=top;shape=mxgraph.electrical.electro-mechanical.make_contact;fontFamily=Helvetica;fontSize=11;fontColor=default;labelBackgroundColor=default;rotation=-90;" parent="1" vertex="1">
          <mxGeometry x="220" y="550" width="80" height="20" as="geometry" />
        </mxCell>
        <mxCell id="O4Nfc_O7mW6tlxrwmFaQ-6" value="" style="endArrow=none;html=1;rounded=0;strokeWidth=5;strokeColor=#FF8000;" parent="1" edge="1">
          <mxGeometry width="50" height="50" relative="1" as="geometry">
            <mxPoint x="480" y="960" as="sourcePoint" />
            <mxPoint x="480" y="780" as="targetPoint" />
          </mxGeometry>
        </mxCell>
        <mxCell id="O4Nfc_O7mW6tlxrwmFaQ-7" value="" style="endArrow=none;html=1;rounded=0;jumpSize=6;strokeWidth=5;fillColor=#fa6800;strokeColor=#FF8000;" parent="1" edge="1">
          <mxGeometry width="50" height="50" relative="1" as="geometry">
            <mxPoint x="600" y="960" as="sourcePoint" />
            <mxPoint x="600" y="780" as="targetPoint" />
          </mxGeometry>
        </mxCell>
        <mxCell id="O4Nfc_O7mW6tlxrwmFaQ-8" value="" style="endArrow=none;html=1;rounded=0;strokeWidth=5;fillColor=#f0a30a;strokeColor=#FF8000;" parent="1" edge="1">
          <mxGeometry width="50" height="50" relative="1" as="geometry">
            <mxPoint x="480" y="960" as="sourcePoint" />
            <mxPoint x="600" y="960" as="targetPoint" />
          </mxGeometry>
        </mxCell>
        <mxCell id="O4Nfc_O7mW6tlxrwmFaQ-9" value="" style="endArrow=none;html=1;rounded=0;exitX=0.25;exitY=0;exitDx=0;exitDy=0;" parent="1" source="8te2NEno-c-hepWdQkUT-2" edge="1">
          <mxGeometry width="50" height="50" relative="1" as="geometry">
            <mxPoint x="520" y="820" as="sourcePoint" />
            <mxPoint x="520" y="780" as="targetPoint" />
          </mxGeometry>
        </mxCell>
        <mxCell id="O4Nfc_O7mW6tlxrwmFaQ-10" value="" style="endArrow=none;html=1;rounded=0;exitX=0.75;exitY=0;exitDx=0;exitDy=0;" parent="1" source="8te2NEno-c-hepWdQkUT-2" edge="1">
          <mxGeometry width="50" height="50" relative="1" as="geometry">
            <mxPoint x="560" y="820" as="sourcePoint" />
            <mxPoint x="560" y="780" as="targetPoint" />
          </mxGeometry>
        </mxCell>
        <mxCell id="O4Nfc_O7mW6tlxrwmFaQ-11" value="" style="endArrow=none;html=1;rounded=0;" parent="1" edge="1">
          <mxGeometry width="50" height="50" relative="1" as="geometry">
            <mxPoint x="560" y="840" as="sourcePoint" />
            <mxPoint x="520" y="840" as="targetPoint" />
          </mxGeometry>
        </mxCell>
        <mxCell id="O4Nfc_O7mW6tlxrwmFaQ-12" value="" style="endArrow=none;html=1;rounded=0;" parent="1" edge="1">
          <mxGeometry width="50" height="50" relative="1" as="geometry">
            <mxPoint x="440" y="920" as="sourcePoint" />
            <mxPoint x="640" y="920" as="targetPoint" />
          </mxGeometry>
        </mxCell>
        <mxCell id="O4Nfc_O7mW6tlxrwmFaQ-13" value="" style="endArrow=none;html=1;rounded=0;" parent="1" edge="1">
          <mxGeometry width="50" height="50" relative="1" as="geometry">
            <mxPoint x="500" y="820" as="sourcePoint" />
            <mxPoint x="580" y="820" as="targetPoint" />
          </mxGeometry>
        </mxCell>
        <mxCell id="8te2NEno-c-hepWdQkUT-1" value="HVD" style="text;html=1;align=center;verticalAlign=middle;whiteSpace=wrap;rounded=0;fontFamily=Helvetica;fontSize=15;fontColor=default;labelBackgroundColor=default;" parent="1" vertex="1">
          <mxGeometry x="500" y="970" width="80" height="20" as="geometry" />
        </mxCell>
        <mxCell id="8te2NEno-c-hepWdQkUT-2" value="Interlock" style="text;html=1;align=center;verticalAlign=middle;whiteSpace=wrap;rounded=0;fontFamily=Helvetica;fontSize=15;fontColor=default;labelBackgroundColor=default;" parent="1" vertex="1">
          <mxGeometry x="500" y="840" width="80" height="20" as="geometry" />
        </mxCell>
        <mxCell id="_W1T44VGCUn7KQ4x7r4C-2" style="edgeStyle=orthogonalEdgeStyle;rounded=0;orthogonalLoop=1;jettySize=auto;html=1;exitX=0;exitY=0.5;exitDx=0;exitDy=0;exitPerimeter=0;endSize=10;startSize=10;endArrow=oval;endFill=1;startArrow=oval;startFill=1;fillColor=#fa6800;strokeColor=#FF8000;" parent="1" source="blXHy7IrOAy7iJBvozp8-2" edge="1">
          <mxGeometry relative="1" as="geometry">
            <mxPoint x="600" y="780" as="targetPoint" />
            <Array as="points">
              <mxPoint x="760" y="520" />
              <mxPoint x="760" y="720" />
              <mxPoint x="600" y="720" />
            </Array>
          </mxGeometry>
        </mxCell>
        <mxCell id="_W1T44VGCUn7KQ4x7r4C-3" value="" style="rounded=0;whiteSpace=wrap;html=1;fillColor=none;dashed=1;dashPattern=8 8;" parent="1" vertex="1">
          <mxGeometry x="120" y="1000" width="160" height="120" as="geometry" />
        </mxCell>
        <mxCell id="_W1T44VGCUn7KQ4x7r4C-4" value="ACC" style="text;html=1;align=center;verticalAlign=middle;whiteSpace=wrap;rounded=0;fontFamily=Helvetica;fontSize=15;fontColor=default;labelBackgroundColor=default;" parent="1" vertex="1">
          <mxGeometry x="160" y="1120" width="80" height="20" as="geometry" />
        </mxCell>
        <mxCell id="_W1T44VGCUn7KQ4x7r4C-10" style="edgeStyle=orthogonalEdgeStyle;rounded=0;orthogonalLoop=1;jettySize=auto;html=1;strokeColor=#FF8000;align=center;verticalAlign=middle;fontFamily=Helvetica;fontSize=11;fontColor=default;labelBackgroundColor=default;startArrow=oval;startFill=1;startSize=10;endArrow=oval;endFill=1;endSize=10;fillColor=#fa6800;strokeWidth=5;" parent="1" edge="1">
          <mxGeometry relative="1" as="geometry">
            <mxPoint x="160" y="440" as="targetPoint" />
            <mxPoint x="160" y="1000" as="sourcePoint" />
          </mxGeometry>
        </mxCell>
        <mxCell id="_W1T44VGCUn7KQ4x7r4C-5" value="ACC+" style="text;html=1;align=center;verticalAlign=middle;whiteSpace=wrap;rounded=0;fontFamily=Helvetica;fontSize=15;fontColor=default;labelBackgroundColor=default;" parent="1" vertex="1">
          <mxGeometry x="130" y="1010" width="60" height="20" as="geometry" />
        </mxCell>
        <mxCell id="_W1T44VGCUn7KQ4x7r4C-8" style="edgeStyle=orthogonalEdgeStyle;rounded=0;orthogonalLoop=1;jettySize=auto;html=1;strokeColor=#FF8000;align=center;verticalAlign=middle;fontFamily=Helvetica;fontSize=11;fontColor=default;labelBackgroundColor=default;startArrow=oval;startFill=1;startSize=10;endArrow=oval;endFill=1;endSize=10;fillColor=#fa6800;strokeWidth=5;" parent="1" edge="1">
          <mxGeometry relative="1" as="geometry">
            <mxPoint x="240" y="1000" as="sourcePoint" />
            <mxPoint x="480" y="780" as="targetPoint" />
            <Array as="points">
              <mxPoint x="240" y="780" />
            </Array>
          </mxGeometry>
        </mxCell>
        <mxCell id="_W1T44VGCUn7KQ4x7r4C-6" value="ACC-" style="text;html=1;align=center;verticalAlign=middle;whiteSpace=wrap;rounded=0;fontFamily=Helvetica;fontSize=15;fontColor=default;labelBackgroundColor=default;" parent="1" vertex="1">
          <mxGeometry x="210" y="1010" width="60" height="20" as="geometry" />
        </mxCell>
        <mxCell id="_W1T44VGCUn7KQ4x7r4C-11" style="edgeStyle=orthogonalEdgeStyle;rounded=0;orthogonalLoop=1;jettySize=auto;html=1;exitX=1;exitY=1;exitDx=0;exitDy=0;exitPerimeter=0;strokeColor=#FF8000;align=center;verticalAlign=middle;fontFamily=Helvetica;fontSize=11;fontColor=default;labelBackgroundColor=default;startArrow=oval;startFill=1;startSize=10;endArrow=oval;endFill=1;endSize=10;fillColor=#fa6800;" parent="1" source="O4Nfc_O7mW6tlxrwmFaQ-3" edge="1">
          <mxGeometry relative="1" as="geometry">
            <mxPoint x="160" y="440" as="targetPoint" />
            <Array as="points">
              <mxPoint x="270" y="440" />
            </Array>
          </mxGeometry>
        </mxCell>
        <mxCell id="_W1T44VGCUn7KQ4x7r4C-13" value="3.3k" style="pointerEvents=1;verticalLabelPosition=top;shadow=0;dashed=0;align=center;html=1;verticalAlign=bottom;shape=mxgraph.electrical.resistors.resistor_2;rotation=-90;labelPosition=center;fontSize=15;" parent="1" vertex="1">
          <mxGeometry x="530" y="590" width="100" height="20" as="geometry" />
        </mxCell>
        <mxCell id="_W1T44VGCUn7KQ4x7r4C-14" style="edgeStyle=orthogonalEdgeStyle;rounded=0;orthogonalLoop=1;jettySize=auto;html=1;entryX=0;entryY=1;entryDx=0;entryDy=0;entryPerimeter=0;strokeColor=#FF8000;align=center;verticalAlign=middle;fontFamily=Helvetica;fontSize=11;fontColor=default;labelBackgroundColor=default;startArrow=oval;startFill=1;startSize=10;endArrow=oval;endFill=1;endSize=10;fillColor=#fa6800;exitX=1;exitY=0.5;exitDx=0;exitDy=0;exitPerimeter=0;" parent="1" source="_W1T44VGCUn7KQ4x7r4C-13" target="O4Nfc_O7mW6tlxrwmFaQ-3" edge="1">
          <mxGeometry relative="1" as="geometry">
            <mxPoint x="580" y="540" as="sourcePoint" />
            <Array as="points">
              <mxPoint x="580" y="520" />
              <mxPoint x="480" y="520" />
              <mxPoint x="480" y="640" />
              <mxPoint x="270" y="640" />
            </Array>
          </mxGeometry>
        </mxCell>
        <mxCell id="_W1T44VGCUn7KQ4x7r4C-15" style="edgeStyle=orthogonalEdgeStyle;rounded=0;orthogonalLoop=1;jettySize=auto;html=1;strokeColor=#FF8000;align=center;verticalAlign=middle;fontFamily=Helvetica;fontSize=11;fontColor=default;labelBackgroundColor=default;startArrow=oval;startFill=1;startSize=10;endArrow=oval;endFill=1;endSize=10;fillColor=#fa6800;exitX=0;exitY=0.5;exitDx=0;exitDy=0;exitPerimeter=0;" parent="1" source="_W1T44VGCUn7KQ4x7r4C-13" edge="1">
          <mxGeometry relative="1" as="geometry">
            <mxPoint x="600" y="780" as="targetPoint" />
            <mxPoint x="620" y="670" as="sourcePoint" />
            <Array as="points">
              <mxPoint x="580" y="780" />
            </Array>
          </mxGeometry>
        </mxCell>
        <mxCell id="_W1T44VGCUn7KQ4x7r4C-12" style="edgeStyle=orthogonalEdgeStyle;rounded=0;orthogonalLoop=1;jettySize=auto;html=1;exitX=0;exitY=0.5;exitDx=0;exitDy=0;exitPerimeter=0;strokeColor=#FF8000;align=center;verticalAlign=middle;fontFamily=Helvetica;fontSize=11;fontColor=default;labelBackgroundColor=default;startArrow=oval;startFill=1;startSize=10;endArrow=oval;endFill=1;endSize=10;fillColor=#fa6800;" parent="1" source="blXHy7IrOAy7iJBvozp8-3" edge="1">
          <mxGeometry relative="1" as="geometry">
            <mxPoint x="160" y="440" as="targetPoint" />
            <Array as="points">
              <mxPoint x="720" y="640" />
              <mxPoint x="720" y="400" />
              <mxPoint x="160" y="400" />
            </Array>
          </mxGeometry>
        </mxCell>
        <mxCell id="3WL62Vs6YBBgBQ53i3GR-8" style="edgeStyle=orthogonalEdgeStyle;rounded=0;orthogonalLoop=1;jettySize=auto;html=1;exitX=0;exitY=0.5;exitDx=0;exitDy=0;strokeColor=#FF8000;align=center;verticalAlign=middle;fontFamily=Helvetica;fontSize=11;fontColor=default;labelBackgroundColor=default;startArrow=oval;startFill=1;startSize=10;endArrow=oval;endFill=1;endSize=10;fillColor=#fa6800;strokeWidth=5;" parent="1" source="_W1T44VGCUn7KQ4x7r4C-17" edge="1">
          <mxGeometry relative="1" as="geometry">
            <mxPoint x="600" y="780" as="targetPoint" />
            <Array as="points">
              <mxPoint x="1000" y="840" />
              <mxPoint x="1000" y="780" />
            </Array>
          </mxGeometry>
        </mxCell>
        <mxCell id="_W1T44VGCUn7KQ4x7r4C-17" value="Input DC+" style="text;html=1;align=center;verticalAlign=middle;whiteSpace=wrap;rounded=0;fontFamily=Helvetica;fontSize=15;fontColor=default;labelBackgroundColor=default;" parent="1" vertex="1">
          <mxGeometry x="1080" y="830" width="100" height="20" as="geometry" />
        </mxCell>
        <mxCell id="3WL62Vs6YBBgBQ53i3GR-9" style="edgeStyle=orthogonalEdgeStyle;rounded=0;orthogonalLoop=1;jettySize=auto;html=1;exitX=0;exitY=0.5;exitDx=0;exitDy=0;strokeColor=#FF8000;align=center;verticalAlign=middle;fontFamily=Helvetica;fontSize=11;fontColor=default;labelBackgroundColor=default;startArrow=oval;startFill=1;startSize=10;endArrow=oval;endFill=1;endSize=10;fillColor=#fa6800;strokeWidth=5;" parent="1" source="_W1T44VGCUn7KQ4x7r4C-18" edge="1">
          <mxGeometry relative="1" as="geometry">
            <mxPoint x="160" y="440" as="targetPoint" />
            <Array as="points">
              <mxPoint x="1040" y="920" />
              <mxPoint x="1040" y="360" />
              <mxPoint x="120" y="360" />
              <mxPoint x="120" y="440" />
            </Array>
          </mxGeometry>
        </mxCell>
        <mxCell id="_W1T44VGCUn7KQ4x7r4C-18" value="Input DC-" style="text;html=1;align=center;verticalAlign=middle;whiteSpace=wrap;rounded=0;fontFamily=Helvetica;fontSize=15;fontColor=default;labelBackgroundColor=default;" parent="1" vertex="1">
          <mxGeometry x="1080" y="910" width="100" height="20" as="geometry" />
        </mxCell>
        <mxCell id="_W1T44VGCUn7KQ4x7r4C-19" value="U" style="text;html=1;align=center;verticalAlign=middle;whiteSpace=wrap;rounded=0;fontFamily=Helvetica;fontSize=15;fontColor=default;labelBackgroundColor=default;" parent="1" vertex="1">
          <mxGeometry x="1240" y="830" width="40" height="20" as="geometry" />
        </mxCell>
        <mxCell id="_W1T44VGCUn7KQ4x7r4C-20" value="V" style="text;html=1;align=center;verticalAlign=middle;whiteSpace=wrap;rounded=0;fontFamily=Helvetica;fontSize=15;fontColor=default;labelBackgroundColor=default;" parent="1" vertex="1">
          <mxGeometry x="1240" y="870" width="40" height="20" as="geometry" />
        </mxCell>
        <mxCell id="_W1T44VGCUn7KQ4x7r4C-21" value="W" style="text;html=1;align=center;verticalAlign=middle;whiteSpace=wrap;rounded=0;fontFamily=Helvetica;fontSize=15;fontColor=default;labelBackgroundColor=default;" parent="1" vertex="1">
          <mxGeometry x="1240" y="910" width="40" height="20" as="geometry" />
        </mxCell>
        <mxCell id="_W1T44VGCUn7KQ4x7r4C-22" value="Inverter" style="text;html=1;align=center;verticalAlign=middle;whiteSpace=wrap;rounded=0;fontFamily=Helvetica;fontSize=15;fontColor=default;labelBackgroundColor=default;" parent="1" vertex="1">
          <mxGeometry x="1140" y="780" width="80" height="20" as="geometry" />
        </mxCell>
        <mxCell id="_W1T44VGCUn7KQ4x7r4C-23" value="" style="ellipse;whiteSpace=wrap;html=1;aspect=fixed;fontFamily=Helvetica;fontSize=15;fontColor=default;labelBackgroundColor=default;fillColor=none;" parent="1" vertex="1">
          <mxGeometry x="1480" y="800" width="160" height="160" as="geometry" />
        </mxCell>
        <mxCell id="3WL62Vs6YBBgBQ53i3GR-1" value="" style="rounded=0;whiteSpace=wrap;html=1;fontFamily=Helvetica;fontSize=11;fontColor=default;labelBackgroundColor=default;fillColor=none;" parent="1" vertex="1">
          <mxGeometry x="1440" y="800" width="60" height="160" as="geometry" />
        </mxCell>
        <mxCell id="3WL62Vs6YBBgBQ53i3GR-2" value="U" style="text;html=1;align=center;verticalAlign=middle;whiteSpace=wrap;rounded=0;fontFamily=Helvetica;fontSize=15;fontColor=default;labelBackgroundColor=default;" parent="1" vertex="1">
          <mxGeometry x="1440" y="830" width="40" height="20" as="geometry" />
        </mxCell>
        <mxCell id="3WL62Vs6YBBgBQ53i3GR-6" style="edgeStyle=orthogonalEdgeStyle;rounded=0;orthogonalLoop=1;jettySize=auto;html=1;exitX=0;exitY=0.5;exitDx=0;exitDy=0;entryX=1;entryY=0.5;entryDx=0;entryDy=0;strokeColor=#FF8000;align=center;verticalAlign=middle;fontFamily=Helvetica;fontSize=11;fontColor=default;labelBackgroundColor=default;startArrow=oval;startFill=1;startSize=10;endArrow=oval;endFill=1;endSize=10;fillColor=#fa6800;strokeWidth=5;" parent="1" source="3WL62Vs6YBBgBQ53i3GR-3" target="_W1T44VGCUn7KQ4x7r4C-20" edge="1">
          <mxGeometry relative="1" as="geometry" />
        </mxCell>
        <mxCell id="3WL62Vs6YBBgBQ53i3GR-3" value="V" style="text;html=1;align=center;verticalAlign=middle;whiteSpace=wrap;rounded=0;fontFamily=Helvetica;fontSize=15;fontColor=default;labelBackgroundColor=default;" parent="1" vertex="1">
          <mxGeometry x="1440" y="870" width="40" height="20" as="geometry" />
        </mxCell>
        <mxCell id="3WL62Vs6YBBgBQ53i3GR-4" value="W" style="text;html=1;align=center;verticalAlign=middle;whiteSpace=wrap;rounded=0;fontFamily=Helvetica;fontSize=15;fontColor=default;labelBackgroundColor=default;" parent="1" vertex="1">
          <mxGeometry x="1440" y="910" width="40" height="20" as="geometry" />
        </mxCell>
        <mxCell id="3WL62Vs6YBBgBQ53i3GR-5" style="edgeStyle=orthogonalEdgeStyle;rounded=0;orthogonalLoop=1;jettySize=auto;html=1;exitX=1;exitY=0.5;exitDx=0;exitDy=0;entryX=0;entryY=0.5;entryDx=0;entryDy=0;strokeColor=#FF8000;align=center;verticalAlign=middle;fontFamily=Helvetica;fontSize=11;fontColor=default;labelBackgroundColor=default;startArrow=oval;startFill=1;startSize=10;endArrow=oval;endFill=1;endSize=10;fillColor=#fa6800;strokeWidth=5;" parent="1" source="_W1T44VGCUn7KQ4x7r4C-19" target="3WL62Vs6YBBgBQ53i3GR-2" edge="1">
          <mxGeometry relative="1" as="geometry" />
        </mxCell>
        <mxCell id="3WL62Vs6YBBgBQ53i3GR-7" style="edgeStyle=orthogonalEdgeStyle;rounded=0;orthogonalLoop=1;jettySize=auto;html=1;exitX=1;exitY=0.5;exitDx=0;exitDy=0;entryX=0;entryY=0.5;entryDx=0;entryDy=0;strokeColor=#FF8000;align=center;verticalAlign=middle;fontFamily=Helvetica;fontSize=11;fontColor=default;labelBackgroundColor=default;startArrow=oval;startFill=1;startSize=10;endArrow=oval;endFill=1;endSize=10;fillColor=#fa6800;strokeWidth=5;" parent="1" source="_W1T44VGCUn7KQ4x7r4C-21" target="3WL62Vs6YBBgBQ53i3GR-4" edge="1">
          <mxGeometry relative="1" as="geometry" />
        </mxCell>
        <mxCell id="3WL62Vs6YBBgBQ53i3GR-12" value="Motor" style="text;html=1;align=center;verticalAlign=middle;whiteSpace=wrap;rounded=0;fontFamily=Helvetica;fontSize=15;fontColor=default;labelBackgroundColor=default;" parent="1" vertex="1">
          <mxGeometry x="1520" y="780" width="80" height="20" as="geometry" />
        </mxCell>
        <mxCell id="3WL62Vs6YBBgBQ53i3GR-15" style="edgeStyle=orthogonalEdgeStyle;rounded=0;orthogonalLoop=1;jettySize=auto;html=1;exitX=0;exitY=0.5;exitDx=0;exitDy=0;align=center;verticalAlign=middle;fontFamily=Helvetica;fontSize=11;fontColor=default;labelBackgroundColor=default;startArrow=none;startFill=0;startSize=10;endArrow=none;endFill=0;endSize=10;" parent="1" source="3WL62Vs6YBBgBQ53i3GR-13" edge="1">
          <mxGeometry relative="1" as="geometry">
            <mxPoint x="1320.0000000000002" y="520.0833333333335" as="targetPoint" />
          </mxGeometry>
        </mxCell>
        <mxCell id="3WL62Vs6YBBgBQ53i3GR-13" value="" style="ellipse;whiteSpace=wrap;html=1;aspect=fixed;fontFamily=Helvetica;fontSize=15;fontColor=default;labelBackgroundColor=default;fillColor=none;" parent="1" vertex="1">
          <mxGeometry x="1340" y="500" width="40" height="40" as="geometry" />
        </mxCell>
        <mxCell id="3WL62Vs6YBBgBQ53i3GR-14" value="" style="ellipse;whiteSpace=wrap;html=1;aspect=fixed;fontFamily=Helvetica;fontSize=15;fontColor=default;labelBackgroundColor=default;fillColor=none;" parent="1" vertex="1">
          <mxGeometry x="1350" y="510" width="20" height="20" as="geometry" />
        </mxCell>
        <mxCell id="3WL62Vs6YBBgBQ53i3GR-10" style="edgeStyle=orthogonalEdgeStyle;rounded=0;orthogonalLoop=1;jettySize=auto;html=1;exitX=1;exitY=0.5;exitDx=0;exitDy=0;exitPerimeter=0;strokeColor=#FF8000;align=center;verticalAlign=middle;fontFamily=Helvetica;fontSize=11;fontColor=default;labelBackgroundColor=default;startArrow=oval;startFill=1;startSize=10;endArrow=oval;endFill=1;endSize=10;fillColor=#fa6800;" parent="1" source="blXHy7IrOAy7iJBvozp8-2" edge="1">
          <mxGeometry relative="1" as="geometry">
            <mxPoint x="1320" y="520" as="targetPoint" />
          </mxGeometry>
        </mxCell>
        <mxCell id="3WL62Vs6YBBgBQ53i3GR-16" style="edgeStyle=orthogonalEdgeStyle;rounded=0;orthogonalLoop=1;jettySize=auto;html=1;exitX=0;exitY=0.5;exitDx=0;exitDy=0;align=center;verticalAlign=middle;fontFamily=Helvetica;fontSize=11;fontColor=default;labelBackgroundColor=default;startArrow=none;startFill=0;startSize=10;endArrow=none;endFill=0;endSize=10;" parent="1" source="3WL62Vs6YBBgBQ53i3GR-17" edge="1">
          <mxGeometry relative="1" as="geometry">
            <mxPoint x="1320.0000000000002" y="640.0833333333335" as="targetPoint" />
          </mxGeometry>
        </mxCell>
        <mxCell id="3WL62Vs6YBBgBQ53i3GR-17" value="" style="ellipse;whiteSpace=wrap;html=1;aspect=fixed;fontFamily=Helvetica;fontSize=15;fontColor=default;labelBackgroundColor=default;fillColor=none;" parent="1" vertex="1">
          <mxGeometry x="1340" y="620" width="40" height="40" as="geometry" />
        </mxCell>
        <mxCell id="3WL62Vs6YBBgBQ53i3GR-18" value="" style="ellipse;whiteSpace=wrap;html=1;aspect=fixed;fontFamily=Helvetica;fontSize=15;fontColor=default;labelBackgroundColor=default;fillColor=none;" parent="1" vertex="1">
          <mxGeometry x="1350" y="630" width="20" height="20" as="geometry" />
        </mxCell>
        <mxCell id="3WL62Vs6YBBgBQ53i3GR-11" style="edgeStyle=orthogonalEdgeStyle;rounded=0;orthogonalLoop=1;jettySize=auto;html=1;exitX=1;exitY=0.5;exitDx=0;exitDy=0;exitPerimeter=0;strokeColor=#FF8000;align=center;verticalAlign=middle;fontFamily=Helvetica;fontSize=11;fontColor=default;labelBackgroundColor=default;startArrow=oval;startFill=1;startSize=10;endArrow=oval;endFill=1;endSize=10;fillColor=#fa6800;" parent="1" source="blXHy7IrOAy7iJBvozp8-3" edge="1">
          <mxGeometry relative="1" as="geometry">
            <mxPoint x="1320" y="640" as="targetPoint" />
          </mxGeometry>
        </mxCell>
        <mxCell id="jGeOY87TeA9yXPhwiixt-1" value="HVBOX" style="text;html=1;align=center;verticalAlign=middle;whiteSpace=wrap;rounded=0;fontFamily=Helvetica;fontSize=15;fontColor=default;labelBackgroundColor=default;" parent="1" vertex="1">
          <mxGeometry x="480" y="300" width="80" height="20" as="geometry" />
        </mxCell>
        <mxCell id="0vnBiaD0wuf72EHOd5vt-1" value="TSMP+" style="text;html=1;align=center;verticalAlign=middle;whiteSpace=wrap;rounded=0;fontFamily=Helvetica;fontSize=15;fontColor=default;labelBackgroundColor=default;" parent="1" vertex="1">
          <mxGeometry x="1320" y="480" width="80" height="20" as="geometry" />
        </mxCell>
        <mxCell id="0vnBiaD0wuf72EHOd5vt-2" value="TSMP-" style="text;html=1;align=center;verticalAlign=middle;whiteSpace=wrap;rounded=0;fontFamily=Helvetica;fontSize=15;fontColor=default;labelBackgroundColor=default;" parent="1" vertex="1">
          <mxGeometry x="1320" y="600" width="80" height="20" as="geometry" />
        </mxCell>
        <mxCell id="qTiWVSItmcy0YvE_Z_b8-1" value="1" style="ellipse;whiteSpace=wrap;html=1;aspect=fixed;fontSize=12;" parent="1" vertex="1">
          <mxGeometry x="130" y="970" width="20" height="20" as="geometry" />
        </mxCell>
        <mxCell id="qTiWVSItmcy0YvE_Z_b8-2" value="2" style="ellipse;whiteSpace=wrap;html=1;aspect=fixed;fontSize=12;" parent="1" vertex="1">
          <mxGeometry x="250" y="970" width="20" height="20" as="geometry" />
        </mxCell>
        <mxCell id="qTiWVSItmcy0YvE_Z_b8-3" value="3" style="ellipse;whiteSpace=wrap;html=1;aspect=fixed;fontSize=12;" parent="1" vertex="1">
          <mxGeometry x="130" y="450" width="20" height="20" as="geometry" />
        </mxCell>
        <mxCell id="qTiWVSItmcy0YvE_Z_b8-4" value="4" style="ellipse;whiteSpace=wrap;html=1;aspect=fixed;fontSize=12;" parent="1" vertex="1">
          <mxGeometry x="240" y="490" width="20" height="20" as="geometry" />
        </mxCell>
        <mxCell id="qTiWVSItmcy0YvE_Z_b8-5" value="5" style="ellipse;whiteSpace=wrap;html=1;aspect=fixed;fontSize=12;" parent="1" vertex="1">
          <mxGeometry x="240" y="610" width="20" height="20" as="geometry" />
        </mxCell>
        <mxCell id="qTiWVSItmcy0YvE_Z_b8-6" value="6" style="ellipse;whiteSpace=wrap;html=1;aspect=fixed;fontSize=12;" parent="1" vertex="1">
          <mxGeometry x="450" y="750" width="20" height="20" as="geometry" />
        </mxCell>
        <mxCell id="qTiWVSItmcy0YvE_Z_b8-7" value="7" style="ellipse;whiteSpace=wrap;html=1;aspect=fixed;fontSize=12;" parent="1" vertex="1">
          <mxGeometry x="610" y="750" width="20" height="20" as="geometry" />
        </mxCell>
        <mxCell id="qTiWVSItmcy0YvE_Z_b8-8" value="8" style="ellipse;whiteSpace=wrap;html=1;aspect=fixed;fontSize=12;" parent="1" vertex="1">
          <mxGeometry x="550" y="540" width="20" height="20" as="geometry" />
        </mxCell>
        <mxCell id="qTiWVSItmcy0YvE_Z_b8-9" value="9" style="ellipse;whiteSpace=wrap;html=1;aspect=fixed;fontSize=12;" parent="1" vertex="1">
          <mxGeometry x="550" y="640" width="20" height="20" as="geometry" />
        </mxCell>
        <mxCell id="FpMBjtGyUdu8j1D8LA7C-1" value="10" style="ellipse;whiteSpace=wrap;html=1;aspect=fixed;fontSize=12;" parent="1" vertex="1">
          <mxGeometry x="800" y="490" width="20" height="20" as="geometry" />
        </mxCell>
        <mxCell id="HurkzjTgOI2OepCN-CV8-1" value="11" style="ellipse;whiteSpace=wrap;html=1;aspect=fixed;fontSize=12;" parent="1" vertex="1">
          <mxGeometry x="900" y="490" width="20" height="20" as="geometry" />
        </mxCell>
        <mxCell id="HurkzjTgOI2OepCN-CV8-2" value="12" style="ellipse;whiteSpace=wrap;html=1;aspect=fixed;fontSize=12;" parent="1" vertex="1">
          <mxGeometry x="800" y="610" width="20" height="20" as="geometry" />
        </mxCell>
        <mxCell id="HurkzjTgOI2OepCN-CV8-3" value="13" style="ellipse;whiteSpace=wrap;html=1;aspect=fixed;fontSize=12;" parent="1" vertex="1">
          <mxGeometry x="900" y="610" width="20" height="20" as="geometry" />
        </mxCell>
        <mxCell id="HurkzjTgOI2OepCN-CV8-4" value="14" style="ellipse;whiteSpace=wrap;html=1;aspect=fixed;fontSize=12;" parent="1" vertex="1">
          <mxGeometry x="1050" y="810" width="20" height="20" as="geometry" />
        </mxCell>
        <mxCell id="HurkzjTgOI2OepCN-CV8-5" value="15" style="ellipse;whiteSpace=wrap;html=1;aspect=fixed;fontSize=12;" parent="1" vertex="1">
          <mxGeometry x="1050" y="890" width="20" height="20" as="geometry" />
        </mxCell>
        <mxCell id="HurkzjTgOI2OepCN-CV8-6" value="16" style="ellipse;whiteSpace=wrap;html=1;aspect=fixed;fontSize=12;" parent="1" vertex="1">
          <mxGeometry x="1290" y="810" width="20" height="20" as="geometry" />
        </mxCell>
        <mxCell id="HurkzjTgOI2OepCN-CV8-7" value="17" style="ellipse;whiteSpace=wrap;html=1;aspect=fixed;fontSize=12;" parent="1" vertex="1">
          <mxGeometry x="1290" y="850" width="20" height="20" as="geometry" />
        </mxCell>
        <mxCell id="HurkzjTgOI2OepCN-CV8-8" value="18" style="ellipse;whiteSpace=wrap;html=1;aspect=fixed;fontSize=12;" parent="1" vertex="1">
          <mxGeometry x="1290" y="890" width="20" height="20" as="geometry" />
        </mxCell>
        <mxCell id="HurkzjTgOI2OepCN-CV8-9" value="19" style="ellipse;whiteSpace=wrap;html=1;aspect=fixed;fontSize=12;" parent="1" vertex="1">
          <mxGeometry x="1410" y="810" width="20" height="20" as="geometry" />
        </mxCell>
        <mxCell id="HurkzjTgOI2OepCN-CV8-11" value="20" style="ellipse;whiteSpace=wrap;html=1;aspect=fixed;fontSize=12;" parent="1" vertex="1">
          <mxGeometry x="1410" y="850" width="20" height="20" as="geometry" />
        </mxCell>
        <mxCell id="HurkzjTgOI2OepCN-CV8-12" value="21" style="ellipse;whiteSpace=wrap;html=1;aspect=fixed;fontSize=12;" parent="1" vertex="1">
          <mxGeometry x="1410" y="890" width="20" height="20" as="geometry" />
        </mxCell>
        <mxCell id="HurkzjTgOI2OepCN-CV8-13" value="22" style="ellipse;whiteSpace=wrap;html=1;aspect=fixed;fontSize=12;" parent="1" vertex="1">
          <mxGeometry x="1310" y="490" width="20" height="20" as="geometry" />
        </mxCell>
        <mxCell id="HurkzjTgOI2OepCN-CV8-14" value="23" style="ellipse;whiteSpace=wrap;html=1;aspect=fixed;fontSize=12;" parent="1" vertex="1">
          <mxGeometry x="1310" y="610" width="20" height="20" as="geometry" />
        </mxCell>
      </root>
    </mxGraphModel>
  </diagram>
  <diagram id="u5vQzolGSeBN-FUhJK3S" name="GLVPowerUnit">
    <mxGraphModel dx="1036" dy="606" grid="1" gridSize="10" guides="1" tooltips="1" connect="1" arrows="1" fold="1" page="1" pageScale="1" pageWidth="827" pageHeight="1169" math="0" shadow="0">
      <root>
        <mxCell id="0" />
        <mxCell id="1" parent="0" />
      </root>
    </mxGraphModel>
  </diagram>
  <diagram id="S-DRiVX3sPZ_VxXsOEBH" name="HVBOXUnit">
    <mxGraphModel dx="1036" dy="606" grid="1" gridSize="10" guides="1" tooltips="1" connect="1" arrows="1" fold="1" page="1" pageScale="1" pageWidth="827" pageHeight="1169" math="0" shadow="0">
      <root>
        <mxCell id="0" />
        <mxCell id="1" parent="0" />
      </root>
    </mxGraphModel>
  </diagram>
  <diagram id="cj2_zXbOdA6Nd2zsE755" name="AccumulatorUnit">
    <mxGraphModel dx="1036" dy="606" grid="1" gridSize="10" guides="1" tooltips="1" connect="1" arrows="1" fold="1" page="1" pageScale="1" pageWidth="827" pageHeight="1169" math="0" shadow="0">
      <root>
        <mxCell id="0" />
        <mxCell id="1" parent="0" />
      </root>
    </mxGraphModel>
  </diagram>
  <diagram id="prS62mcHkRqentlFx-lx" name="TSPowerUnit">
    <mxGraphModel dx="1036" dy="606" grid="1" gridSize="10" guides="1" tooltips="1" connect="1" arrows="1" fold="1" page="1" pageScale="1" pageWidth="827" pageHeight="1169" math="0" shadow="0">
      <root>
        <mxCell id="0" />
        <mxCell id="1" parent="0" />
      </root>
    </mxGraphModel>
  </diagram>
  <diagram id="QSnH-9GjPgkRojtLAB_8" name="AMS,BSPD,IMDStatusUnit">
    <mxGraphModel dx="1036" dy="606" grid="1" gridSize="10" guides="1" tooltips="1" connect="1" arrows="1" fold="1" page="1" pageScale="1" pageWidth="827" pageHeight="1169" math="0" shadow="0">
      <root>
        <mxCell id="0" />
        <mxCell id="1" parent="0" />
      </root>
    </mxGraphModel>
  </diagram>
  <diagram id="C_UGSryvhhAHDYOBeh9n" name="VehicleControlUnit">
    <mxGraphModel dx="1036" dy="606" grid="1" gridSize="10" guides="1" tooltips="1" connect="1" arrows="1" fold="1" page="1" pageScale="1" pageWidth="827" pageHeight="1169" math="0" shadow="0">
      <root>
        <mxCell id="0" />
        <mxCell id="1" parent="0" />
      </root>
    </mxGraphModel>
  </diagram>
</mxfile>
